SplineFontDB: 3.0
FontName: CheyenneSans-Regular
FullName: Cheyenne Sans Regular
FamilyName: Cheyenne Sans
Weight: Book
Version: 1.000; ttfautohint (v1.8.2)
ItalicAngle: 0
UnderlinePosition: -150
UnderlineWidth: 50
Ascent: 800
Descent: 200
InvalidEm: 0
sfntRevision: 0x00010000
LayerCount: 2
Layer: 0 1 "Back" 1
Layer: 1 1 "Fore" 0
XUID: [1021 646 1163163066 7516526]
StyleMap: 0x0040
FSType: 0
OS2Version: 3
OS2_WeightWidthSlopeOnly: 0
OS2_UseTypoMetrics: 0
CreationTime: 1513572760
ModificationTime: 1538679564
PfmFamily: 81
TTFWeight: 400
TTFWidth: 5
LineGap: 0
VLineGap: 0
Panose: 0 0 5 0 0 0 0 0 0 0
OS2TypoAscent: 743
OS2TypoAOffset: 0
OS2TypoDescent: -161
OS2TypoDOffset: 0
OS2TypoLinegap: 0
OS2WinAscent: 822
OS2WinAOffset: 0
OS2WinDescent: 178
OS2WinDOffset: 0
HheadAscent: 822
HheadAOffset: 0
HheadDescent: -178
HheadDOffset: 0
OS2SubXSize: 650
OS2SubYSize: 600
OS2SubXOff: 0
OS2SubYOff: 75
OS2SupXSize: 650
OS2SupYSize: 600
OS2SupXOff: 0
OS2SupYOff: 350
OS2StrikeYSize: 50
OS2StrikeYPos: 310
OS2CapHeight: 723
OS2XHeight: 517
OS2Vendor: 'IMPA'
OS2CodePages: 20000193.00000000
OS2UnicodeRanges: 00000007.00000000.00000000.00000000
Lookup: 1 0 0 "'aalt' Access All Alternates in Latin lookup 0" { "'aalt' Access All Alternates in Latin lookup 0 subtable"  } ['aalt' ('DFLT' <'dflt' > 'latn' <'AZE ' 'CAT ' 'CRT ' 'KAZ ' 'MOL ' 'ROM ' 'TAT ' 'TRK ' 'dflt' > ) ]
Lookup: 3 0 0 "'aalt' Access All Alternates in Latin lookup 1" { "'aalt' Access All Alternates in Latin lookup 1 subtable"  } ['aalt' ('DFLT' <'dflt' > 'latn' <'AZE ' 'CAT ' 'CRT ' 'KAZ ' 'MOL ' 'ROM ' 'TAT ' 'TRK ' 'dflt' > ) ]
Lookup: 6 0 0 "'ccmp' Glyph Composition/Decomposition in Latin lookup 2" { "'ccmp' Glyph Composition/Decomposition in Latin lookup 2 contextual 0"  "'ccmp' Glyph Composition/Decomposition in Latin lookup 2 contextual 1"  } ['ccmp' ('DFLT' <'dflt' > 'latn' <'AZE ' 'CAT ' 'CRT ' 'KAZ ' 'MOL ' 'ROM ' 'TAT ' 'TRK ' 'dflt' > ) ]

StartChar: .notdef
Encoding: 65536 -1 0
Width: 686
Flags: W
LayerCount: 2
Fore
SplineSet
590 805 m 2,0,-1
 590 -133 l 2,1,2
 590 -148 590 -148 582.5 -154.5 c 128,-1,3
 575 -161 575 -161 558 -161 c 2,4,-1
 122 -161 l 2,5,6
 107 -161 107 -161 101 -155.5 c 128,-1,7
 95 -150 95 -150 95 -137 c 2,8,-1
 95 803 l 2,9,10
 95 814 95 814 100 820 c 128,-1,11
 105 826 105 826 114 826 c 2,12,-1
 573 826 l 2,13,14
 590 826 590 826 590 805 c 2,0,-1
536 772.5 m 128,-1,16
 532 777 532 777 525 777 c 2,17,-1
 181 777 l 1,18,-1
 540 -57 l 1,19,-1
 540 760 l 2,20,15
 540 768 540 768 536 772.5 c 128,-1,16
151 -107 m 128,-1,22
 156 -112 156 -112 168 -112 c 2,23,-1
 503 -112 l 1,24,-1
 146 716 l 1,25,-1
 146 -92 l 2,26,21
 146 -102 146 -102 151 -107 c 128,-1,22
EndSplineSet
EndChar

StartChar: exclam
Encoding: 33 33 4
Width: 248
GlyphClass: 2
Flags: W
LayerCount: 2
Fore
SplineSet
152 179 m 1,0,-1
 93 179 l 1,1,-1
 71 723 l 1,2,-1
 174 723 l 1,3,-1
 152 179 l 1,0,-1
174 0 m 1,4,-1
 70 0 l 1,5,-1
 70 112 l 1,6,-1
 174 112 l 1,7,-1
 174 0 l 1,4,-1
EndSplineSet
EndChar

StartChar: quotedbl
Encoding: 34 34 5
Width: 411
GlyphClass: 2
Flags: W
LayerCount: 2
Fore
SplineSet
325 496 m 1,0,-1
 275 496 l 1,1,-1
 247 723 l 1,2,-1
 354 723 l 1,3,-1
 325 496 l 1,0,-1
153 496 m 1,4,-1
 103 496 l 1,5,-1
 75 723 l 1,6,-1
 182 723 l 1,7,-1
 153 496 l 1,4,-1
EndSplineSet
EndChar

StartChar: numbersign
Encoding: 35 35 6
Width: 597
GlyphClass: 2
Flags: W
LayerCount: 2
Fore
SplineSet
443 441 m 1,0,-1
 420 290 l 1,1,-1
 527 290 l 1,2,-1
 527 236 l 1,3,-1
 412 236 l 1,4,-1
 376 -2 l 1,5,-1
 322 6 l 1,6,-1
 357 236 l 1,7,-1
 208 236 l 1,8,-1
 172 -2 l 1,9,-1
 118 6 l 1,10,-1
 153 236 l 1,11,-1
 35 236 l 1,12,-1
 35 290 l 1,13,-1
 161 290 l 1,14,-1
 184 441 l 1,15,-1
 67 441 l 1,16,-1
 67 495 l 1,17,-1
 192 495 l 1,18,-1
 227 724 l 1,19,-1
 281 718 l 1,20,-1
 247 495 l 1,21,-1
 396 495 l 1,22,-1
 431 724 l 1,23,-1
 485 718 l 1,24,-1
 451 495 l 1,25,-1
 559 495 l 1,26,-1
 559 441 l 1,27,-1
 443 441 l 1,0,-1
388 441 m 1,28,-1
 239 441 l 1,29,-1
 216 290 l 1,30,-1
 365 290 l 1,31,-1
 388 441 l 1,28,-1
EndSplineSet
EndChar

StartChar: dollar
Encoding: 36 36 7
Width: 600
GlyphClass: 2
Flags: W
LayerCount: 2
Fore
SplineSet
532.5 87 m 128,-1,1
 507 45 507 45 460 20 c 128,-1,2
 413 -5 413 -5 352 -7 c 0,3,4
 345 -8 345 -8 343 -10 c 128,-1,5
 341 -12 341 -12 341 -18 c 2,6,-1
 341 -85 l 1,7,-1
 278 -85 l 1,8,-1
 278 -8 l 1,9,10
 193 -6 193 -6 134 23.5 c 128,-1,11
 75 53 75 53 29 113 c 1,12,-1
 85 163 l 1,13,14
 125 114 125 114 170 89.5 c 128,-1,15
 215 65 215 65 279 62 c 1,16,-1
 279 321 l 1,17,18
 197 349 197 349 149 378.5 c 128,-1,19
 101 408 101 408 80 445 c 128,-1,20
 59 482 59 482 59 532 c 0,21,22
 59 610 59 610 115.5 663 c 128,-1,23
 172 716 172 716 266 728 c 0,24,25
 278 730 278 730 278 739 c 2,26,-1
 278 795 l 1,27,-1
 340 795 l 1,28,-1
 340 730 l 1,29,30
 400 721 400 721 448.5 697 c 128,-1,31
 497 673 497 673 539 635 c 1,32,-1
 486 579 l 1,33,34
 465 607 465 607 428.5 628 c 128,-1,35
 392 649 392 649 350 656 c 1,36,-1
 347 656 l 2,37,38
 340 656 340 656 340 648 c 2,39,-1
 340 395 l 1,40,-1
 389 379 l 1,41,42
 472 346 472 346 515 298 c 128,-1,43
 558 250 558 250 558 181 c 0,44,0
 558 129 558 129 532.5 87 c 128,-1,1
281 659 m 1,45,46
 251 659 251 659 218 645 c 128,-1,47
 185 631 185 631 162.5 603 c 128,-1,48
 140 575 140 575 140 537 c 0,49,50
 140 501 140 501 161.5 476 c 128,-1,51
 183 451 183 451 211 437 c 128,-1,52
 239 423 239 423 278 409 c 1,53,-1
 281 659 l 1,45,46
439.5 95 m 128,-1,55
 477 127 477 127 477 174 c 0,56,57
 477 220 477 220 445 250.5 c 128,-1,58
 413 281 413 281 340 307 c 1,59,-1
 340 62 l 1,60,54
 402 63 402 63 439.5 95 c 128,-1,55
EndSplineSet
EndChar

StartChar: percent
Encoding: 37 37 8
Width: 901
GlyphClass: 2
Flags: W
LayerCount: 2
Fore
SplineSet
311.5 708.5 m 128,-1,1
 350 683 350 683 371.5 636 c 128,-1,2
 393 589 393 589 393 527 c 128,-1,3
 393 465 393 465 371.5 418 c 128,-1,4
 350 371 350 371 312 346 c 128,-1,5
 274 321 274 321 225 321 c 128,-1,6
 176 321 176 321 137.5 346 c 128,-1,7
 99 371 99 371 77 418 c 128,-1,8
 55 465 55 465 55 527 c 128,-1,9
 55 589 55 589 77 636 c 128,-1,10
 99 683 99 683 138 708.5 c 128,-1,11
 177 734 177 734 225 734 c 128,-1,0
 273 734 273 734 311.5 708.5 c 128,-1,1
252 -4 m 1,12,-1
 192 -3 l 1,13,-1
 680 731 l 1,14,-1
 738 731 l 1,15,-1
 252 -4 l 1,12,-1
300 412.5 m 128,-1,17
 327 455 327 455 327 527 c 128,-1,18
 327 599 327 599 299.5 642.5 c 128,-1,19
 272 686 272 686 224 686 c 128,-1,20
 176 686 176 686 148.5 642 c 128,-1,21
 121 598 121 598 121 527 c 128,-1,22
 121 456 121 456 148.5 413 c 128,-1,23
 176 370 176 370 224 370 c 0,24,16
 273 370 273 370 300 412.5 c 128,-1,17
762.5 378.5 m 128,-1,26
 801 353 801 353 822.5 306 c 128,-1,27
 844 259 844 259 844 197 c 0,28,29
 844 134 844 134 822.5 87 c 128,-1,30
 801 40 801 40 762.5 15 c 128,-1,31
 724 -10 724 -10 675 -10 c 128,-1,32
 626 -10 626 -10 587.5 15 c 128,-1,33
 549 40 549 40 527 87 c 128,-1,34
 505 134 505 134 505 197 c 0,35,36
 505 259 505 259 527 306 c 128,-1,37
 549 353 549 353 588 378.5 c 128,-1,38
 627 404 627 404 675 404 c 0,39,25
 724 404 724 404 762.5 378.5 c 128,-1,26
749 83.5 m 128,-1,41
 777 127 777 127 777 196 c 0,42,43
 777 266 777 266 749 310 c 128,-1,44
 721 354 721 354 674 354 c 128,-1,45
 627 354 627 354 599 309.5 c 128,-1,46
 571 265 571 265 571 196 c 128,-1,47
 571 127 571 127 599 83.5 c 128,-1,48
 627 40 627 40 674 40 c 128,-1,40
 721 40 721 40 749 83.5 c 128,-1,41
EndSplineSet
EndChar

StartChar: ampersand
Encoding: 38 38 9
Width: 696
GlyphClass: 2
Flags: W
LayerCount: 2
Fore
SplineSet
401 715 m 128,-1,1
 446 696 446 696 472.5 661 c 128,-1,2
 499 626 499 626 499 580 c 0,3,4
 499 536 499 536 461 485.5 c 128,-1,5
 423 435 423 435 327 384 c 1,6,-1
 491 192 l 1,7,8
 513 223 513 223 533 273 c 128,-1,9
 553 323 553 323 556 387 c 1,10,-1
 640 387 l 1,11,12
 631 316 631 316 604.5 259 c 128,-1,13
 578 202 578 202 534 140 c 1,14,-1
 653 0 l 1,15,-1
 553 0 l 1,16,-1
 482 82 l 1,17,18
 378 -5 378 -5 257 -5 c 0,19,20
 155 -5 155 -5 98 46 c 128,-1,21
 41 97 41 97 41 182 c 0,22,23
 41 251 41 251 82 302.5 c 128,-1,24
 123 354 123 354 211 401 c 1,25,26
 165 450 165 450 143 490.5 c 128,-1,27
 121 531 121 531 121 576 c 0,28,29
 121 620 121 620 144.5 656 c 128,-1,30
 168 692 168 692 209.5 713 c 128,-1,31
 251 734 251 734 304 734 c 0,32,0
 356 734 356 734 401 715 c 128,-1,1
233.5 646.5 m 128,-1,34
 207 620 207 620 207 581 c 0,35,36
 207 547 207 547 227 512 c 128,-1,37
 247 477 247 477 270 452 c 2,38,-1
 288 433 l 1,39,40
 364 477 364 477 392 510 c 128,-1,41
 420 543 420 543 420 579 c 0,42,43
 420 628 420 628 387 651 c 128,-1,44
 354 674 354 674 307 674 c 0,45,33
 260 673 260 673 233.5 646.5 c 128,-1,34
168 277.5 m 128,-1,47
 136 238 136 238 136 191 c 0,48,49
 136 135 136 135 176.5 99.5 c 128,-1,50
 217 64 217 64 275 64 c 0,51,52
 318 64 318 64 362 83 c 128,-1,53
 406 102 406 102 439 135 c 1,54,-1
 255 348 l 1,55,46
 200 317 200 317 168 277.5 c 128,-1,47
EndSplineSet
EndChar

StartChar: quotesingle
Encoding: 39 39 10
Width: 247
GlyphClass: 2
Flags: W
LayerCount: 2
Fore
SplineSet
148 496 m 1,0,-1
 98 496 l 1,1,-1
 70 723 l 1,2,-1
 177 723 l 1,3,-1
 148 496 l 1,0,-1
EndSplineSet
EndChar

StartChar: parenleft
Encoding: 40 40 11
Width: 298
GlyphClass: 2
Flags: W
LayerCount: 2
Fore
SplineSet
187 504.5 m 128,-1,1
 155 390 155 390 155 277 c 0,2,3
 155 167 155 167 182 60.5 c 128,-1,4
 209 -46 209 -46 264 -161 c 1,5,-1
 206 -161 l 1,6,7
 139 -46 139 -46 105 56 c 128,-1,8
 71 158 71 158 71 278 c 0,9,10
 71 397 71 397 109.5 511 c 128,-1,11
 148 625 148 625 214 723 c 1,12,-1
 273 723 l 1,13,0
 219 619 219 619 187 504.5 c 128,-1,1
EndSplineSet
EndChar

StartChar: parenright
Encoding: 41 41 12
Width: 305
GlyphClass: 2
Flags: W
LayerCount: 2
Fore
SplineSet
104 504.5 m 128,-1,1
 136 390 136 390 136 277 c 0,2,3
 136 167 136 167 109 60.5 c 128,-1,4
 82 -46 82 -46 27 -161 c 1,5,-1
 85 -161 l 1,6,7
 152 -46 152 -46 186 56 c 128,-1,8
 220 158 220 158 220 278 c 0,9,10
 220 397 220 397 181.5 511 c 128,-1,11
 143 625 143 625 77 723 c 1,12,-1
 18 723 l 1,13,0
 72 619 72 619 104 504.5 c 128,-1,1
EndSplineSet
EndChar

StartChar: asterisk
Encoding: 42 42 13
Width: 384
GlyphClass: 2
Flags: W
LayerCount: 2
Fore
SplineSet
195 518 m 1,0,-1
 115 390 l 1,1,-1
 63 425 l 1,2,-1
 157 542 l 1,3,-1
 27 579 l 1,4,-1
 47 634 l 1,5,-1
 171 584 l 1,6,-1
 162 723 l 1,7,-1
 227 723 l 1,8,-1
 218 584 l 1,9,-1
 343 638 l 1,10,-1
 361 583 l 1,11,-1
 234 542 l 1,12,-1
 325 430 l 1,13,-1
 273 393 l 1,14,-1
 195 518 l 1,0,-1
EndSplineSet
EndChar

StartChar: plus
Encoding: 43 43 14
Width: 551
GlyphClass: 2
Flags: W
LayerCount: 2
Fore
SplineSet
488 330 m 1,0,-1
 309 330 l 1,1,-1
 309 151 l 1,2,-1
 242 151 l 1,3,-1
 242 329 l 1,4,-1
 61 329 l 1,5,-1
 61 397 l 1,6,-1
 241 397 l 1,7,-1
 241 577 l 1,8,-1
 308 577 l 1,9,-1
 308 397 l 1,10,-1
 488 397 l 1,11,-1
 488 330 l 1,0,-1
EndSplineSet
EndChar

StartChar: comma
Encoding: 44 44 15
Width: 233
GlyphClass: 2
Flags: W
LayerCount: 2
Fore
SplineSet
97 -2 m 1,0,-1
 54 0 l 1,1,-1
 54 107 l 1,2,-1
 166 107 l 1,3,-1
 166 14 l 1,4,-1
 83 -124 l 1,5,-1
 41 -124 l 1,6,-1
 97 -2 l 1,0,-1
EndSplineSet
Substitution2: "'tnum' Tabular Numbers in Latin lookup 23 subtable" comma.tf
Substitution2: "'aalt' Access All Alternates in Latin lookup 0 subtable" comma.tf
EndChar

StartChar: hyphen
Encoding: 45 45 16
Width: 380
GlyphClass: 2
Flags: W
LayerCount: 2
Fore
SplineSet
314 224 m 1,0,-1
 63 224 l 1,1,-1
 63 292 l 1,2,-1
 314 293 l 1,3,-1
 314 224 l 1,0,-1
EndSplineSet
EndChar

StartChar: period
Encoding: 46 46 17
Width: 221
GlyphClass: 2
Flags: W
LayerCount: 2
Fore
SplineSet
161 0 m 1,0,-1
 56 0 l 1,1,-1
 56 113 l 1,2,-1
 161 113 l 1,3,-1
 161 0 l 1,0,-1
EndSplineSet
Substitution2: "'tnum' Tabular Numbers in Latin lookup 23 subtable" period.tf
Substitution2: "'aalt' Access All Alternates in Latin lookup 0 subtable" period.tf
EndChar

StartChar: slash
Encoding: 47 47 18
Width: 344
GlyphClass: 2
Flags: W
LayerCount: 2
Fore
SplineSet
262 723 m 1,0,-1
 330 723 l 1,1,-1
 80 -41 l 1,2,-1
 12 -41 l 1,3,-1
 262 723 l 1,0,-1
EndSplineSet
Substitution2: "'frac' Diagonal Fractions in Latin lookup 16 subtable" fraction
Substitution2: "'aalt' Access All Alternates in Latin lookup 0 subtable" fraction
EndChar

StartChar: zero
Encoding: 48 48 19
Width: 636
GlyphClass: 2
Flags: W
LayerCount: 2
Fore
SplineSet
458 690.5 m 128,-1,1
 519 648 519 648 553.5 564 c 128,-1,2
 588 480 588 480 588 360 c 128,-1,3
 588 240 588 240 553.5 157 c 128,-1,4
 519 74 519 74 458 32.5 c 128,-1,5
 397 -9 397 -9 318 -9 c 128,-1,6
 239 -9 239 -9 178 32.5 c 128,-1,7
 117 74 117 74 82.5 156.5 c 128,-1,8
 48 239 48 239 48 359 c 128,-1,9
 48 479 48 479 83 563.5 c 128,-1,10
 118 648 118 648 179 690.5 c 128,-1,11
 240 733 240 733 319 733 c 0,12,0
 397 733 397 733 458 690.5 c 128,-1,1
447.5 137 m 128,-1,14
 493 209 493 209 493 360 c 0,15,16
 493 513 493 513 446.5 586.5 c 128,-1,17
 400 660 400 660 318 660 c 128,-1,18
 236 660 236 660 189.5 586 c 128,-1,19
 143 512 143 512 143 360 c 0,20,21
 143 210 143 210 190 137.5 c 128,-1,22
 237 65 237 65 319 65 c 0,23,13
 402 65 402 65 447.5 137 c 128,-1,14
EndSplineSet
Substitution2: "'onum' Oldstyle Figures in Latin lookup 24 subtable" zero.osf
Substitution2: "'tnum' Tabular Numbers in Latin lookup 23 subtable" zero.tf
Substitution2: "'frac' Diagonal Fractions in Latin lookup 17 subtable" zero.numr
Substitution2: "'dnom' Denominators in Latin lookup 15 subtable" zero.dnom
Substitution2: "'numr' Numerators in Latin lookup 14 subtable" zero.numr
Substitution2: "'sups' Superscript in Latin lookup 13 subtable" uni2070
Substitution2: "'sinf' Scientific Inferiors in Latin lookup 12 subtable" zero.subs
Substitution2: "'subs' Subscript in Latin lookup 11 subtable" zero.subs
AlternateSubs2: "'aalt' Access All Alternates in Latin lookup 1 subtable" zero.subs uni2070 zero.numr zero.dnom zero.tf zero.osf
EndChar

StartChar: one
Encoding: 49 49 20
Width: 382
GlyphClass: 2
Flags: W
LayerCount: 2
Fore
SplineSet
176 622 m 1,0,-1
 35 572 l 1,1,-1
 35 638 l 1,2,-1
 207 723 l 1,3,-1
 265 723 l 1,4,-1
 265 0 l 1,5,-1
 176 0 l 1,6,-1
 176 622 l 1,0,-1
EndSplineSet
Substitution2: "'onum' Oldstyle Figures in Latin lookup 24 subtable" one.osf
Substitution2: "'tnum' Tabular Numbers in Latin lookup 23 subtable" one.tf
Substitution2: "'frac' Diagonal Fractions in Latin lookup 17 subtable" one.numr
Substitution2: "'dnom' Denominators in Latin lookup 15 subtable" one.dnom
Substitution2: "'numr' Numerators in Latin lookup 14 subtable" one.numr
Substitution2: "'sups' Superscript in Latin lookup 13 subtable" uni00B9
Substitution2: "'sinf' Scientific Inferiors in Latin lookup 12 subtable" one.subs
Substitution2: "'subs' Subscript in Latin lookup 11 subtable" one.subs
AlternateSubs2: "'aalt' Access All Alternates in Latin lookup 1 subtable" one.subs uni00B9 one.numr one.dnom one.tf one.osf
EndChar

StartChar: two
Encoding: 50 50 21
Width: 576
GlyphClass: 2
Flags: W
LayerCount: 2
Fore
SplineSet
43 76 m 1,0,-1
 277 303 l 2,1,2
 335 359 335 359 366.5 395 c 128,-1,3
 398 431 398 431 412.5 462.5 c 128,-1,4
 427 494 427 494 427 529 c 0,5,6
 427 593 427 593 384 625 c 128,-1,7
 341 657 341 657 284 657 c 0,8,9
 231 657 231 657 186 632 c 128,-1,10
 141 607 141 607 116 554 c 1,11,-1
 39 574 l 1,12,13
 68 651 68 651 131.5 692 c 128,-1,14
 195 733 195 733 288 733 c 0,15,16
 354 733 354 733 406 709 c 128,-1,17
 458 685 458 685 487.5 639.5 c 128,-1,18
 517 594 517 594 517 531 c 0,19,20
 517 488 517 488 502 451.5 c 128,-1,21
 487 415 487 415 455 375 c 128,-1,22
 423 335 423 335 364 276 c 2,23,-1
 163 77 l 1,24,-1
 525 77 l 1,25,-1
 525 0 l 1,26,-1
 43 0 l 1,27,-1
 43 76 l 1,0,-1
EndSplineSet
Substitution2: "'onum' Oldstyle Figures in Latin lookup 24 subtable" two.osf
Substitution2: "'tnum' Tabular Numbers in Latin lookup 23 subtable" two.tf
Substitution2: "'frac' Diagonal Fractions in Latin lookup 17 subtable" two.numr
Substitution2: "'dnom' Denominators in Latin lookup 15 subtable" two.dnom
Substitution2: "'numr' Numerators in Latin lookup 14 subtable" two.numr
Substitution2: "'sups' Superscript in Latin lookup 13 subtable" uni00B2
Substitution2: "'sinf' Scientific Inferiors in Latin lookup 12 subtable" two.subs
Substitution2: "'subs' Subscript in Latin lookup 11 subtable" two.subs
AlternateSubs2: "'aalt' Access All Alternates in Latin lookup 1 subtable" two.subs uni00B2 two.numr two.dnom two.tf two.osf
EndChar

StartChar: three
Encoding: 51 51 22
Width: 632
GlyphClass: 2
Flags: W
LayerCount: 2
Fore
SplineSet
156 698 m 128,-1,1
 225 733 225 733 313 733 c 0,2,3
 384 733 384 733 440.5 709 c 128,-1,4
 497 685 497 685 528.5 643.5 c 128,-1,5
 560 602 560 602 560 550 c 0,6,7
 560 434 560 434 420 385 c 1,8,9
 495 365 495 365 538.5 317 c 128,-1,10
 582 269 582 269 582 200 c 0,11,12
 582 140 582 140 546.5 92 c 128,-1,13
 511 44 511 44 447.5 17 c 128,-1,14
 384 -10 384 -10 304 -10 c 0,15,16
 206 -10 206 -10 141.5 22.5 c 128,-1,17
 77 55 77 55 42 133 c 1,18,-1
 120 153 l 1,19,20
 180 64 180 64 302 64 c 0,21,22
 387 64 387 64 436.5 101.5 c 128,-1,23
 486 139 486 139 486 198 c 0,24,25
 486 242 486 242 461 274 c 128,-1,26
 436 306 436 306 394.5 323 c 128,-1,27
 353 340 353 340 306 340 c 2,28,-1
 208 341 l 1,29,-1
 208 413 l 1,30,-1
 290 415 l 2,31,32
 339 415 339 415 379.5 432.5 c 128,-1,33
 420 450 420 450 443.5 479.5 c 128,-1,34
 467 509 467 509 467 545 c 0,35,36
 467 577 467 577 446.5 604 c 128,-1,37
 426 631 426 631 390.5 646 c 128,-1,38
 355 661 355 661 312 661 c 0,39,40
 189 661 189 661 140 572 c 1,41,-1
 64 592 l 1,42,0
 87 663 87 663 156 698 c 128,-1,1
EndSplineSet
Substitution2: "'onum' Oldstyle Figures in Latin lookup 24 subtable" three.osf
Substitution2: "'tnum' Tabular Numbers in Latin lookup 23 subtable" three.tf
Substitution2: "'frac' Diagonal Fractions in Latin lookup 17 subtable" three.numr
Substitution2: "'dnom' Denominators in Latin lookup 15 subtable" three.dnom
Substitution2: "'numr' Numerators in Latin lookup 14 subtable" three.numr
Substitution2: "'sups' Superscript in Latin lookup 13 subtable" uni00B3
Substitution2: "'sinf' Scientific Inferiors in Latin lookup 12 subtable" three.subs
Substitution2: "'subs' Subscript in Latin lookup 11 subtable" three.subs
AlternateSubs2: "'aalt' Access All Alternates in Latin lookup 1 subtable" three.subs uni00B3 three.numr three.dnom three.tf three.osf
EndChar

StartChar: four
Encoding: 52 52 23
Width: 619
GlyphClass: 2
Flags: W
LayerCount: 2
Fore
SplineSet
468 723 m 1,0,-1
 468 266 l 1,1,-1
 581 266 l 1,2,-1
 581 188 l 1,3,-1
 468 188 l 1,4,-1
 468 0 l 1,5,-1
 382 0 l 1,6,-1
 383 188 l 1,7,-1
 44 188 l 1,8,-1
 44 269 l 1,9,-1
 380 723 l 1,10,-1
 468 723 l 1,0,-1
380 266 m 1,11,-1
 380 597 l 1,12,-1
 134 266 l 1,13,-1
 380 266 l 1,11,-1
EndSplineSet
Substitution2: "'onum' Oldstyle Figures in Latin lookup 24 subtable" four.osf
Substitution2: "'tnum' Tabular Numbers in Latin lookup 23 subtable" four.tf
Substitution2: "'frac' Diagonal Fractions in Latin lookup 17 subtable" four.numr
Substitution2: "'dnom' Denominators in Latin lookup 15 subtable" four.dnom
Substitution2: "'numr' Numerators in Latin lookup 14 subtable" four.numr
Substitution2: "'sups' Superscript in Latin lookup 13 subtable" uni2074
Substitution2: "'sinf' Scientific Inferiors in Latin lookup 12 subtable" four.subs
Substitution2: "'subs' Subscript in Latin lookup 11 subtable" four.subs
AlternateSubs2: "'aalt' Access All Alternates in Latin lookup 1 subtable" four.subs uni2074 four.numr four.dnom four.tf four.osf
EndChar

StartChar: five
Encoding: 53 53 24
Width: 645
GlyphClass: 2
Flags: W
LayerCount: 2
Fore
SplineSet
552 723 m 1,0,-1
 546 648 l 1,1,-1
 192 648 l 1,2,-1
 173 407 l 1,3,4
 223 433 223 433 260 445.5 c 128,-1,5
 297 458 297 458 347 458 c 0,6,7
 414 458 414 458 469 434 c 128,-1,8
 524 410 524 410 556.5 360 c 128,-1,9
 589 310 589 310 589 237 c 0,10,11
 589 161 589 161 553.5 105 c 128,-1,12
 518 49 518 49 455.5 19.5 c 128,-1,13
 393 -10 393 -10 312 -10 c 0,14,15
 233 -10 233 -10 164 19.5 c 128,-1,16
 95 49 95 49 49 104 c 1,17,-1
 112 155 l 1,18,19
 160 107 160 107 200 85 c 128,-1,20
 240 63 240 63 300 63 c 0,21,22
 391 63 391 63 443 110.5 c 128,-1,23
 495 158 495 158 495 234 c 0,24,25
 495 307 495 307 448.5 345.5 c 128,-1,26
 402 384 402 384 330 384 c 0,27,28
 285 384 285 384 248 369.5 c 128,-1,29
 211 355 211 355 165 328 c 0,30,31
 159 325 159 325 156 325 c 0,32,33
 154 325 154 325 152 326.5 c 128,-1,34
 150 328 150 328 147 329 c 2,35,-1
 88 363 l 1,36,-1
 118 723 l 1,37,-1
 552 723 l 1,0,-1
EndSplineSet
Substitution2: "'onum' Oldstyle Figures in Latin lookup 24 subtable" five.osf
Substitution2: "'tnum' Tabular Numbers in Latin lookup 23 subtable" five.tf
Substitution2: "'frac' Diagonal Fractions in Latin lookup 17 subtable" five.numr
Substitution2: "'dnom' Denominators in Latin lookup 15 subtable" five.dnom
Substitution2: "'numr' Numerators in Latin lookup 14 subtable" five.numr
Substitution2: "'sups' Superscript in Latin lookup 13 subtable" uni2075
Substitution2: "'sinf' Scientific Inferiors in Latin lookup 12 subtable" five.subs
Substitution2: "'subs' Subscript in Latin lookup 11 subtable" five.subs
AlternateSubs2: "'aalt' Access All Alternates in Latin lookup 1 subtable" five.subs uni2075 five.numr five.dnom five.tf five.osf
EndChar

StartChar: six
Encoding: 54 54 25
Width: 613
GlyphClass: 2
Flags: W
LayerCount: 2
Fore
SplineSet
479 699.5 m 128,-1,1
 537 660 537 660 556 597 c 1,2,-1
 484 575 l 1,3,4
 457 620 457 620 425 643 c 128,-1,5
 393 666 393 666 337 666 c 0,6,7
 245 666 245 666 194 587 c 128,-1,8
 143 508 143 508 143 360 c 0,9,10
 143 331 143 331 144 316 c 1,11,12
 163 372 163 372 216 405 c 128,-1,13
 269 438 269 438 335 438 c 0,14,15
 407 438 407 438 459 409.5 c 128,-1,16
 511 381 511 381 538 331.5 c 128,-1,17
 565 282 565 282 565 221 c 0,18,19
 565 154 565 154 533 103 c 128,-1,20
 501 52 501 52 444.5 24.5 c 128,-1,21
 388 -3 388 -3 318 -3 c 0,22,23
 234 -3 234 -3 173 39.5 c 128,-1,24
 112 82 112 82 79.5 163 c 128,-1,25
 47 244 47 244 47 357 c 0,26,27
 47 475 47 475 81.5 561 c 128,-1,28
 116 647 116 647 181 693 c 128,-1,29
 246 739 246 739 336 739 c 0,30,0
 421 739 421 739 479 699.5 c 128,-1,1
241 352 m 128,-1,32
 203 336 203 336 180 306 c 128,-1,33
 157 276 157 276 157 238 c 1,34,35
 170 153 170 153 211 110.5 c 128,-1,36
 252 68 252 68 317 68 c 0,37,38
 384 68 384 68 428.5 110 c 128,-1,39
 473 152 473 152 473 217 c 0,40,41
 473 259 473 259 454.5 293.5 c 128,-1,42
 436 328 436 328 402 348 c 128,-1,43
 368 368 368 368 323 368 c 0,44,31
 279 368 279 368 241 352 c 128,-1,32
EndSplineSet
Substitution2: "'onum' Oldstyle Figures in Latin lookup 24 subtable" six.osf
Substitution2: "'tnum' Tabular Numbers in Latin lookup 23 subtable" six.tf
Substitution2: "'frac' Diagonal Fractions in Latin lookup 17 subtable" six.numr
Substitution2: "'dnom' Denominators in Latin lookup 15 subtable" six.dnom
Substitution2: "'numr' Numerators in Latin lookup 14 subtable" six.numr
Substitution2: "'sups' Superscript in Latin lookup 13 subtable" uni2076
Substitution2: "'sinf' Scientific Inferiors in Latin lookup 12 subtable" six.subs
Substitution2: "'subs' Subscript in Latin lookup 11 subtable" six.subs
AlternateSubs2: "'aalt' Access All Alternates in Latin lookup 1 subtable" six.subs uni2076 six.numr six.dnom six.tf six.osf
EndChar

StartChar: seven
Encoding: 55 55 26
Width: 573
GlyphClass: 2
Flags: W
LayerCount: 2
Fore
SplineSet
540 723 m 1,0,-1
 540 635 l 1,1,2
 477 548 477 548 415.5 427 c 128,-1,3
 354 306 354 306 312 190 c 128,-1,4
 270 74 270 74 261 0 c 1,5,-1
 165 0 l 1,6,7
 178 76 178 76 213.5 183.5 c 128,-1,8
 249 291 249 291 309 414 c 128,-1,9
 369 537 369 537 449 648 c 1,10,-1
 35 648 l 1,11,-1
 35 723 l 1,12,-1
 540 723 l 1,0,-1
EndSplineSet
Substitution2: "'onum' Oldstyle Figures in Latin lookup 24 subtable" seven.osf
Substitution2: "'tnum' Tabular Numbers in Latin lookup 23 subtable" seven.tf
Substitution2: "'frac' Diagonal Fractions in Latin lookup 17 subtable" seven.numr
Substitution2: "'dnom' Denominators in Latin lookup 15 subtable" seven.dnom
Substitution2: "'numr' Numerators in Latin lookup 14 subtable" seven.numr
Substitution2: "'sups' Superscript in Latin lookup 13 subtable" uni2077
Substitution2: "'sinf' Scientific Inferiors in Latin lookup 12 subtable" seven.subs
Substitution2: "'subs' Subscript in Latin lookup 11 subtable" seven.subs
AlternateSubs2: "'aalt' Access All Alternates in Latin lookup 1 subtable" seven.subs uni2077 seven.numr seven.dnom seven.tf seven.osf
EndChar

StartChar: eight
Encoding: 56 56 27
Width: 621
GlyphClass: 2
Flags: W
LayerCount: 2
Fore
SplineSet
433 708 m 128,-1,1
 487 683 487 683 517 637.5 c 128,-1,2
 547 592 547 592 547 534 c 0,3,4
 547 467 547 467 509.5 428.5 c 128,-1,5
 472 390 472 390 435 371 c 1,6,7
 441 369 441 369 480.5 352.5 c 128,-1,8
 520 336 520 336 549.5 294 c 128,-1,9
 579 252 579 252 579 192 c 0,10,11
 579 131 579 131 545 85 c 128,-1,12
 511 39 511 39 449.5 14.5 c 128,-1,13
 388 -10 388 -10 306 -10 c 0,14,15
 184 -10 184 -10 113 40 c 128,-1,16
 42 90 42 90 42 179 c 0,17,18
 42 232 42 232 75 280 c 128,-1,19
 108 328 108 328 177 360 c 1,20,21
 138 377 138 377 99.5 413 c 128,-1,22
 61 449 61 449 61 523 c 0,23,24
 61 582 61 582 92.5 630 c 128,-1,25
 124 678 124 678 180.5 705.5 c 128,-1,26
 237 733 237 733 309 733 c 0,27,0
 379 733 379 733 433 708 c 128,-1,1
230.5 645 m 128,-1,29
 195 628 195 628 174.5 598 c 128,-1,30
 154 568 154 568 154 531 c 0,31,32
 154 445 154 445 253 422 c 2,33,-1
 352 398 l 2,34,35
 371 394 371 394 397.5 414 c 128,-1,36
 424 434 424 434 443.5 467.5 c 128,-1,37
 463 501 463 501 463 535 c 0,38,39
 463 592 463 592 421.5 627 c 128,-1,40
 380 662 380 662 310 662 c 0,41,28
 266 662 266 662 230.5 645 c 128,-1,29
437.5 95.5 m 128,-1,43
 485 130 485 130 485 188 c 0,44,45
 485 233 485 233 460.5 260.5 c 128,-1,46
 436 288 436 288 382 301 c 2,47,-1
 258 332 l 2,48,49
 255 333 255 333 249 333 c 0,50,51
 227 333 227 333 198 313.5 c 128,-1,52
 169 294 169 294 148.5 261.5 c 128,-1,53
 128 229 128 229 128 191 c 0,54,55
 128 130 128 130 175 95.5 c 128,-1,56
 222 61 222 61 310 61 c 0,57,42
 390 61 390 61 437.5 95.5 c 128,-1,43
EndSplineSet
Substitution2: "'onum' Oldstyle Figures in Latin lookup 24 subtable" eight.osf
Substitution2: "'tnum' Tabular Numbers in Latin lookup 23 subtable" eight.tf
Substitution2: "'frac' Diagonal Fractions in Latin lookup 17 subtable" eight.numr
Substitution2: "'dnom' Denominators in Latin lookup 15 subtable" eight.dnom
Substitution2: "'numr' Numerators in Latin lookup 14 subtable" eight.numr
Substitution2: "'sups' Superscript in Latin lookup 13 subtable" uni2078
Substitution2: "'sinf' Scientific Inferiors in Latin lookup 12 subtable" eight.subs
Substitution2: "'subs' Subscript in Latin lookup 11 subtable" eight.subs
AlternateSubs2: "'aalt' Access All Alternates in Latin lookup 1 subtable" eight.subs uni2078 eight.numr eight.dnom eight.tf eight.osf
EndChar

StartChar: nine
Encoding: 57 57 28
Width: 613
GlyphClass: 2
Flags: W
LayerCount: 2
Fore
SplineSet
130.5 30.5 m 128,-1,1
 72 70 72 70 53 133 c 1,2,-1
 127 154 l 1,3,4
 153 110 153 110 184.5 86.5 c 128,-1,5
 216 63 216 63 271 63 c 0,6,7
 367 63 367 63 420.5 141.5 c 128,-1,8
 474 220 474 220 474 377 c 0,9,10
 474 402 474 402 473 416 c 1,11,12
 454 357 454 357 401.5 322.5 c 128,-1,13
 349 288 349 288 279 288 c 0,14,15
 207 288 207 288 154 317 c 128,-1,16
 101 346 101 346 73 396 c 128,-1,17
 45 446 45 446 45 509 c 0,18,19
 45 576 45 576 77 626.5 c 128,-1,20
 109 677 109 677 165.5 704.5 c 128,-1,21
 222 732 222 732 293 732 c 0,22,23
 377 732 377 732 438 689.5 c 128,-1,24
 499 647 499 647 531.5 566.5 c 128,-1,25
 564 486 564 486 564 373 c 0,26,27
 564 189 564 189 488 90 c 128,-1,28
 412 -9 412 -9 274 -9 c 0,29,0
 189 -9 189 -9 130.5 30.5 c 128,-1,1
369.5 379 m 128,-1,31
 408 396 408 396 431 426 c 128,-1,32
 454 456 454 456 454 492 c 1,33,34
 440 576 440 576 399 619 c 128,-1,35
 358 662 358 662 293 662 c 0,36,37
 226 662 226 662 182.5 620 c 128,-1,38
 139 578 139 578 139 513 c 0,39,40
 139 472 139 472 157 437.5 c 128,-1,41
 175 403 175 403 208.5 382.5 c 128,-1,42
 242 362 242 362 287 362 c 0,43,30
 331 362 331 362 369.5 379 c 128,-1,31
EndSplineSet
Substitution2: "'onum' Oldstyle Figures in Latin lookup 24 subtable" nine.osf
Substitution2: "'tnum' Tabular Numbers in Latin lookup 23 subtable" nine.tf
Substitution2: "'frac' Diagonal Fractions in Latin lookup 17 subtable" nine.numr
Substitution2: "'dnom' Denominators in Latin lookup 15 subtable" nine.dnom
Substitution2: "'numr' Numerators in Latin lookup 14 subtable" nine.numr
Substitution2: "'sups' Superscript in Latin lookup 13 subtable" uni2079
Substitution2: "'sinf' Scientific Inferiors in Latin lookup 12 subtable" nine.subs
Substitution2: "'subs' Subscript in Latin lookup 11 subtable" nine.subs
AlternateSubs2: "'aalt' Access All Alternates in Latin lookup 1 subtable" nine.subs uni2079 nine.numr nine.dnom nine.tf nine.osf
EndChar

StartChar: colon
Encoding: 58 58 29
Width: 221
GlyphClass: 2
Flags: W
LayerCount: 2
Fore
SplineSet
161 383 m 1,0,-1
 56 383 l 1,1,-1
 56 495 l 1,2,-1
 161 495 l 1,3,-1
 161 383 l 1,0,-1
161 3 m 1,4,-1
 56 3 l 1,5,-1
 56 115 l 1,6,-1
 161 115 l 1,7,-1
 161 3 l 1,4,-1
EndSplineSet
EndChar

StartChar: semicolon
Encoding: 59 59 30
Width: 243
GlyphClass: 2
Flags: W
LayerCount: 2
Fore
SplineSet
58 494 m 1,0,-1
 162 494 l 1,1,-1
 162 381 l 1,2,-1
 58 381 l 1,3,-1
 58 494 l 1,0,-1
102 0 m 1,4,-1
 61 0 l 1,5,-1
 61 112 l 1,6,-1
 166 112 l 1,7,-1
 166 13 l 1,8,-1
 84 -141 l 1,9,-1
 46 -141 l 1,10,-1
 102 0 l 1,4,-1
EndSplineSet
EndChar

StartChar: less
Encoding: 60 60 31
Width: 546
GlyphClass: 2
Flags: W
LayerCount: 2
Fore
SplineSet
473 143 m 1,0,-1
 56 306 l 1,1,-1
 56 386 l 1,2,-1
 474 552 l 1,3,-1
 474 469 l 1,4,-1
 160 346 l 1,5,-1
 473 224 l 1,6,-1
 473 143 l 1,0,-1
EndSplineSet
EndChar

StartChar: equal
Encoding: 61 61 32
Width: 551
GlyphClass: 2
Flags: W
LayerCount: 2
Fore
SplineSet
488 427 m 1,0,-1
 61 426 l 1,1,-1
 61 493 l 1,2,-1
 488 494 l 1,3,-1
 488 427 l 1,0,-1
488 206 m 1,4,-1
 61 205 l 1,5,-1
 61 272 l 1,6,-1
 488 273 l 1,7,-1
 488 206 l 1,4,-1
EndSplineSet
EndChar

StartChar: greater
Encoding: 62 62 33
Width: 546
GlyphClass: 2
Flags: W
LayerCount: 2
Fore
SplineSet
383 346 m 1,0,-1
 69 469 l 1,1,-1
 69 552 l 1,2,-1
 486 386 l 1,3,-1
 486 306 l 1,4,-1
 70 143 l 1,5,-1
 70 224 l 1,6,-1
 383 346 l 1,0,-1
EndSplineSet
EndChar

StartChar: question
Encoding: 63 63 34
Width: 518
GlyphClass: 2
Flags: W
LayerCount: 2
Fore
SplineSet
119.5 695.5 m 128,-1,1
 182 733 182 733 261 733 c 0,2,3
 326 733 326 733 376 711 c 128,-1,4
 426 689 426 689 453 649.5 c 128,-1,5
 480 610 480 610 480 559 c 0,6,7
 480 519 480 519 466.5 486.5 c 128,-1,8
 453 454 453 454 433.5 429.5 c 128,-1,9
 414 405 414 405 380 369 c 0,10,11
 347 334 347 334 327 309.5 c 128,-1,12
 307 285 307 285 293.5 252.5 c 128,-1,13
 280 220 280 220 280 181 c 1,14,-1
 206 181 l 1,15,16
 206 229 206 229 220.5 267.5 c 128,-1,17
 235 306 235 306 255.5 334.5 c 128,-1,18
 276 363 276 363 310 401 c 0,19,20
 352 448 352 448 372 481 c 128,-1,21
 392 514 392 514 392 556 c 0,22,23
 392 607 392 607 356 636.5 c 128,-1,24
 320 666 320 666 260 666 c 0,25,26
 210 666 210 666 164 637.5 c 128,-1,27
 118 609 118 609 102 567 c 1,28,-1
 25 591 l 1,29,0
 57 658 57 658 119.5 695.5 c 128,-1,1
295 0 m 1,30,-1
 192 0 l 1,31,-1
 192 112 l 1,32,-1
 295 112 l 1,33,-1
 295 0 l 1,30,-1
EndSplineSet
EndChar

StartChar: at
Encoding: 64 64 35
Width: 820
GlyphClass: 2
Flags: W
LayerCount: 2
Fore
SplineSet
551 -90 m 128,-1,1
 492 -110 492 -110 425 -110 c 0,2,3
 310 -110 310 -110 224.5 -61.5 c 128,-1,4
 139 -13 139 -13 93.5 70 c 128,-1,5
 48 153 48 153 48 254 c 0,6,7
 48 360 48 360 97.5 449 c 128,-1,8
 147 538 147 538 236.5 591 c 128,-1,9
 326 644 326 644 440 644 c 0,10,11
 530 644 530 644 608.5 610 c 128,-1,12
 687 576 687 576 736 505.5 c 128,-1,13
 785 435 785 435 785 331 c 0,14,15
 785 258 785 258 760.5 200.5 c 128,-1,16
 736 143 736 143 693 111 c 128,-1,17
 650 79 650 79 596 79 c 0,18,19
 523 79 523 79 508 131 c 0,20,21
 505 137 505 137 503 137 c 0,22,23
 502 137 502 137 497 132 c 0,24,25
 446 65 446 65 362 65 c 0,26,27
 324 65 324 65 292.5 86.5 c 128,-1,28
 261 108 261 108 242 147 c 128,-1,29
 223 186 223 186 223 237 c 0,30,31
 223 299 223 299 247 350.5 c 128,-1,32
 271 402 271 402 314.5 432.5 c 128,-1,33
 358 463 358 463 412 463 c 0,34,35
 486 463 486 463 525 402 c 0,36,37
 527 400 527 400 529 400.5 c 128,-1,38
 531 401 531 401 532 405 c 2,39,-1
 540 438 l 1,40,-1
 600 438 l 1,41,-1
 563 215 l 2,42,43
 560 197 560 197 560 184 c 0,44,45
 560 160 560 160 570.5 149.5 c 128,-1,46
 581 139 581 139 601 139 c 0,47,48
 633 139 633 139 660 161.5 c 128,-1,49
 687 184 687 184 703 226.5 c 128,-1,50
 719 269 719 269 719 325 c 0,51,52
 719 415 719 415 679 473.5 c 128,-1,53
 639 532 639 532 575.5 559 c 128,-1,54
 512 586 512 586 440 586 c 0,55,56
 338 586 338 586 264.5 541.5 c 128,-1,57
 191 497 191 497 152.5 421 c 128,-1,58
 114 345 114 345 114 254 c 0,59,60
 114 166 114 166 152 96.5 c 128,-1,61
 190 27 190 27 263 -13 c 128,-1,62
 336 -53 336 -53 439 -53 c 0,63,64
 481 -53 481 -53 512.5 -45 c 128,-1,65
 544 -37 544 -37 566 -25 c 128,-1,66
 588 -13 588 -13 622 10 c 1,67,-1
 656 -35 l 1,68,0
 610 -70 610 -70 551 -90 c 128,-1,1
317 159 m 128,-1,70
 338 128 338 128 376 128 c 0,71,72
 411 128 411 128 441 151 c 128,-1,73
 471 174 471 174 488.5 211.5 c 128,-1,74
 506 249 506 249 506 291 c 0,75,76
 506 343 506 343 480 372 c 128,-1,77
 454 401 454 401 417 401 c 0,78,79
 364 401 364 401 330 355 c 128,-1,80
 296 309 296 309 296 242 c 0,81,69
 296 190 296 190 317 159 c 128,-1,70
EndSplineSet
EndChar

StartChar: A
Encoding: 65 65 36
Width: 696
GlyphClass: 2
Flags: W
AnchorPoint: "Anchor-5" 0 0 basechar 0
AnchorPoint: "Anchor-4" 0 0 basechar 0
AnchorPoint: "Anchor-3" 353 723 basechar 0
AnchorPoint: "Anchor-2" 653 10 basechar 0
LayerCount: 2
Fore
SplineSet
299 723 m 1,0,-1
 398 723 l 1,1,-1
 659 0 l 1,2,-1
 572 0 l 1,3,-1
 499 202 l 1,4,-1
 199 202 l 1,5,-1
 125 0 l 1,6,-1
 37 0 l 1,7,-1
 299 723 l 1,0,-1
475 282 m 1,8,-1
 349 638 l 1,9,-1
 221 282 l 1,10,-1
 475 282 l 1,8,-1
EndSplineSet
Substitution2: "Single Substitution lookup 30 subtable" ordfeminine
Substitution2: "'aalt' Access All Alternates in Latin lookup 0 subtable" ordfeminine
EndChar

StartChar: B
Encoding: 66 66 37
Width: 666
GlyphClass: 2
Flags: W
LayerCount: 2
Fore
SplineSet
95 723 m 1,0,-1
 324 723 l 2,1,2
 454 723 454 723 522 674.5 c 128,-1,3
 590 626 590 626 590 535 c 0,4,5
 590 475 590 475 558.5 434.5 c 128,-1,6
 527 394 527 394 455 369 c 1,7,8
 608 337 608 337 608 194 c 0,9,10
 608 0 608 0 331 0 c 2,11,-1
 95 0 l 1,12,-1
 95 723 l 1,0,-1
341 403 m 2,13,14
 410 403 410 403 458.5 431 c 128,-1,15
 507 459 507 459 507 524 c 0,16,17
 507 587 507 587 458.5 619 c 128,-1,18
 410 651 410 651 327 651 c 2,19,-1
 181 651 l 1,20,-1
 181 403 l 1,21,-1
 341 403 l 2,13,14
329 73 m 2,22,23
 521 73 521 73 521 197 c 0,24,25
 521 264 521 264 471 296.5 c 128,-1,26
 421 329 421 329 341 329 c 2,27,-1
 181 329 l 1,28,-1
 181 73 l 1,29,-1
 329 73 l 2,22,23
EndSplineSet
EndChar

StartChar: C
Encoding: 67 67 38
Width: 681
GlyphClass: 2
Flags: W
AnchorPoint: "Anchor-5" 0 0 basechar 0
AnchorPoint: "Anchor-4" 360 0 basechar 0
AnchorPoint: "Anchor-3" 360 723 basechar 0
AnchorPoint: "Anchor-2" 0 0 basechar 0
LayerCount: 2
Fore
SplineSet
489 704 m 128,-1,1
 549 675 549 675 585 625.5 c 128,-1,2
 621 576 621 576 628 516 c 1,3,-1
 537 511 l 1,4,5
 524 578 524 578 477.5 618 c 128,-1,6
 431 658 431 658 353 658 c 0,7,8
 252 658 252 658 200 584 c 128,-1,9
 148 510 148 510 148 362 c 0,10,11
 148 215 148 215 201 140.5 c 128,-1,12
 254 66 254 66 359 66 c 0,13,14
 426 66 426 66 473.5 105 c 128,-1,15
 521 144 521 144 535 210 c 1,16,-1
 625 202 l 1,17,18
 618 143 618 143 584 94.5 c 128,-1,19
 550 46 550 46 492 18 c 128,-1,20
 434 -10 434 -10 360 -10 c 0,21,22
 263 -10 263 -10 194 35 c 128,-1,23
 125 80 125 80 89 164 c 128,-1,24
 53 248 53 248 53 363 c 128,-1,25
 53 478 53 478 88.5 561.5 c 128,-1,26
 124 645 124 645 191.5 689 c 128,-1,27
 259 733 259 733 354 733 c 0,28,0
 429 733 429 733 489 704 c 128,-1,1
EndSplineSet
EndChar

StartChar: D
Encoding: 68 68 39
Width: 685
GlyphClass: 2
Flags: W
AnchorPoint: "Anchor-5" 0 0 basechar 0
AnchorPoint: "Anchor-4" 0 0 basechar 0
AnchorPoint: "Anchor-3" 337 723 basechar 0
AnchorPoint: "Anchor-2" 0 0 basechar 0
LayerCount: 2
Fore
SplineSet
257 722 m 0,0,1
 453 720 453 720 543 631 c 128,-1,2
 633 542 633 542 633 366 c 0,3,4
 633 183 633 183 538 91.5 c 128,-1,5
 443 0 443 0 247 0 c 2,6,-1
 95 0 l 1,7,-1
 95 723 l 1,8,9
 196 723 196 723 257 722 c 0,0,1
184 75 m 1,10,-1
 247 75 l 2,11,12
 393 75 393 75 468 143 c 128,-1,13
 543 211 543 211 543 364 c 0,14,15
 543 518 543 518 469.5 583 c 128,-1,16
 396 648 396 648 251 648 c 2,17,-1
 184 648 l 1,18,-1
 184 75 l 1,10,-1
EndSplineSet
EndChar

StartChar: E
Encoding: 69 69 40
Width: 621
GlyphClass: 2
Flags: W
AnchorPoint: "Anchor-5" 0 0 basechar 0
AnchorPoint: "Anchor-4" 343 0 basechar 0
AnchorPoint: "Anchor-3" 331 723 basechar 0
AnchorPoint: "Anchor-2" 549 10 basechar 0
LayerCount: 2
Fore
SplineSet
95 723 m 1,0,-1
 546 723 l 1,1,-1
 546 647 l 1,2,-1
 181 647 l 1,3,-1
 181 403 l 1,4,-1
 511 403 l 1,5,-1
 511 327 l 1,6,-1
 181 327 l 1,7,-1
 181 78 l 1,8,-1
 556 77 l 1,9,-1
 556 0 l 1,10,-1
 95 0 l 1,11,-1
 95 723 l 1,0,-1
EndSplineSet
EndChar

StartChar: F
Encoding: 70 70 41
Width: 580
GlyphClass: 2
Flags: W
LayerCount: 2
Fore
SplineSet
540 723 m 1,0,-1
 540 647 l 1,1,-1
 184 647 l 1,2,-1
 184 401 l 1,3,-1
 505 401 l 1,4,-1
 505 326 l 1,5,-1
 184 326 l 1,6,-1
 184 0 l 1,7,-1
 95 0 l 1,8,-1
 95 723 l 1,9,-1
 540 723 l 1,0,-1
EndSplineSet
EndChar

StartChar: G
Encoding: 71 71 42
Width: 725
GlyphClass: 2
Flags: W
AnchorPoint: "Anchor-5" 0 0 basechar 0
AnchorPoint: "Anchor-4" 362 0 basechar 0
AnchorPoint: "Anchor-3" 358 723 basechar 0
AnchorPoint: "Anchor-2" 0 0 basechar 0
LayerCount: 2
Fore
SplineSet
195.5 34.5 m 128,-1,1
 127 79 127 79 90 162.5 c 128,-1,2
 53 246 53 246 53 359 c 0,3,4
 53 475 53 475 91 559.5 c 128,-1,5
 129 644 129 644 198.5 688.5 c 128,-1,6
 268 733 268 733 361 733 c 0,7,8
 430 733 430 733 490.5 703 c 128,-1,9
 551 673 551 673 588.5 623.5 c 128,-1,10
 626 574 626 574 630 517 c 1,11,-1
 537 511 l 1,12,13
 525 574 525 574 476.5 615 c 128,-1,14
 428 656 428 656 360 656 c 0,15,16
 259 656 259 656 202 580.5 c 128,-1,17
 145 505 145 505 145 365 c 0,18,19
 145 217 145 217 203 142.5 c 128,-1,20
 261 68 261 68 362 68 c 0,21,22
 421 68 421 68 463 95 c 128,-1,23
 505 122 505 122 527 162 c 128,-1,24
 549 202 549 202 551 242 c 2,25,-1
 553 309 l 1,26,-1
 374 309 l 1,27,-1
 374 373 l 1,28,-1
 642 372 l 1,29,-1
 642 0 l 1,30,-1
 576 0 l 1,31,-1
 576 112 l 1,32,33
 544 58 544 58 490 24 c 128,-1,34
 436 -10 436 -10 357 -10 c 0,35,0
 264 -10 264 -10 195.5 34.5 c 128,-1,1
EndSplineSet
EndChar

StartChar: H
Encoding: 72 72 43
Width: 707
GlyphClass: 2
Flags: W
AnchorPoint: "Anchor-5" 0 0 basechar 0
AnchorPoint: "Anchor-4" 352 0 basechar 0
AnchorPoint: "Anchor-3" 353 723 basechar 0
AnchorPoint: "Anchor-2" 0 0 basechar 0
LayerCount: 2
Fore
SplineSet
181 336 m 1,0,-1
 181 0 l 1,1,-1
 95 0 l 1,2,-1
 95 723 l 1,3,-1
 181 723 l 1,4,-1
 181 413 l 1,5,-1
 526 413 l 1,6,-1
 526 723 l 1,7,-1
 612 723 l 1,8,-1
 612 0 l 1,9,-1
 526 0 l 1,10,-1
 526 336 l 1,11,-1
 181 336 l 1,0,-1
EndSplineSet
EndChar

StartChar: I
Encoding: 73 73 44
Width: 276
GlyphClass: 2
Flags: W
AnchorPoint: "Anchor-5" 0 0 basechar 0
AnchorPoint: "Anchor-4" 142 0 basechar 0
AnchorPoint: "Anchor-3" 141 723 basechar 0
AnchorPoint: "Anchor-2" 169 8 basechar 0
LayerCount: 2
Fore
SplineSet
181 723 m 1,0,-1
 181 0 l 1,1,-1
 95 0 l 1,2,-1
 95 723 l 1,3,-1
 181 723 l 1,0,-1
EndSplineSet
EndChar

StartChar: J
Encoding: 74 74 45
Width: 384
GlyphClass: 2
Flags: W
AnchorPoint: "Anchor-5" 0 0 basechar 0
AnchorPoint: "Anchor-4" 0 0 basechar 0
AnchorPoint: "Anchor-3" 233 723 basechar 0
AnchorPoint: "Anchor-2" 0 0 basechar 0
LayerCount: 2
Fore
SplineSet
256.5 33.5 m 128,-1,1
 224 -10 224 -10 139 -10 c 0,2,3
 105 -10 105 -10 72.5 -2 c 128,-1,4
 40 6 40 6 23 13 c 1,5,-1
 30 96 l 1,6,7
 36 94 36 94 51 87.5 c 128,-1,8
 66 81 66 81 82.5 77 c 128,-1,9
 99 73 99 73 118 73 c 0,10,11
 166 73 166 73 184.5 99.5 c 128,-1,12
 203 126 203 126 203 192 c 2,13,-1
 203 723 l 1,14,-1
 289 723 l 1,15,-1
 289 167 l 2,16,0
 289 77 289 77 256.5 33.5 c 128,-1,1
EndSplineSet
EndChar

StartChar: K
Encoding: 75 75 46
Width: 673
GlyphClass: 2
Flags: W
AnchorPoint: "Anchor-5" 0 0 basechar 0
AnchorPoint: "Anchor-4" 338 0 basechar 0
AnchorPoint: "Anchor-3" 358 723 basechar 0
AnchorPoint: "Anchor-2" 0 0 basechar 0
LayerCount: 2
Fore
SplineSet
542 0 m 1,0,-1
 312 376 l 1,1,-1
 184 230 l 1,2,-1
 184 0 l 1,3,-1
 95 0 l 1,4,-1
 95 723 l 1,5,-1
 184 723 l 1,6,-1
 184 344 l 1,7,-1
 516 723 l 1,8,-1
 619 723 l 1,9,-1
 377 441 l 1,10,-1
 641 0 l 1,11,-1
 542 0 l 1,0,-1
EndSplineSet
EndChar

StartChar: L
Encoding: 76 76 47
Width: 559
GlyphClass: 2
Flags: W
AnchorPoint: "Anchor-5" 431 723 basechar 0
AnchorPoint: "Anchor-4" 307 0 basechar 0
AnchorPoint: "Anchor-3" 139 723 basechar 0
AnchorPoint: "Anchor-2" 0 0 basechar 0
LayerCount: 2
Fore
SplineSet
184 723 m 1,0,-1
 184 78 l 1,1,-1
 529 78 l 1,2,-1
 529 0 l 1,3,-1
 95 0 l 1,4,-1
 95 723 l 1,5,-1
 184 723 l 1,0,-1
EndSplineSet
EndChar

StartChar: M
Encoding: 77 77 48
Width: 877
GlyphClass: 2
Flags: W
LayerCount: 2
Fore
SplineSet
95 723 m 1,0,-1
 213 723 l 1,1,-1
 437 115 l 1,2,-1
 665 723 l 1,3,-1
 782 723 l 1,4,-1
 782 0 l 1,5,-1
 693 0 l 1,6,-1
 693 588 l 1,7,-1
 479 0 l 1,8,-1
 396 0 l 1,9,-1
 184 583 l 1,10,-1
 184 0 l 1,11,-1
 95 0 l 1,12,-1
 95 723 l 1,0,-1
EndSplineSet
EndChar

StartChar: N
Encoding: 78 78 49
Width: 746
GlyphClass: 2
Flags: W
AnchorPoint: "Anchor-5" 0 0 basechar 0
AnchorPoint: "Anchor-4" 356 0 basechar 0
AnchorPoint: "Anchor-3" 383 723 basechar 0
AnchorPoint: "Anchor-2" 0 0 basechar 0
LayerCount: 2
Fore
SplineSet
651 723 m 1,0,-1
 651 0 l 1,1,-1
 575 0 l 1,2,-1
 181 579 l 1,3,-1
 181 0 l 1,4,-1
 95 0 l 1,5,-1
 95 723 l 1,6,-1
 176 723 l 1,7,-1
 565 151 l 1,8,-1
 565 723 l 1,9,-1
 651 723 l 1,0,-1
EndSplineSet
EndChar

StartChar: O
Encoding: 79 79 50
Width: 727
GlyphClass: 2
Flags: W
AnchorPoint: "Anchor-5" 0 0 basechar 0
AnchorPoint: "Anchor-4" 366 0 basechar 0
AnchorPoint: "Anchor-3" 365 723 basechar 0
AnchorPoint: "Anchor-2" 440 9 basechar 0
LayerCount: 2
Fore
SplineSet
198 33 m 128,-1,1
 128 76 128 76 90.5 159 c 128,-1,2
 53 242 53 242 53 359 c 0,3,4
 53 477 53 477 91 561 c 128,-1,5
 129 645 129 645 199 689 c 128,-1,6
 269 733 269 733 365 733 c 0,7,8
 460 733 460 733 529.5 689 c 128,-1,9
 599 645 599 645 636.5 561.5 c 128,-1,10
 674 478 674 478 674 360 c 0,11,12
 674 243 674 243 636.5 160 c 128,-1,13
 599 77 599 77 529.5 33.5 c 128,-1,14
 460 -10 460 -10 364 -10 c 128,-1,0
 268 -10 268 -10 198 33 c 128,-1,1
525 138 m 128,-1,16
 580 210 580 210 580 359 c 0,17,18
 580 510 580 510 524.5 584 c 128,-1,19
 469 658 469 658 365 658 c 0,20,21
 260 658 260 658 203.5 583.5 c 128,-1,22
 147 509 147 509 147 359 c 0,23,24
 147 211 147 211 203.5 138.5 c 128,-1,25
 260 66 260 66 365 66 c 128,-1,15
 470 66 470 66 525 138 c 128,-1,16
EndSplineSet
Substitution2: "Single Substitution lookup 30 subtable" ordmasculine
Substitution2: "'aalt' Access All Alternates in Latin lookup 0 subtable" ordmasculine
EndChar

StartChar: P
Encoding: 80 80 51
Width: 636
GlyphClass: 2
Flags: W
LayerCount: 2
Fore
SplineSet
95 723 m 1,0,-1
 337 723 l 2,1,2
 459 723 459 723 531.5 670 c 128,-1,3
 604 617 604 617 604 510 c 0,4,5
 604 405 604 405 535.5 351 c 128,-1,6
 467 297 467 297 349 297 c 2,7,-1
 184 297 l 1,8,-1
 184 0 l 1,9,-1
 95 0 l 1,10,-1
 95 723 l 1,0,-1
347 370 m 2,11,12
 426 370 426 370 473 407 c 128,-1,13
 520 444 520 444 520 515 c 0,14,15
 520 650 520 650 342 650 c 2,16,-1
 183 650 l 1,17,-1
 183 370 l 1,18,-1
 347 370 l 2,11,12
EndSplineSet
EndChar

StartChar: Q
Encoding: 81 81 52
Width: 731
GlyphClass: 2
Flags: W
LayerCount: 2
Fore
SplineSet
86 562 m 128,-1,1
 124 646 124 646 194 689.5 c 128,-1,2
 264 733 264 733 360 733 c 128,-1,3
 456 733 456 733 525.5 689.5 c 128,-1,4
 595 646 595 646 632.5 562 c 128,-1,5
 670 478 670 478 670 360 c 0,6,7
 670 244 670 244 635 163.5 c 128,-1,8
 600 83 600 83 526 37 c 1,9,10
 544 -3 544 -3 580.5 -24 c 128,-1,11
 617 -45 617 -45 663 -47 c 1,12,-1
 663 -121 l 1,13,14
 518 -121 518 -121 445 -1 c 1,15,16
 396 -10 396 -10 360 -10 c 0,17,18
 265 -10 265 -10 194.5 33 c 128,-1,19
 124 76 124 76 86 159 c 128,-1,20
 48 242 48 242 48 360 c 128,-1,0
 48 478 48 478 86 562 c 128,-1,1
360 66 m 0,21,22
 576 66 576 66 576 359 c 0,23,24
 576 508 576 508 520.5 583 c 128,-1,25
 465 658 465 658 360 658 c 0,26,27
 254 658 254 658 198.5 583 c 128,-1,28
 143 508 143 508 143 358 c 0,29,30
 143 66 143 66 360 66 c 0,21,22
EndSplineSet
EndChar

StartChar: R
Encoding: 82 82 53
Width: 675
GlyphClass: 2
Flags: W
AnchorPoint: "Anchor-5" 0 0 basechar 0
AnchorPoint: "Anchor-4" 334 0 basechar 0
AnchorPoint: "Anchor-3" 326 723 basechar 0
AnchorPoint: "Anchor-2" 0 0 basechar 0
LayerCount: 2
Fore
SplineSet
515 0 m 1,0,-1
 382 316 l 1,1,-1
 181 316 l 1,2,-1
 181 0 l 1,3,-1
 95 0 l 1,4,-1
 95 723 l 1,5,-1
 372 723 l 2,6,7
 486 723 486 723 546 672 c 128,-1,8
 606 621 606 621 606 528 c 0,9,10
 606 447 606 447 565.5 400 c 128,-1,11
 525 353 525 353 463 331 c 1,12,-1
 607 0 l 1,13,-1
 515 0 l 1,0,-1
472.5 421.5 m 128,-1,15
 518 455 518 455 518 522 c 0,16,17
 518 586 518 586 478 619 c 128,-1,18
 438 652 438 652 365 652 c 2,19,-1
 181 652 l 1,20,-1
 181 388 l 1,21,-1
 342 388 l 2,22,14
 427 388 427 388 472.5 421.5 c 128,-1,15
EndSplineSet
EndChar

StartChar: S
Encoding: 83 83 54
Width: 667
GlyphClass: 2
Flags: W
AnchorPoint: "Anchor-5" 0 0 basechar 0
AnchorPoint: "Anchor-4" 330 0 basechar 0
AnchorPoint: "Anchor-3" 334 723 basechar 0
AnchorPoint: "Anchor-2" 0 0 basechar 0
LayerCount: 2
Fore
SplineSet
206.5 12.5 m 128,-1,1
 145 35 145 35 103.5 78.5 c 128,-1,2
 62 122 62 122 53 183 c 1,3,-1
 143 189 l 1,4,5
 157 128 157 128 211 95 c 128,-1,6
 265 62 265 62 339 62 c 0,7,8
 420 62 420 62 472 95.5 c 128,-1,9
 524 129 524 129 524 184 c 0,10,11
 524 233 524 233 492 263 c 128,-1,12
 460 293 460 293 396 308 c 2,13,-1
 249 342 l 2,14,15
 166 360 166 360 121 405.5 c 128,-1,16
 76 451 76 451 75 523 c 0,17,18
 75 584 75 584 108.5 631.5 c 128,-1,19
 142 679 142 679 201 705.5 c 128,-1,20
 260 732 260 732 336 732 c 0,21,22
 416 732 416 732 474.5 704 c 128,-1,23
 533 676 533 676 565 630 c 128,-1,24
 597 584 597 584 603 529 c 1,25,-1
 516 524 l 1,26,27
 505 594 505 594 456 626 c 128,-1,28
 407 658 407 658 335 658 c 0,29,30
 268 658 268 658 218 624.5 c 128,-1,31
 168 591 168 591 168 531 c 0,32,33
 168 488 168 488 197 461 c 128,-1,34
 226 434 226 434 297 417 c 2,35,-1
 439 383 l 2,36,37
 614 345 614 345 614 185 c 0,38,39
 614 130 614 130 581 86 c 128,-1,40
 548 42 548 42 486 16 c 128,-1,41
 424 -10 424 -10 339 -10 c 0,42,0
 268 -10 268 -10 206.5 12.5 c 128,-1,1
EndSplineSet
EndChar

StartChar: T
Encoding: 84 84 55
Width: 571
GlyphClass: 2
Flags: W
AnchorPoint: "Anchor-5" 0 0 basechar 0
AnchorPoint: "Anchor-4" 296 0 basechar 0
AnchorPoint: "Anchor-3" 296 723 basechar 0
AnchorPoint: "Anchor-2" 0 0 basechar 0
LayerCount: 2
Fore
SplineSet
14 723 m 1,0,-1
 557 723 l 1,1,-1
 557 644 l 1,2,-1
 335 644 l 1,3,-1
 335 0 l 1,4,-1
 249 0 l 1,5,-1
 249 644 l 1,6,-1
 14 644 l 1,7,-1
 14 723 l 1,0,-1
EndSplineSet
EndChar

StartChar: U
Encoding: 85 85 56
Width: 713
GlyphClass: 2
Flags: W
AnchorPoint: "Anchor-5" 0 0 basechar 0
AnchorPoint: "Anchor-4" 0 0 basechar 0
AnchorPoint: "Anchor-3" 353 723 basechar 0
AnchorPoint: "Anchor-2" 429 10 basechar 0
LayerCount: 2
Fore
SplineSet
554.5 55 m 128,-1,1
 491 -10 491 -10 356 -10 c 0,2,3
 220 -10 220 -10 157.5 57 c 128,-1,4
 95 124 95 124 95 257 c 2,5,-1
 95 723 l 1,6,-1
 184 723 l 1,7,-1
 184 243 l 2,8,9
 184 155 184 155 228 110.5 c 128,-1,10
 272 66 272 66 356 66 c 0,11,12
 441 66 441 66 486 110 c 128,-1,13
 531 154 531 154 531 243 c 2,14,-1
 531 723 l 1,15,-1
 618 723 l 1,16,-1
 618 247 l 2,17,0
 618 120 618 120 554.5 55 c 128,-1,1
EndSplineSet
EndChar

StartChar: V
Encoding: 86 86 57
Width: 638
GlyphClass: 2
Flags: W
LayerCount: 2
Fore
SplineSet
370 0 m 1,0,-1
 265 0 l 1,1,-1
 13 723 l 1,2,-1
 98 723 l 1,3,-1
 317 97 l 1,4,-1
 542 723 l 1,5,-1
 626 723 l 1,6,-1
 370 0 l 1,0,-1
EndSplineSet
EndChar

StartChar: W
Encoding: 87 87 58
Width: 952
GlyphClass: 2
Flags: W
AnchorPoint: "Anchor-5" 0 0 basechar 0
AnchorPoint: "Anchor-4" 0 0 basechar 0
AnchorPoint: "Anchor-3" 480 723 basechar 0
AnchorPoint: "Anchor-2" 0 0 basechar 0
LayerCount: 2
Fore
SplineSet
718 0 m 1,0,-1
 636 0 l 1,1,-1
 475 572 l 1,2,-1
 311 0 l 1,3,-1
 231 0 l 1,4,-1
 24 723 l 1,5,-1
 111 723 l 1,6,-1
 274 135 l 1,7,-1
 441 723 l 1,8,-1
 509 723 l 1,9,-1
 675 135 l 1,10,-1
 842 723 l 1,11,-1
 928 723 l 1,12,-1
 718 0 l 1,0,-1
EndSplineSet
EndChar

StartChar: X
Encoding: 88 88 59
Width: 648
GlyphClass: 2
Flags: W
LayerCount: 2
Fore
SplineSet
516 0 m 1,0,-1
 318 301 l 1,1,-1
 121 0 l 1,2,-1
 24 0 l 1,3,-1
 270 369 l 1,4,-1
 33 723 l 1,5,-1
 142 723 l 1,6,-1
 324 444 l 1,7,-1
 507 723 l 1,8,-1
 603 723 l 1,9,-1
 372 378 l 1,10,-1
 624 0 l 1,11,-1
 516 0 l 1,0,-1
EndSplineSet
EndChar

StartChar: Y
Encoding: 89 89 60
Width: 590
GlyphClass: 2
Flags: W
AnchorPoint: "Anchor-5" 0 0 basechar 0
AnchorPoint: "Anchor-4" 0 0 basechar 0
AnchorPoint: "Anchor-3" 300 723 basechar 0
AnchorPoint: "Anchor-2" 0 0 basechar 0
LayerCount: 2
Fore
SplineSet
339 308 m 1,0,-1
 339 0 l 1,1,-1
 253 0 l 1,2,-1
 253 309 l 1,3,-1
 7 723 l 1,4,-1
 101 723 l 1,5,-1
 297 386 l 1,6,-1
 489 723 l 1,7,-1
 583 723 l 1,8,-1
 339 308 l 1,0,-1
EndSplineSet
EndChar

StartChar: Z
Encoding: 90 90 61
Width: 621
GlyphClass: 2
Flags: W
AnchorPoint: "Anchor-5" 0 0 basechar 0
AnchorPoint: "Anchor-4" 320 0 basechar 0
AnchorPoint: "Anchor-3" 322 723 basechar 0
AnchorPoint: "Anchor-2" 0 0 basechar 0
LayerCount: 2
Fore
SplineSet
51 48 m 1,0,-1
 451 648 l 1,1,-1
 67 648 l 1,2,-1
 67 723 l 1,3,-1
 571 723 l 1,4,-1
 571 677 l 1,5,-1
 168 76 l 1,6,-1
 569 76 l 1,7,-1
 569 0 l 1,8,-1
 51 0 l 1,9,-1
 51 48 l 1,0,-1
EndSplineSet
EndChar

StartChar: bracketleft
Encoding: 91 91 62
Width: 296
GlyphClass: 2
Flags: W
LayerCount: 2
Fore
SplineSet
273 723 m 1,0,-1
 273 667 l 1,1,-1
 168 667 l 1,2,-1
 167 -105 l 1,3,-1
 272 -105 l 1,4,-1
 272 -161 l 1,5,-1
 92 -161 l 1,6,-1
 91 723 l 1,7,-1
 273 723 l 1,0,-1
EndSplineSet
EndChar

StartChar: backslash
Encoding: 92 92 63
Width: 344
GlyphClass: 2
Flags: W
LayerCount: 2
Fore
SplineSet
10 723 m 1,0,-1
 78 723 l 1,1,-1
 328 -41 l 1,2,-1
 260 -41 l 1,3,-1
 10 723 l 1,0,-1
EndSplineSet
EndChar

StartChar: bracketright
Encoding: 93 93 64
Width: 309
GlyphClass: 2
Flags: W
LayerCount: 2
Fore
SplineSet
20 723 m 1,0,-1
 20 667 l 1,1,-1
 125 667 l 1,2,-1
 126 -105 l 1,3,-1
 21 -105 l 1,4,-1
 21 -161 l 1,5,-1
 201 -161 l 1,6,-1
 202 723 l 1,7,-1
 20 723 l 1,0,-1
EndSplineSet
EndChar

StartChar: asciicircum
Encoding: 94 94 65
Width: 471
GlyphClass: 2
Flags: W
LayerCount: 2
Fore
SplineSet
233 426 m 1,0,-1
 114 130 l 1,1,-1
 46 130 l 1,2,-1
 194 491 l 2,3,4
 201 508 201 508 211.5 517 c 128,-1,5
 222 526 222 526 234 526 c 0,6,7
 245 526 245 526 255.5 517 c 128,-1,8
 266 508 266 508 272 491 c 2,9,-1
 421 129 l 1,10,-1
 351 129 l 1,11,-1
 233 426 l 1,0,-1
EndSplineSet
EndChar

StartChar: underscore
Encoding: 95 95 66
Width: 515
GlyphClass: 2
Flags: W
LayerCount: 2
Fore
SplineSet
450 -115 m 1,0,-1
 62 -116 l 1,1,-1
 62 -48 l 1,2,-1
 450 -47 l 1,3,-1
 450 -115 l 1,0,-1
EndSplineSet
EndChar

StartChar: grave
Encoding: 96 96 67
Width: 286
GlyphClass: 2
Flags: W
LayerCount: 2
Fore
SplineSet
274 636 m 1,0,-1
 259 591 l 1,1,-1
 9 665 l 1,2,-1
 31 732 l 1,3,-1
 274 636 l 1,0,-1
EndSplineSet
EndChar

StartChar: a
Encoding: 97 97 68
Width: 559
GlyphClass: 2
Flags: W
AnchorPoint: "Anchor-5" 0 0 basechar 0
AnchorPoint: "Anchor-4" 0 0 basechar 0
AnchorPoint: "Anchor-3" 279 517 basechar 0
AnchorPoint: "Anchor-2" 467 13 basechar 0
LayerCount: 2
Fore
SplineSet
96.5 30 m 128,-1,1
 50 70 50 70 50 139 c 0,2,3
 50 197 50 197 76 232.5 c 128,-1,4
 102 268 102 268 156.5 286.5 c 128,-1,5
 211 305 211 305 301 310 c 2,6,-1
 396 317 l 1,7,-1
 396 354 l 2,8,9
 396 405 396 405 364.5 434 c 128,-1,10
 333 463 333 463 277 463 c 0,11,12
 187 461 187 461 135 382 c 1,13,-1
 65 396 l 1,14,15
 88 458 88 458 145 492.5 c 128,-1,16
 202 527 202 527 282 527 c 0,17,18
 378 527 378 527 428.5 482.5 c 128,-1,19
 479 438 479 438 479 360 c 2,20,-1
 479 0 l 1,21,-1
 406 0 l 1,22,-1
 400 74 l 1,23,24
 328 -10 328 -10 219 -10 c 0,25,0
 143 -10 143 -10 96.5 30 c 128,-1,1
314.5 70 m 128,-1,27
 350 87 350 87 373 114 c 128,-1,28
 396 141 396 141 396 169 c 2,29,-1
 396 263 l 1,30,-1
 317 257 l 2,31,32
 219 251 219 251 176 227 c 128,-1,33
 133 203 133 203 133 147 c 0,34,35
 133 103 133 103 163.5 78 c 128,-1,36
 194 53 194 53 244 53 c 0,37,26
 279 53 279 53 314.5 70 c 128,-1,27
EndSplineSet
Substitution2: "Single Substitution lookup 30 subtable" ordfeminine
Substitution2: "'aalt' Access All Alternates in Latin lookup 0 subtable" ordfeminine
EndChar

StartChar: b
Encoding: 98 98 69
Width: 592
GlyphClass: 2
Flags: W
LayerCount: 2
Fore
SplineSet
214 18 m 128,-1,1
 170 46 170 46 154 76 c 1,2,-1
 145 0 l 1,3,-1
 80 0 l 1,4,-1
 80 743 l 1,5,-1
 166 743 l 1,6,-1
 166 446 l 1,7,8
 184 474 184 474 228 500.5 c 128,-1,9
 272 527 272 527 334 527 c 0,10,11
 437 527 437 527 490 453.5 c 128,-1,12
 543 380 543 380 543 261 c 0,13,14
 543 135 543 135 484.5 62.5 c 128,-1,15
 426 -10 426 -10 320 -10 c 0,16,0
 258 -10 258 -10 214 18 c 128,-1,1
412 108 m 128,-1,18
 454 159 454 159 454 261 c 0,19,20
 454 357 454 357 416 408 c 128,-1,21
 378 459 378 459 308 459 c 0,22,23
 261 459 261 459 223.5 433.5 c 128,-1,24
 186 408 186 408 166 363 c 1,25,-1
 166 200 l 2,26,27
 166 159 166 159 185 126.5 c 128,-1,28
 204 94 204 94 235.5 75.5 c 128,-1,29
 267 57 267 57 302 57 c 0,30,17
 370 57 370 57 412 108 c 128,-1,18
EndSplineSet
EndChar

StartChar: c
Encoding: 99 99 70
Width: 537
GlyphClass: 2
Flags: W
AnchorPoint: "Anchor-5" 0 0 basechar 0
AnchorPoint: "Anchor-4" 285 0 basechar 0
AnchorPoint: "Anchor-3" 284 517 basechar 0
AnchorPoint: "Anchor-2" 0 0 basechar 0
LayerCount: 2
Fore
SplineSet
483 382 m 1,0,-1
 412 368 l 1,1,2
 378 417 378 417 353 437 c 128,-1,3
 328 457 328 457 288 457 c 0,4,5
 216 457 216 457 174 403.5 c 128,-1,6
 132 350 132 350 132 258 c 0,7,8
 132 165 132 165 174.5 110.5 c 128,-1,9
 217 56 217 56 289 56 c 0,10,11
 333 56 333 56 362.5 80.5 c 128,-1,12
 392 105 392 105 418 152 c 1,13,-1
 487 137 l 1,14,15
 461 68 461 68 409.5 29 c 128,-1,16
 358 -10 358 -10 284 -10 c 0,17,18
 214 -10 214 -10 160.5 23.5 c 128,-1,19
 107 57 107 57 78 117.5 c 128,-1,20
 49 178 49 178 49 256 c 0,21,22
 49 335 49 335 78 396.5 c 128,-1,23
 107 458 107 458 160.5 492.5 c 128,-1,24
 214 527 214 527 284 527 c 0,25,26
 424 527 424 527 483 382 c 1,0,-1
EndSplineSet
EndChar

StartChar: d
Encoding: 100 100 71
Width: 583
GlyphClass: 2
Flags: W
AnchorPoint: "Anchor-5" 594 661 basechar 0
AnchorPoint: "Anchor-4" 288 0 basechar 0
AnchorPoint: "Anchor-3" 0 0 basechar 0
AnchorPoint: "Anchor-2" 0 0 basechar 0
LayerCount: 2
Fore
SplineSet
106 58.5 m 128,-1,1
 49 127 49 127 49 253 c 0,2,3
 49 378 49 378 106 452.5 c 128,-1,4
 163 527 163 527 265 527 c 0,5,6
 309 527 309 527 346 511 c 128,-1,7
 383 495 383 495 418 462 c 1,8,-1
 418 743 l 1,9,-1
 504 743 l 1,10,-1
 504 0 l 1,11,-1
 436 0 l 1,12,-1
 432 74 l 1,13,14
 365 -10 365 -10 263 -10 c 0,15,0
 163 -10 163 -10 106 58.5 c 128,-1,1
349.5 76 m 128,-1,17
 381 95 381 95 399.5 125.5 c 128,-1,18
 418 156 418 156 418 188 c 2,19,-1
 418 376 l 1,20,21
 368 459 368 459 285 459 c 0,22,23
 215 459 215 459 174.5 407 c 128,-1,24
 134 355 134 355 134 256 c 0,25,26
 134 156 134 156 174.5 106.5 c 128,-1,27
 215 57 215 57 280 57 c 0,28,16
 318 57 318 57 349.5 76 c 128,-1,17
EndSplineSet
EndChar

StartChar: e
Encoding: 101 101 72
Width: 556
GlyphClass: 2
Flags: W
AnchorPoint: "Anchor-5" 0 0 basechar 0
AnchorPoint: "Anchor-4" 278 0 basechar 0
AnchorPoint: "Anchor-3" 284 517 basechar 0
AnchorPoint: "Anchor-2" 387 20 basechar 0
LayerCount: 2
Fore
SplineSet
176.5 108.5 m 128,-1,1
 217 58 217 58 291 58 c 0,2,3
 391 58 391 58 422 138 c 1,4,-1
 500 127 l 1,5,6
 482 63 482 63 425.5 26.5 c 128,-1,7
 369 -10 369 -10 293 -10 c 0,8,9
 221 -10 221 -10 166 21.5 c 128,-1,10
 111 53 111 53 80 112.5 c 128,-1,11
 49 172 49 172 49 253 c 0,12,13
 49 378 49 378 111.5 452.5 c 128,-1,14
 174 527 174 527 284 527 c 0,15,16
 390 527 390 527 448.5 459 c 128,-1,17
 507 391 507 391 507 272 c 2,18,-1
 507 238 l 1,19,-1
 136 238 l 1,20,0
 136 159 136 159 176.5 108.5 c 128,-1,1
424 298 m 1,21,22
 424 370 424 370 388 415 c 128,-1,23
 352 460 352 460 283 460 c 0,24,25
 235 460 235 460 202 437 c 128,-1,26
 169 414 169 414 152.5 376.5 c 128,-1,27
 136 339 136 339 136 298 c 1,28,-1
 424 298 l 1,21,22
EndSplineSet
EndChar

StartChar: f
Encoding: 102 102 73
Width: 388
GlyphClass: 2
Flags: W
LayerCount: 2
Fore
SplineSet
353 454 m 1,0,-1
 225 454 l 1,1,-1
 225 0 l 1,2,-1
 140 0 l 1,3,-1
 140 454 l 1,4,-1
 29 454 l 1,5,-1
 29 517 l 1,6,-1
 140 517 l 1,7,-1
 140 598 l 2,8,9
 140 723 140 723 263 723 c 2,10,-1
 358 723 l 1,11,-1
 358 661 l 1,12,-1
 280 661 l 2,13,14
 249 661 249 661 236.5 644.5 c 128,-1,15
 224 628 224 628 224 592 c 2,16,-1
 224 517 l 1,17,-1
 353 517 l 1,18,-1
 353 454 l 1,0,-1
EndSplineSet
EndChar

StartChar: g
Encoding: 103 103 74
Width: 601
GlyphClass: 2
Flags: W
AnchorPoint: "Anchor-5" 0 0 basechar 0
AnchorPoint: "Anchor-4" 0 0 basechar 0
AnchorPoint: "Anchor-3" 296 517 basechar 0
AnchorPoint: "Anchor-2" 0 0 basechar 0
LayerCount: 2
Fore
SplineSet
102 -134 m 128,-1,1
 36 -97 36 -97 36 -34 c 0,2,3
 36 7 36 7 62 32 c 128,-1,4
 88 57 88 57 108.5 67 c 128,-1,5
 129 77 129 77 133 80 c 1,6,7
 129 82 129 82 114.5 91 c 128,-1,8
 100 100 100 100 90.5 113 c 128,-1,9
 81 126 81 126 81 144 c 0,10,11
 81 169 81 169 104.5 188.5 c 128,-1,12
 128 208 128 208 171 218 c 1,13,14
 121 244 121 244 98 279 c 128,-1,15
 75 314 75 314 75 361 c 0,16,17
 75 438 75 438 136 481.5 c 128,-1,18
 197 525 197 525 298 525 c 0,19,20
 346 525 346 525 380.5 514 c 128,-1,21
 415 503 415 503 446 480 c 1,22,23
 456 483 456 483 499 502 c 2,24,-1
 576 533 l 1,25,-1
 575 451 l 1,26,-1
 485 434 l 1,27,28
 492 419 492 419 497 397.5 c 128,-1,29
 502 376 502 376 502 362 c 0,30,31
 502 317 502 317 478.5 280 c 128,-1,32
 455 243 455 243 407 221 c 128,-1,33
 359 199 359 199 289 199 c 0,34,35
 269 199 269 199 261 200 c 0,36,37
 209 199 209 199 186 188.5 c 128,-1,38
 163 178 163 178 163 164 c 0,39,40
 163 149 163 149 184.5 143 c 128,-1,41
 206 137 206 137 263 133 c 2,42,-1
 375 127 l 2,43,44
 460 121 460 121 501 85 c 128,-1,45
 542 49 542 49 542 -12 c 0,46,47
 542 -86 542 -86 476.5 -128.5 c 128,-1,48
 411 -171 411 -171 291 -171 c 0,49,0
 168 -171 168 -171 102 -134 c 128,-1,1
387.5 282.5 m 128,-1,51
 420 310 420 310 420 361 c 0,52,53
 420 413 420 413 387 442 c 128,-1,54
 354 471 354 471 292 471 c 128,-1,55
 230 471 230 471 195.5 441.5 c 128,-1,56
 161 412 161 412 161 361 c 0,57,58
 161 311 161 311 195.5 283 c 128,-1,59
 230 255 230 255 292 255 c 0,60,50
 355 255 355 255 387.5 282.5 c 128,-1,51
421 -92.5 m 128,-1,62
 458 -70 458 -70 458 -24 c 0,63,64
 458 10 458 10 435.5 29 c 128,-1,65
 413 48 413 48 362 52 c 2,66,-1
 214 61 l 2,67,68
 195 62 195 62 173 51 c 128,-1,69
 151 40 151 40 136 20 c 128,-1,70
 121 0 121 0 121 -24 c 0,71,72
 121 -69 121 -69 168.5 -92 c 128,-1,73
 216 -115 216 -115 306 -115 c 0,74,61
 384 -115 384 -115 421 -92.5 c 128,-1,62
EndSplineSet
EndChar

StartChar: h
Encoding: 104 104 75
Width: 587
GlyphClass: 2
Flags: W
AnchorPoint: "Anchor-5" 0 0 basechar 0
AnchorPoint: "Anchor-4" 301 0 basechar 0
AnchorPoint: "Anchor-3" 357 517 basechar 0
AnchorPoint: "Anchor-2" 0 0 basechar 0
LayerCount: 2
Fore
SplineSet
80 743 m 1,0,-1
 163 743 l 1,1,-1
 163 444 l 1,2,3
 202 475 202 475 225.5 490 c 128,-1,4
 249 505 249 505 277.5 514.5 c 128,-1,5
 306 524 306 524 342 524 c 0,6,7
 418 524 418 524 462.5 482 c 128,-1,8
 507 440 507 440 507 372 c 2,9,-1
 507 0 l 1,10,-1
 421 0 l 1,11,-1
 421 354 l 2,12,13
 421 401 421 401 395 427 c 128,-1,14
 369 453 369 453 319 453 c 0,15,16
 278 453 278 453 244 434.5 c 128,-1,17
 210 416 210 416 166 376 c 1,18,-1
 166 0 l 1,19,-1
 80 0 l 1,20,-1
 80 743 l 1,0,-1
EndSplineSet
EndChar

StartChar: i
Encoding: 105 105 76
Width: 252
GlyphClass: 2
Flags: W
LayerCount: 2
Fore
SplineSet
172 627 m 1,0,-1
 80 627 l 1,1,-1
 80 743 l 1,2,-1
 172 743 l 1,3,-1
 172 627 l 1,0,-1
169 0 m 1,4,-1
 83 0 l 1,5,-1
 83 517 l 1,6,-1
 169 517 l 1,7,-1
 169 0 l 1,4,-1
EndSplineSet
Substitution2: "Single Substitution lookup 28 subtable" dotlessi
Substitution2: "'locl' Localized Forms in Latin lookup 10 subtable" i.loclTRK
Substitution2: "'locl' Localized Forms in Latin lookup 9 subtable" i.loclTRK
Substitution2: "'locl' Localized Forms in Latin lookup 8 subtable" i.loclTRK
Substitution2: "'locl' Localized Forms in Latin lookup 7 subtable" i.loclTRK
Substitution2: "'locl' Localized Forms in Latin lookup 6 subtable" i.loclTRK
AlternateSubs2: "'aalt' Access All Alternates in Latin lookup 1 subtable" dotlessi i.loclTRK
EndChar

StartChar: j
Encoding: 106 106 77
Width: 272
GlyphClass: 2
Flags: W
LayerCount: 2
Fore
SplineSet
184 627 m 1,0,-1
 91 627 l 1,1,-1
 91 743 l 1,2,-1
 184 743 l 1,3,-1
 184 627 l 1,0,-1
149.5 -132.5 m 128,-1,5
 118 -166 118 -166 42 -166 c 0,6,7
 7 -166 7 -166 -7.5 -161.5 c 128,-1,8
 -22 -157 -22 -157 -22 -155 c 2,9,-1
 -22 -97 l 1,10,-1
 30 -95 l 2,11,12
 66 -93 66 -93 80.5 -77 c 128,-1,13
 95 -61 95 -61 95 -23 c 2,14,-1
 95 517 l 1,15,-1
 181 517 l 1,16,-1
 181 -27 l 2,17,4
 181 -99 181 -99 149.5 -132.5 c 128,-1,5
EndSplineSet
Substitution2: "Single Substitution lookup 28 subtable" uni0237
Substitution2: "'aalt' Access All Alternates in Latin lookup 0 subtable" uni0237
EndChar

StartChar: k
Encoding: 107 107 78
Width: 561
GlyphClass: 2
Flags: W
AnchorPoint: "Anchor-5" 0 0 basechar 0
AnchorPoint: "Anchor-4" 280 0 basechar 0
AnchorPoint: "Anchor-3" 0 0 basechar 0
AnchorPoint: "Anchor-2" 0 0 basechar 0
LayerCount: 2
Fore
SplineSet
437 0 m 1,0,-1
 272 264 l 1,1,-1
 166 154 l 1,2,-1
 166 0 l 1,3,-1
 80 0 l 1,4,-1
 80 743 l 1,5,-1
 166 743 l 1,6,-1
 166 249 l 1,7,-1
 419 517 l 1,8,-1
 515 517 l 1,9,-1
 329 321 l 1,10,-1
 528 0 l 1,11,-1
 437 0 l 1,0,-1
EndSplineSet
EndChar

StartChar: l
Encoding: 108 108 79
Width: 289
GlyphClass: 2
Flags: W
AnchorPoint: "Anchor-5" 292 736 basechar 0
AnchorPoint: "Anchor-4" 116 0 basechar 0
AnchorPoint: "Anchor-3" 120 763 basechar 0
AnchorPoint: "Anchor-2" 0 0 basechar 0
LayerCount: 2
Fore
SplineSet
106.5 34 m 128,-1,1
 80 71 80 71 80 135 c 2,2,-1
 80 743 l 1,3,-1
 164 743 l 1,4,-1
 164 143 l 2,5,6
 164 103 164 103 179.5 83 c 128,-1,7
 195 63 195 63 222 61 c 2,8,-1
 251 61 l 1,9,-1
 251 5 l 1,10,11
 227 -3 227 -3 206 -3 c 0,12,0
 133 -3 133 -3 106.5 34 c 128,-1,1
EndSplineSet
Substitution2: "'ss01' Style Set 1 in Latin lookup 27 subtable" l.ss01
Substitution2: "'salt' Stylistic Alternatives in Latin lookup 26 subtable" l.ss01
Substitution2: "'aalt' Access All Alternates in Latin lookup 0 subtable" l.ss01
EndChar

StartChar: m
Encoding: 109 109 80
Width: 901
GlyphClass: 2
Flags: W
LayerCount: 2
Fore
SplineSet
80 517 m 1,0,-1
 163 517 l 1,1,-1
 163 445 l 1,2,3
 187 479 187 479 227.5 503 c 128,-1,4
 268 527 268 527 323 527 c 0,5,6
 379 527 379 527 421.5 506.5 c 128,-1,7
 464 486 464 486 483 445 c 1,8,9
 508 484 508 484 550 505.5 c 128,-1,10
 592 527 592 527 645 527 c 0,11,12
 718 527 718 527 769.5 485.5 c 128,-1,13
 821 444 821 444 821 344 c 2,14,-1
 821 0 l 1,15,-1
 736 0 l 1,16,-1
 736 337 l 2,17,18
 736 459 736 459 620 459 c 0,19,20
 565 459 565 459 529 432 c 128,-1,21
 493 405 493 405 493 345 c 2,22,-1
 493 0 l 1,23,-1
 407 0 l 1,24,-1
 407 366 l 2,25,26
 407 411 407 411 374 435 c 128,-1,27
 341 459 341 459 291 459 c 0,28,29
 244 459 244 459 205 432 c 128,-1,30
 166 405 166 405 166 354 c 2,31,-1
 166 0 l 1,32,-1
 80 0 l 1,33,-1
 80 517 l 1,0,-1
EndSplineSet
EndChar

StartChar: n
Encoding: 110 110 81
Width: 587
GlyphClass: 2
Flags: W
AnchorPoint: "Anchor-5" 0 0 basechar 0
AnchorPoint: "Anchor-4" 295 0 basechar 0
AnchorPoint: "Anchor-3" 301 517 basechar 0
AnchorPoint: "Anchor-2" 0 0 basechar 0
LayerCount: 2
Fore
SplineSet
80 517 m 1,0,-1
 163 517 l 1,1,-1
 163 445 l 1,2,3
 186 481 186 481 226.5 503 c 128,-1,4
 267 525 267 525 326 525 c 0,5,6
 404 525 404 525 455.5 476 c 128,-1,7
 507 427 507 427 507 339 c 2,8,-1
 507 0 l 1,9,-1
 422 0 l 1,10,-1
 422 331 l 2,11,12
 422 389 422 389 390 421 c 128,-1,13
 358 453 358 453 304 453 c 0,14,15
 246 453 246 453 206 426 c 128,-1,16
 166 399 166 399 166 349 c 2,17,-1
 166 0 l 1,18,-1
 80 0 l 1,19,-1
 80 517 l 1,0,-1
EndSplineSet
EndChar

StartChar: o
Encoding: 111 111 82
Width: 567
GlyphClass: 2
Flags: W
AnchorPoint: "Anchor-5" 0 0 basechar 0
AnchorPoint: "Anchor-4" 283 0 basechar 0
AnchorPoint: "Anchor-3" 286 517 basechar 0
AnchorPoint: "Anchor-2" 350 10 basechar 0
LayerCount: 2
Fore
SplineSet
158 23.5 m 128,-1,1
 105 57 105 57 77 117 c 128,-1,2
 49 177 49 177 49 255 c 0,3,4
 49 335 49 335 77.5 396.5 c 128,-1,5
 106 458 106 458 159.5 492.5 c 128,-1,6
 213 527 213 527 285 527 c 128,-1,7
 357 527 357 527 409.5 492.5 c 128,-1,8
 462 458 462 458 490 396.5 c 128,-1,9
 518 335 518 335 518 256 c 0,10,11
 518 178 518 178 490 117.5 c 128,-1,12
 462 57 462 57 409.5 23.5 c 128,-1,13
 357 -10 357 -10 284 -10 c 128,-1,0
 211 -10 211 -10 158 23.5 c 128,-1,1
396 113.5 m 128,-1,15
 433 169 433 169 433 259 c 128,-1,16
 433 349 433 349 395.5 404 c 128,-1,17
 358 459 358 459 285 459 c 0,18,19
 211 459 211 459 173 403.5 c 128,-1,20
 135 348 135 348 135 259 c 0,21,22
 135 169 135 169 173 113.5 c 128,-1,23
 211 58 211 58 286 58 c 0,24,14
 359 58 359 58 396 113.5 c 128,-1,15
EndSplineSet
Substitution2: "Single Substitution lookup 30 subtable" ordmasculine
Substitution2: "'aalt' Access All Alternates in Latin lookup 0 subtable" ordmasculine
EndChar

StartChar: p
Encoding: 112 112 83
Width: 591
GlyphClass: 2
Flags: W
LayerCount: 2
Fore
SplineSet
80 517 m 1,0,-1
 165 517 l 1,1,-1
 165 445 l 1,2,3
 227 527 227 527 326 527 c 0,4,5
 388 527 388 527 436.5 498 c 128,-1,6
 485 469 485 469 513.5 410 c 128,-1,7
 542 351 542 351 542 266 c 0,8,9
 542 180 542 180 512.5 117.5 c 128,-1,10
 483 55 483 55 431 22.5 c 128,-1,11
 379 -10 379 -10 312 -10 c 0,12,13
 224 -10 224 -10 166 52 c 1,14,-1
 166 -161 l 1,15,-1
 80 -161 l 1,16,-1
 80 517 l 1,0,-1
381.5 81.5 m 128,-1,18
 418 106 418 106 438.5 152.5 c 128,-1,19
 459 199 459 199 459 263 c 128,-1,20
 459 327 459 327 438 371 c 128,-1,21
 417 415 417 415 381.5 437 c 128,-1,22
 346 459 346 459 304 459 c 0,23,24
 266 459 266 459 234 440.5 c 128,-1,25
 202 422 202 422 184 393.5 c 128,-1,26
 166 365 166 365 166 338 c 2,27,-1
 166 137 l 1,28,29
 192 100 192 100 226 78.5 c 128,-1,30
 260 57 260 57 299 57 c 0,31,17
 345 57 345 57 381.5 81.5 c 128,-1,18
EndSplineSet
EndChar

StartChar: q
Encoding: 113 113 84
Width: 592
GlyphClass: 2
Flags: W
LayerCount: 2
Fore
SplineSet
426 -161 m 1,0,-1
 426 49 l 1,1,2
 389 17 389 17 352.5 3.5 c 128,-1,3
 316 -10 316 -10 275 -10 c 0,4,5
 208 -10 208 -10 157 22.5 c 128,-1,6
 106 55 106 55 77.5 117.5 c 128,-1,7
 49 180 49 180 49 266 c 0,8,9
 49 351 49 351 77.5 410 c 128,-1,10
 106 469 106 469 154.5 498 c 128,-1,11
 203 527 203 527 265 527 c 0,12,13
 306 527 306 527 338 514 c 128,-1,14
 370 501 370 501 386 488 c 128,-1,15
 402 475 402 475 427 451 c 1,16,-1
 427 517 l 1,17,-1
 512 517 l 1,18,-1
 512 -161 l 1,19,-1
 426 -161 l 1,0,-1
426 150 m 1,20,-1
 426 328 l 2,21,22
 426 362 426 362 408.5 393 c 128,-1,23
 391 424 391 424 360 443 c 128,-1,24
 329 462 329 462 290 462 c 0,25,26
 224 462 224 462 180.5 411.5 c 128,-1,27
 137 361 137 361 137 264 c 0,28,29
 137 200 137 200 157.5 152.5 c 128,-1,30
 178 105 178 105 214 79.5 c 128,-1,31
 250 54 250 54 296 54 c 0,32,33
 371 54 371 54 426 150 c 1,20,-1
EndSplineSet
EndChar

StartChar: r
Encoding: 114 114 85
Width: 385
GlyphClass: 2
Flags: W
AnchorPoint: "Anchor-5" 0 0 basechar 0
AnchorPoint: "Anchor-4" 126 0 basechar 0
AnchorPoint: "Anchor-3" 212 517 basechar 0
AnchorPoint: "Anchor-2" 0 0 basechar 0
LayerCount: 2
Fore
SplineSet
80 517 m 1,0,-1
 161 517 l 1,1,-1
 161 409 l 1,2,3
 188 460 188 460 241.5 493.5 c 128,-1,4
 295 527 295 527 352 527 c 1,5,-1
 352 444 l 1,6,7
 302 446 302 446 259 427.5 c 128,-1,8
 216 409 216 409 191 377.5 c 128,-1,9
 166 346 166 346 166 314 c 2,10,-1
 166 0 l 1,11,-1
 80 0 l 1,12,-1
 80 517 l 1,0,-1
EndSplineSet
EndChar

StartChar: s
Encoding: 115 115 86
Width: 506
GlyphClass: 2
Flags: W
AnchorPoint: "Anchor-5" 0 0 basechar 0
AnchorPoint: "Anchor-4" 252 0 basechar 0
AnchorPoint: "Anchor-3" 247 517 basechar 0
AnchorPoint: "Anchor-2" 0 0 basechar 0
LayerCount: 2
Fore
SplineSet
113.5 28.5 m 128,-1,1
 57 67 57 67 44 135 c 1,2,-1
 118 146 l 1,3,4
 145 55 145 55 253 55 c 0,5,6
 309 55 309 55 346.5 77.5 c 128,-1,7
 384 100 384 100 384 139 c 0,8,9
 384 199 384 199 305 218 c 2,10,-1
 198 241 l 2,11,12
 129 257 129 257 96 290 c 128,-1,13
 63 323 63 323 63 374 c 0,14,15
 63 445 63 445 115 486 c 128,-1,16
 167 527 167 527 257 527 c 0,17,18
 349 527 349 527 400.5 485 c 128,-1,19
 452 443 452 443 454 378 c 1,20,-1
 380 372 l 1,21,22
 362 463 362 463 255 463 c 0,23,24
 207 463 207 463 174.5 443.5 c 128,-1,25
 142 424 142 424 142 379 c 0,26,27
 142 355 142 355 161.5 337.5 c 128,-1,28
 181 320 181 320 230 308 c 2,29,-1
 336 282 l 2,30,31
 404 265 404 265 433 227 c 128,-1,32
 462 189 462 189 462 142 c 0,33,34
 462 98 462 98 435.5 63 c 128,-1,35
 409 28 409 28 361.5 9 c 128,-1,36
 314 -10 314 -10 253 -10 c 0,37,0
 170 -10 170 -10 113.5 28.5 c 128,-1,1
EndSplineSet
EndChar

StartChar: t
Encoding: 116 116 87
Width: 388
GlyphClass: 2
Flags: W
AnchorPoint: "Anchor-5" 380 754 basechar 0
AnchorPoint: "Anchor-4" 259 0 basechar 0
AnchorPoint: "Anchor-3" 0 0 basechar 0
AnchorPoint: "Anchor-2" 0 0 basechar 0
LayerCount: 2
Fore
SplineSet
215 454 m 1,0,-1
 215 130 l 2,1,2
 215 90 215 90 227.5 75.5 c 128,-1,3
 240 61 240 61 266 61 c 2,4,-1
 337 61 l 1,5,-1
 337 6 l 1,6,7
 316 -2 316 -2 262 -2 c 0,8,9
 187 -2 187 -2 158 28.5 c 128,-1,10
 129 59 129 59 129 124 c 2,11,-1
 129 454 l 1,12,-1
 45 454 l 1,13,-1
 45 517 l 1,14,-1
 131 517 l 1,15,-1
 140 688 l 1,16,-1
 215 688 l 1,17,-1
 215 517 l 1,18,-1
 332 517 l 1,19,-1
 332 454 l 1,20,-1
 215 454 l 1,0,-1
EndSplineSet
EndChar

StartChar: u
Encoding: 117 117 88
Width: 587
GlyphClass: 2
Flags: W
AnchorPoint: "Anchor-5" 0 0 basechar 0
AnchorPoint: "Anchor-4" 293 0 basechar 0
AnchorPoint: "Anchor-3" 285 517 basechar 0
AnchorPoint: "Anchor-2" 492 11 basechar 0
LayerCount: 2
Fore
SplineSet
184 9 m 128,-1,1
 139 27 139 27 109.5 67 c 128,-1,2
 80 107 80 107 80 168 c 2,3,-1
 80 518 l 1,4,-1
 166 518 l 1,5,-1
 166 176 l 2,6,7
 166 115 166 115 203.5 86.5 c 128,-1,8
 241 58 241 58 291 58 c 0,9,10
 345 58 345 58 382.5 90.5 c 128,-1,11
 420 123 420 123 421 181 c 2,12,-1
 421 518 l 1,13,-1
 507 518 l 1,14,-1
 506 1 l 1,15,-1
 438 1 l 1,16,-1
 434 81 l 1,17,18
 417 45 417 45 371.5 18 c 128,-1,19
 326 -9 326 -9 276 -9 c 0,20,0
 229 -9 229 -9 184 9 c 128,-1,1
EndSplineSet
EndChar

StartChar: v
Encoding: 118 118 89
Width: 530
GlyphClass: 2
Flags: W
LayerCount: 2
Fore
SplineSet
299 0 m 1,0,-1
 231 0 l 1,1,-1
 22 517 l 1,2,-1
 103 517 l 1,3,-1
 266 109 l 1,4,-1
 428 517 l 1,5,-1
 508 517 l 1,6,-1
 299 0 l 1,0,-1
EndSplineSet
EndChar

StartChar: w
Encoding: 119 119 90
Width: 774
GlyphClass: 2
Flags: W
AnchorPoint: "Anchor-5" 0 0 basechar 0
AnchorPoint: "Anchor-4" 0 0 basechar 0
AnchorPoint: "Anchor-3" 391 517 basechar 0
AnchorPoint: "Anchor-2" 0 0 basechar 0
LayerCount: 2
Fore
SplineSet
590 0 m 1,0,-1
 510 0 l 1,1,-1
 386 390 l 1,2,-1
 268 0 l 1,3,-1
 188 0 l 1,4,-1
 25 517 l 1,5,-1
 105 517 l 1,6,-1
 230 110 l 1,7,-1
 354 517 l 1,8,-1
 420 517 l 1,9,-1
 548 111 l 1,10,-1
 668 517 l 1,11,-1
 749 517 l 1,12,-1
 590 0 l 1,0,-1
EndSplineSet
EndChar

StartChar: x
Encoding: 120 120 91
Width: 538
GlyphClass: 2
Flags: W
LayerCount: 2
Fore
SplineSet
422 0 m 1,0,-1
 269 207 l 1,1,-1
 115 0 l 1,2,-1
 21 0 l 1,3,-1
 221 269 l 1,4,-1
 37 517 l 1,5,-1
 131 517 l 1,6,-1
 269 331 l 1,7,-1
 407 517 l 1,8,-1
 501 517 l 1,9,-1
 317 269 l 1,10,-1
 517 0 l 1,11,-1
 422 0 l 1,0,-1
EndSplineSet
EndChar

StartChar: y
Encoding: 121 121 92
Width: 525
GlyphClass: 2
Flags: W
AnchorPoint: "Anchor-5" 0 0 basechar 0
AnchorPoint: "Anchor-4" 0 0 basechar 0
AnchorPoint: "Anchor-3" 271 517 basechar 0
AnchorPoint: "Anchor-2" 0 0 basechar 0
LayerCount: 2
Fore
SplineSet
79.5 -162.5 m 128,-1,1
 62 -160 62 -160 54.5 -157 c 128,-1,2
 47 -154 47 -154 45 -153 c 2,3,-1
 45 -97 l 1,4,-1
 99 -98 l 2,5,6
 149 -99 149 -99 171.5 -83 c 128,-1,7
 194 -67 194 -67 205 -40 c 2,8,-1
 224 11 l 1,9,-1
 22 517 l 1,10,-1
 109 517 l 1,11,-1
 265 110 l 1,12,-1
 420 517 l 1,13,-1
 503 517 l 1,14,-1
 285 -44 l 2,15,16
 257 -111 257 -111 218 -138 c 128,-1,17
 179 -165 179 -165 123 -165 c 0,18,0
 97 -165 97 -165 79.5 -162.5 c 128,-1,1
EndSplineSet
EndChar

StartChar: z
Encoding: 122 122 93
Width: 486
GlyphClass: 2
Flags: W
AnchorPoint: "Anchor-5" 0 0 basechar 0
AnchorPoint: "Anchor-4" 0 0 basechar 0
AnchorPoint: "Anchor-3" 259 517 basechar 0
AnchorPoint: "Anchor-2" 0 0 basechar 0
LayerCount: 2
Fore
SplineSet
41 54 m 1,0,-1
 341 457 l 1,1,-1
 62 457 l 1,2,-1
 62 517 l 1,3,-1
 444 517 l 1,4,-1
 444 462 l 1,5,-1
 144 60 l 1,6,-1
 449 60 l 1,7,-1
 449 0 l 1,8,-1
 41 0 l 1,9,-1
 41 54 l 1,0,-1
EndSplineSet
EndChar

StartChar: braceleft
Encoding: 123 123 94
Width: 317
GlyphClass: 2
Flags: W
LayerCount: 2
Fore
SplineSet
155 696 m 128,-1,1
 190 723 190 723 246 723 c 2,2,-1
 293 723 l 1,3,-1
 293 667 l 1,4,-1
 258 667 l 2,5,6
 222 667 222 667 209 654.5 c 128,-1,7
 196 642 196 642 196 615 c 2,8,-1
 196 401 l 2,9,10
 195 348 195 348 167 319.5 c 128,-1,11
 139 291 139 291 98 287 c 0,12,13
 92 286 92 286 91.5 283.5 c 128,-1,14
 91 281 91 281 98 280 c 0,15,16
 140 277 140 277 167.5 249.5 c 128,-1,17
 195 222 195 222 196 165 c 2,18,-1
 196 -51 l 2,19,20
 196 -80 196 -80 209.5 -92.5 c 128,-1,21
 223 -105 223 -105 259 -105 c 2,22,-1
 293 -105 l 1,23,-1
 293 -161 l 1,24,-1
 247 -161 l 2,25,26
 189 -161 189 -161 154.5 -133 c 128,-1,27
 120 -105 120 -105 120 -58 c 2,28,-1
 120 160 l 2,29,30
 120 199 120 199 90.5 227.5 c 128,-1,31
 61 256 61 256 7 256 c 1,32,-1
 7 310 l 1,33,34
 63 310 63 310 91.5 337.5 c 128,-1,35
 120 365 120 365 120 410 c 2,36,-1
 120 623 l 2,37,0
 120 669 120 669 155 696 c 128,-1,1
EndSplineSet
EndChar

StartChar: bar
Encoding: 124 124 95
Width: 258
GlyphClass: 2
Flags: W
LayerCount: 2
Fore
SplineSet
96 -161 m 1,0,-1
 95 826 l 1,1,-1
 163 826 l 1,2,-1
 163 -161 l 1,3,-1
 96 -161 l 1,0,-1
EndSplineSet
EndChar

StartChar: braceright
Encoding: 125 125 96
Width: 327
GlyphClass: 2
Flags: W
LayerCount: 2
Fore
SplineSet
159 696 m 128,-1,1
 124 723 124 723 68 723 c 2,2,-1
 21 723 l 1,3,-1
 21 667 l 1,4,-1
 56 667 l 2,5,6
 92 667 92 667 105 654.5 c 128,-1,7
 118 642 118 642 118 615 c 2,8,-1
 118 401 l 2,9,10
 119 348 119 348 147 319.5 c 128,-1,11
 175 291 175 291 216 287 c 0,12,13
 222 286 222 286 222.5 283.5 c 128,-1,14
 223 281 223 281 216 280 c 0,15,16
 174 277 174 277 146.5 249.5 c 128,-1,17
 119 222 119 222 118 165 c 2,18,-1
 118 -51 l 2,19,20
 118 -80 118 -80 104.5 -92.5 c 128,-1,21
 91 -105 91 -105 55 -105 c 2,22,-1
 21 -105 l 1,23,-1
 21 -161 l 1,24,-1
 67 -161 l 2,25,26
 125 -161 125 -161 159.5 -133 c 128,-1,27
 194 -105 194 -105 194 -58 c 2,28,-1
 194 160 l 2,29,30
 194 199 194 199 223.5 227.5 c 128,-1,31
 253 256 253 256 307 256 c 1,32,-1
 307 310 l 1,33,34
 251 310 251 310 222.5 337.5 c 128,-1,35
 194 365 194 365 194 410 c 2,36,-1
 194 623 l 2,37,0
 194 669 194 669 159 696 c 128,-1,1
EndSplineSet
EndChar

StartChar: asciitilde
Encoding: 126 126 97
Width: 563
GlyphClass: 2
Flags: W
LayerCount: 2
Fore
SplineSet
451.5 327.5 m 128,-1,1
 419 310 419 310 376 310 c 0,2,3
 349 310 349 310 327.5 317 c 128,-1,4
 306 324 306 324 277 337 c 0,5,6
 249 350 249 350 231.5 355.5 c 128,-1,7
 214 361 214 361 192 361 c 0,8,9
 157 361 157 361 132 346 c 128,-1,10
 107 331 107 331 84 305 c 1,11,-1
 59 355 l 1,12,13
 92 388 92 388 121 404.5 c 128,-1,14
 150 421 150 421 191 421 c 0,15,16
 217 421 217 421 239.5 414 c 128,-1,17
 262 407 262 407 289 394 c 0,18,19
 318 381 318 381 336 375.5 c 128,-1,20
 354 370 354 370 376 370 c 0,21,22
 436 370 436 370 475 423 c 1,23,-1
 501 373 l 1,24,0
 484 345 484 345 451.5 327.5 c 128,-1,1
EndSplineSet
EndChar

StartChar: exclamdown
Encoding: 161 161 99
Width: 248
GlyphClass: 2
Flags: W
LayerCount: 2
Fore
SplineSet
71 406 m 1,0,-1
 71 517 l 1,1,-1
 175 517 l 1,2,-1
 175 406 l 1,3,-1
 71 406 l 1,0,-1
72 -161 m 1,4,-1
 94 338 l 1,5,-1
 152 338 l 1,6,-1
 175 -161 l 1,7,-1
 72 -161 l 1,4,-1
EndSplineSet
EndChar

StartChar: cent
Encoding: 162 162 100
Width: 540
GlyphClass: 2
Flags: W
AnchorPoint: "Anchor-1" 288 628 basechar 0
AnchorPoint: "Anchor-0" 289 111 basechar 0
LayerCount: 2
Fore
SplineSet
424 148 m 128,-1,1
 380 110 380 110 318 103 c 1,2,-1
 318 0 l 1,3,-1
 253 0 l 1,4,-1
 253 103 l 1,5,6
 161 116 161 116 107 187 c 128,-1,7
 53 258 53 258 53 367 c 0,8,9
 53 477 53 477 107 550 c 128,-1,10
 161 623 161 623 253 636 c 1,11,-1
 253 723 l 1,12,-1
 318 723 l 1,13,-1
 318 636 l 1,14,15
 434 621 434 621 487 493 c 1,16,-1
 416 479 l 1,17,18
 382 528 382 528 357 548 c 128,-1,19
 332 568 332 568 292 568 c 0,20,21
 220 568 220 568 178 514.5 c 128,-1,22
 136 461 136 461 136 369 c 0,23,24
 136 276 136 276 178.5 221.5 c 128,-1,25
 221 167 221 167 293 167 c 0,26,27
 337 167 337 167 366.5 191.5 c 128,-1,28
 396 216 396 216 422 263 c 1,29,-1
 491 248 l 1,30,0
 468 186 468 186 424 148 c 128,-1,1
EndSplineSet
EndChar

StartChar: sterling
Encoding: 163 163 101
Width: 609
GlyphClass: 2
Flags: W
LayerCount: 2
Fore
SplineSet
14 74 m 1,0,-1
 52 74 l 2,1,2
 93 74 93 74 118 109.5 c 128,-1,3
 143 145 143 145 143 216 c 0,4,5
 143 266 143 266 131 345 c 1,6,-1
 30 345 l 1,7,-1
 30 401 l 1,8,-1
 121 401 l 1,9,-1
 106 482 l 2,10,11
 100 512 100 512 100 538 c 0,12,13
 100 597 100 597 128.5 641.5 c 128,-1,14
 157 686 157 686 204.5 709.5 c 128,-1,15
 252 733 252 733 308 733 c 0,16,17
 377 733 377 733 432 700 c 128,-1,18
 487 667 487 667 508 617 c 1,19,-1
 432 590 l 1,20,21
 414 625 414 625 387.5 642 c 128,-1,22
 361 659 361 659 318 659 c 0,23,24
 265 659 265 659 230 628 c 128,-1,25
 195 597 195 597 195 544 c 0,26,27
 195 487 195 487 219 401 c 1,28,-1
 382 401 l 1,29,-1
 382 345 l 1,30,-1
 227 345 l 1,31,32
 235 289 235 289 235 257 c 0,33,34
 235 239 235 239 234 229 c 0,35,36
 231 130 231 130 176 75 c 1,37,-1
 355 75 l 2,38,39
 407 75 407 75 437.5 93.5 c 128,-1,40
 468 112 468 112 485 157 c 1,41,-1
 559 137 l 1,42,43
 512 0 512 0 359 0 c 2,44,-1
 14 0 l 1,45,-1
 14 74 l 1,0,-1
EndSplineSet
EndChar

StartChar: currency
Encoding: 164 164 102
Width: 532
GlyphClass: 2
Flags: W
LayerCount: 2
Fore
SplineSet
161 207 m 0,0,1
 154 212 154 212 148 206 c 2,2,-1
 95 151 l 1,3,-1
 52 196 l 1,4,-1
 111 254 l 1,5,6
 77 303 77 303 77 364 c 0,7,8
 77 419 77 419 107 465 c 0,9,10
 112 473 112 473 106 479 c 2,11,-1
 53 532 l 1,12,-1
 96 576 l 1,13,-1
 155 515 l 1,14,15
 202 550 202 550 263 550 c 0,16,17
 322 550 322 550 366 519 c 0,18,19
 374 516 374 516 378 520 c 2,20,-1
 432 574 l 1,21,-1
 474 530 l 1,22,-1
 416 472 l 1,23,24
 450 422 450 422 450 364 c 0,25,26
 450 304 450 304 420 262 c 0,27,28
 415 256 415 256 420 251 c 2,29,-1
 475 198 l 1,30,-1
 433 155 l 1,31,-1
 374 213 l 1,32,33
 323 176 323 176 265 176 c 128,-1,34
 207 176 207 176 161 207 c 0,0,1
351 279 m 128,-1,36
 386 315 386 315 386 364 c 0,37,38
 386 396 386 396 370 424 c 128,-1,39
 354 452 354 452 326.5 468.5 c 128,-1,40
 299 485 299 485 265 485 c 128,-1,41
 231 485 231 485 203.5 468.5 c 128,-1,42
 176 452 176 452 160 424 c 128,-1,43
 144 396 144 396 144 364 c 0,44,45
 144 315 144 315 179 279 c 128,-1,46
 214 243 214 243 265 243 c 128,-1,35
 316 243 316 243 351 279 c 128,-1,36
EndSplineSet
EndChar

StartChar: yen
Encoding: 165 165 103
Width: 603
GlyphClass: 2
Flags: W
LayerCount: 2
Fore
SplineSet
364 337 m 1,0,-1
 506 337 l 1,1,-1
 506 282 l 1,2,-1
 353 282 l 1,3,-1
 353 192 l 1,4,-1
 506 192 l 1,5,-1
 506 136 l 1,6,-1
 353 136 l 1,7,-1
 353 0 l 1,8,-1
 255 0 l 1,9,-1
 255 136 l 1,10,-1
 102 136 l 1,11,-1
 102 191 l 1,12,-1
 255 191 l 1,13,-1
 255 281 l 1,14,-1
 102 281 l 1,15,-1
 102 337 l 1,16,-1
 234 337 l 1,17,-1
 5 723 l 1,18,-1
 116 723 l 1,19,-1
 311 387 l 1,20,-1
 506 723 l 1,21,-1
 598 723 l 1,22,-1
 364 337 l 1,0,-1
EndSplineSet
EndChar

StartChar: brokenbar
Encoding: 166 166 104
Width: 258
GlyphClass: 2
Flags: W
LayerCount: 2
Fore
SplineSet
96 426 m 1,0,-1
 95 826 l 1,1,-1
 163 826 l 1,2,-1
 163 426 l 1,3,-1
 96 426 l 1,0,-1
96 -161 m 1,4,-1
 95 239 l 1,5,-1
 163 239 l 1,6,-1
 163 -161 l 1,7,-1
 96 -161 l 1,4,-1
EndSplineSet
EndChar

StartChar: section
Encoding: 167 167 105
Width: 484
GlyphClass: 2
Flags: W
LayerCount: 2
Fore
SplineSet
120 -39 m 128,-1,1
 62 -7 62 -7 35 45 c 1,2,-1
 92 75 l 1,3,4
 117 37 117 37 157 13.5 c 128,-1,5
 197 -10 197 -10 249 -10 c 0,6,7
 300 -10 300 -10 331 9.5 c 128,-1,8
 362 29 362 29 362 64 c 0,9,10
 362 91 362 91 340.5 113.5 c 128,-1,11
 319 136 319 136 263 158 c 2,12,-1
 176 191 l 2,13,14
 109 217 109 217 78.5 252 c 128,-1,15
 48 287 48 287 48 336 c 0,16,17
 48 381 48 381 75 414.5 c 128,-1,18
 102 448 102 448 147 466 c 1,19,20
 92 495 92 495 71.5 525.5 c 128,-1,21
 51 556 51 556 51 595 c 128,-1,22
 51 634 51 634 74 665.5 c 128,-1,23
 97 697 97 697 139 715 c 128,-1,24
 181 733 181 733 236 733 c 0,25,26
 300 733 300 733 350.5 704 c 128,-1,27
 401 675 401 675 428 632 c 1,28,-1
 370 601 l 1,29,30
 314 672 314 672 241 672 c 0,31,32
 190 672 190 672 160.5 653 c 128,-1,33
 131 634 131 634 131 602 c 0,34,35
 131 578 131 578 149.5 558 c 128,-1,36
 168 538 168 538 212 521 c 2,37,-1
 295 487 l 2,38,39
 372 456 372 456 406.5 417.5 c 128,-1,40
 441 379 441 379 441 327 c 0,41,42
 441 281 441 281 416.5 250.5 c 128,-1,43
 392 220 392 220 350 199 c 1,44,45
 397 173 397 173 420 142.5 c 128,-1,46
 443 112 443 112 443 72 c 0,47,48
 443 9 443 9 390 -31 c 128,-1,49
 337 -71 337 -71 249 -71 c 0,50,0
 178 -71 178 -71 120 -39 c 128,-1,1
336.5 255 m 128,-1,52
 364 279 364 279 364 313 c 128,-1,53
 364 347 364 347 345.5 369.5 c 128,-1,54
 327 392 327 392 277 412 c 2,55,-1
 222 433 l 1,56,57
 181 430 181 430 152 404.5 c 128,-1,58
 123 379 123 379 123 347 c 0,59,60
 123 318 123 318 141 299.5 c 128,-1,61
 159 281 159 281 212 260 c 2,62,-1
 272 234 l 1,63,51
 309 231 309 231 336.5 255 c 128,-1,52
EndSplineSet
EndChar

StartChar: dieresis
Encoding: 168 168 106
Width: 256
GlyphClass: 2
Flags: W
LayerCount: 2
Fore
SplineSet
96 615 m 1,0,-1
 12 615 l 1,1,-1
 12 723 l 1,2,-1
 96 723 l 1,3,-1
 96 615 l 1,0,-1
242 615 m 1,4,-1
 158 615 l 1,5,-1
 158 723 l 1,6,-1
 242 723 l 1,7,-1
 242 615 l 1,4,-1
EndSplineSet
EndChar

StartChar: copyright
Encoding: 169 169 107
Width: 816
GlyphClass: 2
Flags: W
LayerCount: 2
Fore
SplineSet
220.5 39.5 m 128,-1,1
 135 89 135 89 85 174.5 c 128,-1,2
 35 260 35 260 35 362 c 0,3,4
 35 462 35 462 85 547.5 c 128,-1,5
 135 633 135 633 220.5 683 c 128,-1,6
 306 733 306 733 407 733 c 0,7,8
 507 733 507 733 592.5 683 c 128,-1,9
 678 633 678 633 728 547.5 c 128,-1,10
 778 462 778 462 778 362 c 0,11,12
 778 260 778 260 728 175 c 128,-1,13
 678 90 678 90 593 40 c 128,-1,14
 508 -10 508 -10 407 -10 c 128,-1,0
 306 -10 306 -10 220.5 39.5 c 128,-1,1
561.5 89 m 128,-1,16
 632 128 632 128 673.5 199 c 128,-1,17
 715 270 715 270 715 362 c 0,18,19
 715 453 715 453 673.5 524.5 c 128,-1,20
 632 596 632 596 561.5 635.5 c 128,-1,21
 491 675 491 675 407 675 c 0,22,23
 321 675 321 675 251 635.5 c 128,-1,24
 181 596 181 596 140 524.5 c 128,-1,25
 99 453 99 453 99 362 c 0,26,27
 99 269 99 269 139.5 198 c 128,-1,28
 180 127 180 127 250.5 88.5 c 128,-1,29
 321 50 321 50 407 50 c 0,30,15
 491 50 491 50 561.5 89 c 128,-1,16
507 542.5 m 128,-1,32
 548 512 548 512 573 464 c 1,33,-1
 509 448 l 1,34,35
 469 518 469 518 412 518 c 0,36,37
 359 518 359 518 326.5 476.5 c 128,-1,38
 294 435 294 435 294 365 c 0,39,40
 294 293 294 293 327 251.5 c 128,-1,41
 360 210 360 210 414 210 c 0,42,43
 451 210 451 210 479 230.5 c 128,-1,44
 507 251 507 251 526 287 c 1,45,-1
 575 268 l 1,46,47
 550 220 550 220 508.5 188 c 128,-1,48
 467 156 467 156 409 156 c 0,49,50
 353 156 353 156 310 182 c 128,-1,51
 267 208 267 208 243 255 c 128,-1,52
 219 302 219 302 219 363 c 128,-1,53
 219 424 219 424 243.5 472 c 128,-1,54
 268 520 268 520 311 546.5 c 128,-1,55
 354 573 354 573 409 573 c 0,56,31
 466 573 466 573 507 542.5 c 128,-1,32
EndSplineSet
EndChar

StartChar: ordfeminine
Encoding: 170 170 108
Width: 417
GlyphClass: 2
Flags: W
LayerCount: 2
Fore
SplineSet
78.5 420 m 128,-1,1
 50 444 50 444 50 486 c 0,2,3
 50 533 50 533 91.5 561.5 c 128,-1,4
 133 590 133 590 211 595 c 2,5,-1
 268 599 l 1,6,-1
 268 623 l 2,7,8
 268 655 268 655 248.5 670.5 c 128,-1,9
 229 686 229 686 194 686 c 0,10,11
 166 686 166 686 146.5 675.5 c 128,-1,12
 127 665 127 665 111 638 c 1,13,-1
 57 653 l 1,14,15
 94 731 94 731 198 731 c 0,16,17
 262 731 262 731 294.5 702.5 c 128,-1,18
 327 674 327 674 327 623 c 2,19,-1
 327 506 l 2,20,21
 327 468 327 468 331 439 c 2,22,-1
 337 402 l 1,23,-1
 275 402 l 1,24,-1
 267 445 l 1,25,26
 240 419 240 419 215 407.5 c 128,-1,27
 190 396 190 396 158 396 c 0,28,0
 107 396 107 396 78.5 420 c 128,-1,1
244 465 m 0,29,30
 268 486 268 486 268 506 c 2,31,-1
 268 560 l 1,32,-1
 221 556 l 2,33,34
 167 552 167 552 139.5 535 c 128,-1,35
 112 518 112 518 112 489 c 0,36,37
 112 466 112 466 130 452.5 c 128,-1,38
 148 439 148 439 178 439 c 0,39,40
 216 439 216 439 244 465 c 0,29,30
EndSplineSet
EndChar

StartChar: guillemotleft
Encoding: 171 171 109
Width: 446
GlyphClass: 2
Flags: W
LayerCount: 2
Fore
SplineSet
219 71 m 1,0,-1
 170 71 l 1,1,-1
 38 251 l 1,2,-1
 171 439 l 1,3,-1
 220 439 l 1,4,-1
 117 251 l 1,5,-1
 219 71 l 1,0,-1
394 71 m 1,6,-1
 345 71 l 1,7,-1
 213 251 l 1,8,-1
 346 439 l 1,9,-1
 395 439 l 1,10,-1
 292 251 l 1,11,-1
 394 71 l 1,6,-1
EndSplineSet
EndChar

StartChar: logicalnot
Encoding: 172 172 110
Width: 551
GlyphClass: 2
Flags: W
LayerCount: 2
Fore
SplineSet
488 397 m 1,0,-1
 488 187 l 1,1,-1
 416 187 l 1,2,-1
 415 330 l 1,3,-1
 61 329 l 1,4,-1
 61 397 l 1,5,-1
 488 397 l 1,0,-1
EndSplineSet
EndChar

StartChar: uni00AD
Encoding: 173 173 111
Width: 369
GlyphClass: 2
Flags: W
LayerCount: 2
Fore
SplineSet
319 224 m 1,0,-1
 68 224 l 1,1,-1
 68 292 l 1,2,-1
 319 293 l 1,3,-1
 319 224 l 1,0,-1
EndSplineSet
EndChar

StartChar: registered
Encoding: 174 174 112
Width: 538
GlyphClass: 2
Flags: W
LayerCount: 2
Fore
SplineSet
150.5 299 m 128,-1,1
 97 330 97 330 66 383 c 128,-1,2
 35 436 35 436 35 500 c 128,-1,3
 35 564 35 564 66 617 c 128,-1,4
 97 670 97 670 150.5 701.5 c 128,-1,5
 204 733 204 733 268 733 c 0,6,7
 331 733 331 733 384.5 701.5 c 128,-1,8
 438 670 438 670 469 616.5 c 128,-1,9
 500 563 500 563 500 500 c 128,-1,10
 500 437 500 437 469 383.5 c 128,-1,11
 438 330 438 330 384.5 299 c 128,-1,12
 331 268 331 268 268 268 c 0,13,0
 204 268 204 268 150.5 299 c 128,-1,1
401.5 364 m 128,-1,15
 453 415 453 415 453 500 c 0,16,17
 453 556 453 556 429.5 599 c 128,-1,18
 406 642 406 642 364 665.5 c 128,-1,19
 322 689 322 689 268 689 c 0,20,21
 185 689 185 689 133.5 637 c 128,-1,22
 82 585 82 585 82 500 c 128,-1,23
 82 415 82 415 133 364 c 128,-1,24
 184 313 184 313 268 313 c 0,25,14
 350 313 350 313 401.5 364 c 128,-1,15
179 614 m 1,26,-1
 283 614 l 2,27,28
 321 614 321 614 341.5 599 c 128,-1,29
 362 584 362 584 362 556 c 0,30,31
 362 531 362 531 348 516 c 128,-1,32
 334 501 334 501 313 494 c 1,33,-1
 358 383 l 1,34,-1
 313 383 l 1,35,-1
 274 490 l 1,36,-1
 221 490 l 1,37,-1
 221 383 l 1,38,-1
 179 383 l 1,39,-1
 179 614 l 1,26,-1
278 523 m 2,40,41
 319 523 319 523 319 552 c 128,-1,42
 319 581 319 581 275 581 c 2,43,-1
 221 581 l 1,44,-1
 221 523 l 1,45,-1
 278 523 l 2,40,41
EndSplineSet
EndChar

StartChar: macron
Encoding: 175 175 113
Width: 319
GlyphClass: 2
Flags: W
LayerCount: 2
Fore
SplineSet
304 648 m 1,0,-1
 12 648 l 1,1,-1
 12 710 l 1,2,-1
 304 710 l 1,3,-1
 304 648 l 1,0,-1
EndSplineSet
EndChar

StartChar: degree
Encoding: 176 176 114
Width: 459
GlyphClass: 2
Flags: W
LayerCount: 2
Fore
SplineSet
363 600.5 m 128,-1,1
 343 565 343 565 307.5 545 c 128,-1,2
 272 525 272 525 228 525 c 0,3,4
 161 525 161 525 117 569 c 128,-1,5
 73 613 73 613 73 680 c 0,6,7
 73 748 73 748 117 792.5 c 128,-1,8
 161 837 161 837 228 837 c 0,9,10
 272 837 272 837 307.5 816.5 c 128,-1,11
 343 796 343 796 363 760.5 c 128,-1,12
 383 725 383 725 383 680 c 0,13,0
 383 636 383 636 363 600.5 c 128,-1,1
295.5 751 m 128,-1,15
 270 778 270 778 226 778 c 0,16,17
 184 778 184 778 158 751 c 128,-1,18
 132 724 132 724 132 681 c 0,19,20
 132 636 132 636 157.5 608.5 c 128,-1,21
 183 581 183 581 227 581 c 0,22,23
 270 581 270 581 295.5 608 c 128,-1,24
 321 635 321 635 321 679 c 0,25,14
 321 724 321 724 295.5 751 c 128,-1,15
EndSplineSet
EndChar

StartChar: plusminus
Encoding: 177 177 115
Width: 551
GlyphClass: 2
Flags: W
LayerCount: 2
Fore
SplineSet
488 473 m 1,0,-1
 488 405 l 1,1,-1
 308 405 l 1,2,-1
 308 226 l 1,3,-1
 242 226 l 1,4,-1
 242 405 l 1,5,-1
 61 405 l 1,6,-1
 61 472 l 1,7,-1
 241 472 l 1,8,-1
 241 653 l 1,9,-1
 308 653 l 1,10,-1
 308 473 l 1,11,-1
 488 473 l 1,0,-1
61 128 m 1,12,-1
 488 129 l 1,13,-1
 488 62 l 1,14,-1
 61 61 l 1,15,-1
 61 128 l 1,12,-1
EndSplineSet
EndChar

StartChar: uni00B2
Encoding: 178 178 116
Width: 377
GlyphClass: 2
Flags: W
LayerCount: 2
Fore
SplineSet
15 432 m 1,0,-1
 162 575 l 2,1,2
 216 626 216 626 236.5 655.5 c 128,-1,3
 257 685 257 685 257 717 c 0,4,5
 257 757 257 757 230 777 c 128,-1,6
 203 797 203 797 167 797 c 0,7,8
 133 797 133 797 105 781.5 c 128,-1,9
 77 766 77 766 61 732 c 1,10,-1
 13 745 l 1,11,12
 30 793 30 793 70 819 c 128,-1,13
 110 845 110 845 169 845 c 0,14,15
 232 845 232 845 272.5 811.5 c 128,-1,16
 313 778 313 778 313 719 c 0,17,18
 313 679 313 679 292.5 646 c 128,-1,19
 272 613 272 613 217 558 c 2,20,-1
 91 432 l 1,21,-1
 318 432 l 1,22,-1
 318 384 l 1,23,-1
 15 384 l 1,24,-1
 15 432 l 1,0,-1
EndSplineSet
EndChar

StartChar: uni00B3
Encoding: 179 179 117
Width: 392
GlyphClass: 2
Flags: W
LayerCount: 2
Fore
SplineSet
96 823 m 128,-1,1
 140 845 140 845 195 845 c 0,2,3
 263 845 263 845 306.5 812.5 c 128,-1,4
 350 780 350 780 350 730 c 0,5,6
 350 657 350 657 262 626 c 1,7,8
 309 614 309 614 336.5 583.5 c 128,-1,9
 364 553 364 553 364 510 c 0,10,11
 364 452 364 452 315 415 c 128,-1,12
 266 378 266 378 189 378 c 0,13,14
 127 378 127 378 86.5 398.5 c 128,-1,15
 46 419 46 419 24 468 c 1,16,-1
 73 480 l 1,17,18
 112 424 112 424 188 424 c 0,19,20
 242 424 242 424 273 447.5 c 128,-1,21
 304 471 304 471 304 509 c 0,22,23
 304 550 304 550 270 574 c 128,-1,24
 236 598 236 598 190 598 c 2,25,-1
 129 598 l 1,26,-1
 129 644 l 1,27,-1
 180 645 l 2,28,29
 228 646 228 646 260 669 c 128,-1,30
 292 692 292 692 292 727 c 0,31,32
 292 758 292 758 263.5 779 c 128,-1,33
 235 800 235 800 194 800 c 0,34,35
 118 800 118 800 86 744 c 1,36,-1
 38 756 l 1,37,0
 52 801 52 801 96 823 c 128,-1,1
EndSplineSet
EndChar

StartChar: acute
Encoding: 180 180 118
Width: 286
GlyphClass: 2
Flags: W
LayerCount: 2
Fore
SplineSet
275 665 m 1,0,-1
 24 591 l 1,1,-1
 10 636 l 1,2,-1
 253 732 l 1,3,-1
 275 665 l 1,0,-1
EndSplineSet
EndChar

StartChar: paragraph
Encoding: 182 182 119
Width: 566
GlyphClass: 2
Flags: W
LayerCount: 2
Fore
SplineSet
426 670 m 1,0,-1
 426 -83 l 1,1,-1
 368 -83 l 1,2,-1
 368 670 l 1,3,-1
 318 670 l 1,4,-1
 318 -83 l 1,5,-1
 260 -83 l 1,6,-1
 260 297 l 1,7,8
 197 299 197 299 149 326.5 c 128,-1,9
 101 354 101 354 75 400.5 c 128,-1,10
 49 447 49 447 49 504 c 0,11,12
 49 562 49 562 75.5 612 c 128,-1,13
 102 662 102 662 153.5 692.5 c 128,-1,14
 205 723 205 723 278 723 c 2,15,-1
 486 723 l 1,16,-1
 486 670 l 1,17,-1
 426 670 l 1,0,-1
EndSplineSet
EndChar

StartChar: periodcentered
Encoding: 183 183 120
Width: 208
GlyphClass: 2
Flags: W
LayerCount: 2
Fore
SplineSet
157 311 m 1,0,-1
 47 311 l 1,1,-1
 47 417 l 1,2,-1
 157 417 l 1,3,-1
 157 311 l 1,0,-1
EndSplineSet
EndChar

StartChar: cedilla
Encoding: 184 184 121
Width: 225
GlyphClass: 2
Flags: W
LayerCount: 2
Fore
SplineSet
179.5 -184.5 m 128,-1,1
 149 -205 149 -205 103 -205 c 0,2,3
 47 -205 47 -205 11 -180 c 1,4,-1
 25 -143 l 1,5,6
 55 -166 55 -166 93 -166 c 0,7,8
 147 -166 147 -166 147 -129 c 0,9,10
 147 -107 147 -107 128.5 -96.5 c 128,-1,11
 110 -86 110 -86 68 -85 c 0,12,13
 59 -85 59 -85 62 -78 c 2,14,-1
 99 5 l 1,15,-1
 145 5 l 1,16,-1
 122 -56 l 1,17,18
 168 -58 168 -58 189 -79 c 128,-1,19
 210 -100 210 -100 210 -128 c 0,20,0
 210 -164 210 -164 179.5 -184.5 c 128,-1,1
EndSplineSet
EndChar

StartChar: uni00B9
Encoding: 185 185 122
Width: 294
GlyphClass: 2
Flags: W
LayerCount: 2
Fore
SplineSet
87 771 m 1,0,-1
 -2 740 l 1,1,-1
 -2 781 l 1,2,-1
 106 835 l 1,3,-1
 143 835 l 1,4,-1
 143 380 l 1,5,-1
 87 380 l 1,6,-1
 87 771 l 1,0,-1
EndSplineSet
EndChar

StartChar: ordmasculine
Encoding: 186 186 123
Width: 410
GlyphClass: 2
Flags: W
LayerCount: 2
Fore
SplineSet
318 685.5 m 128,-1,1
 361 639 361 639 361 563 c 0,2,3
 361 489 361 489 318.5 443 c 128,-1,4
 276 397 276 397 204 397 c 128,-1,5
 132 397 132 397 90.5 443 c 128,-1,6
 49 489 49 489 49 563 c 0,7,8
 49 639 49 639 91.5 685.5 c 128,-1,9
 134 732 134 732 204 732 c 0,10,0
 275 732 275 732 318 685.5 c 128,-1,1
137 654 m 128,-1,12
 114 622 114 622 114 566 c 0,13,14
 114 508 114 508 137 475.5 c 128,-1,15
 160 443 160 443 204 443 c 0,16,17
 249 443 249 443 272.5 475 c 128,-1,18
 296 507 296 507 296 566 c 0,19,20
 296 623 296 623 272.5 654.5 c 128,-1,21
 249 686 249 686 204 686 c 0,22,11
 160 686 160 686 137 654 c 128,-1,12
EndSplineSet
EndChar

StartChar: guillemotright
Encoding: 187 187 124
Width: 445
GlyphClass: 2
Flags: W
LayerCount: 2
Fore
SplineSet
48 439 m 1,0,-1
 97 439 l 1,1,-1
 229 251 l 1,2,-1
 97 71 l 1,3,-1
 49 71 l 1,4,-1
 151 251 l 1,5,-1
 48 439 l 1,0,-1
222 439 m 1,6,-1
 272 439 l 1,7,-1
 404 251 l 1,8,-1
 272 71 l 1,9,-1
 224 71 l 1,10,-1
 326 251 l 1,11,-1
 222 439 l 1,6,-1
EndSplineSet
EndChar

StartChar: onequarter
Encoding: 188 188 125
Width: 950
GlyphClass: 2
Flags: W
LayerCount: 2
Fore
SplineSet
87 667 m 1,0,-1
 -2 636 l 1,1,-1
 -2 677 l 1,2,-1
 106 731 l 1,3,-1
 143 731 l 1,4,-1
 143 276 l 1,5,-1
 87 276 l 1,6,-1
 87 667 l 1,0,-1
202 -4 m 1,7,-1
 142 -3 l 1,8,-1
 630 731 l 1,9,-1
 688 731 l 1,10,-1
 202 -4 l 1,7,-1
828 455 m 1,11,-1
 828 167 l 1,12,-1
 899 167 l 1,13,-1
 899 118 l 1,14,-1
 828 118 l 1,15,-1
 828 0 l 1,16,-1
 774 0 l 1,17,-1
 775 118 l 1,18,-1
 562 118 l 1,19,-1
 562 169 l 1,20,-1
 773 455 l 1,21,-1
 828 455 l 1,11,-1
773 167 m 1,22,-1
 773 375 l 1,23,-1
 618 167 l 1,24,-1
 773 167 l 1,22,-1
EndSplineSet
EndChar

StartChar: onehalf
Encoding: 189 189 126
Width: 919
GlyphClass: 2
Flags: W
LayerCount: 2
Fore
SplineSet
87 667 m 1,0,-1
 -2 636 l 1,1,-1
 -2 677 l 1,2,-1
 106 731 l 1,3,-1
 143 731 l 1,4,-1
 143 276 l 1,5,-1
 87 276 l 1,6,-1
 87 667 l 1,0,-1
202 -4 m 1,7,-1
 142 -3 l 1,8,-1
 630 731 l 1,9,-1
 688 731 l 1,10,-1
 202 -4 l 1,7,-1
557 48 m 1,11,-1
 704 191 l 2,12,13
 741 226 741 226 760.5 248.5 c 128,-1,14
 780 271 780 271 789.5 291 c 128,-1,15
 799 311 799 311 799 333 c 0,16,17
 799 373 799 373 771.5 393 c 128,-1,18
 744 413 744 413 709 413 c 0,19,20
 675 413 675 413 647 397.5 c 128,-1,21
 619 382 619 382 603 348 c 1,22,-1
 555 361 l 1,23,24
 573 409 573 409 613 435 c 128,-1,25
 653 461 653 461 711 461 c 0,26,27
 753 461 753 461 785.5 446 c 128,-1,28
 818 431 818 431 836.5 402.5 c 128,-1,29
 855 374 855 374 855 334 c 0,30,31
 855 307 855 307 845.5 284 c 128,-1,32
 836 261 836 261 816 236 c 128,-1,33
 796 211 796 211 759 174 c 2,34,-1
 633 48 l 1,35,-1
 860 48 l 1,36,-1
 860 0 l 1,37,-1
 557 0 l 1,38,-1
 557 48 l 1,11,-1
EndSplineSet
EndChar

StartChar: threequarters
Encoding: 190 190 127
Width: 1048
GlyphClass: 2
Flags: W
LayerCount: 2
Fore
SplineSet
96 718 m 128,-1,1
 140 740 140 740 195 740 c 0,2,3
 263 740 263 740 306.5 707.5 c 128,-1,4
 350 675 350 675 350 625 c 0,5,6
 350 552 350 552 262 521 c 1,7,8
 309 509 309 509 336.5 478.5 c 128,-1,9
 364 448 364 448 364 405 c 0,10,11
 364 347 364 347 315 310 c 128,-1,12
 266 273 266 273 189 273 c 0,13,14
 127 273 127 273 86.5 293.5 c 128,-1,15
 46 314 46 314 24 363 c 1,16,-1
 73 375 l 1,17,18
 112 319 112 319 188 319 c 0,19,20
 242 319 242 319 273 342.5 c 128,-1,21
 304 366 304 366 304 404 c 0,22,23
 304 445 304 445 270 469 c 128,-1,24
 236 493 236 493 190 493 c 2,25,-1
 129 493 l 1,26,-1
 129 539 l 1,27,-1
 180 540 l 2,28,29
 228 541 228 541 260 564 c 128,-1,30
 292 587 292 587 292 622 c 0,31,32
 292 653 292 653 263.5 674 c 128,-1,33
 235 695 235 695 194 695 c 0,34,35
 118 695 118 695 86 639 c 1,36,-1
 38 651 l 1,37,0
 52 696 52 696 96 718 c 128,-1,1
300 -4 m 1,38,-1
 240 -3 l 1,39,-1
 728 731 l 1,40,-1
 786 731 l 1,41,-1
 300 -4 l 1,38,-1
926 455 m 1,42,-1
 926 167 l 1,43,-1
 997 167 l 1,44,-1
 997 118 l 1,45,-1
 926 118 l 1,46,-1
 926 0 l 1,47,-1
 872 0 l 1,48,-1
 873 118 l 1,49,-1
 660 118 l 1,50,-1
 660 169 l 1,51,-1
 871 455 l 1,52,-1
 926 455 l 1,42,-1
871 167 m 1,53,-1
 871 375 l 1,54,-1
 716 167 l 1,55,-1
 871 167 l 1,53,-1
EndSplineSet
EndChar

StartChar: questiondown
Encoding: 191 191 128
Width: 513
GlyphClass: 2
Flags: W
LayerCount: 2
Fore
SplineSet
215 517 m 1,0,-1
 319 517 l 1,1,-1
 319 406 l 1,2,-1
 215 406 l 1,3,-1
 215 517 l 1,0,-1
391 -133.5 m 128,-1,5
 329 -171 329 -171 249 -171 c 0,6,7
 147 -171 147 -171 88.5 -122.5 c 128,-1,8
 30 -74 30 -74 30 4 c 0,9,10
 30 42 30 42 43.5 71.5 c 128,-1,11
 57 101 57 101 77 121.5 c 128,-1,12
 97 142 97 142 130 170 c 0,13,14
 164 199 164 199 183.5 219.5 c 128,-1,15
 203 240 203 240 216.5 270 c 128,-1,16
 230 300 230 300 230 339 c 1,17,-1
 304 339 l 1,18,19
 304 291 304 291 289 255 c 128,-1,20
 274 219 274 219 253 195 c 128,-1,21
 232 171 232 171 198 139 c 0,22,23
 157 102 157 102 137.5 74.5 c 128,-1,24
 118 47 118 47 118 7 c 0,25,26
 118 -43 118 -43 154 -73 c 128,-1,27
 190 -103 190 -103 250 -103 c 0,28,29
 300 -103 300 -103 346 -74.5 c 128,-1,30
 392 -46 392 -46 408 -4 c 1,31,-1
 485 -29 l 1,32,4
 453 -96 453 -96 391 -133.5 c 128,-1,5
EndSplineSet
EndChar

StartChar: Agrave
Encoding: 192 192 129
Width: 696
GlyphClass: 2
Flags: W
AnchorPoint: "Anchor-5" 0 0 basechar 0
AnchorPoint: "Anchor-4" 0 0 basechar 0
AnchorPoint: "Anchor-3" 353 723 basechar 0
AnchorPoint: "Anchor-2" 653 10 basechar 0
LayerCount: 2
Fore
SplineSet
299 723 m 1,0,-1
 398 723 l 1,1,-1
 659 0 l 1,2,-1
 572 0 l 1,3,-1
 499 202 l 1,4,-1
 199 202 l 1,5,-1
 125 0 l 1,6,-1
 37 0 l 1,7,-1
 299 723 l 1,0,-1
475 282 m 1,8,-1
 349 638 l 1,9,-1
 221 282 l 1,10,-1
 475 282 l 1,8,-1
473 842 m 1,11,-1
 458 797 l 1,12,-1
 208 871 l 1,13,-1
 230 938 l 1,14,-1
 473 842 l 1,11,-1
EndSplineSet
EndChar

StartChar: Aacute
Encoding: 193 193 130
Width: 696
GlyphClass: 2
Flags: W
AnchorPoint: "Anchor-5" 0 0 basechar 0
AnchorPoint: "Anchor-4" 0 0 basechar 0
AnchorPoint: "Anchor-3" 353 723 basechar 0
AnchorPoint: "Anchor-2" 653 10 basechar 0
LayerCount: 2
Fore
SplineSet
299 723 m 1,0,-1
 398 723 l 1,1,-1
 659 0 l 1,2,-1
 572 0 l 1,3,-1
 499 202 l 1,4,-1
 199 202 l 1,5,-1
 125 0 l 1,6,-1
 37 0 l 1,7,-1
 299 723 l 1,0,-1
475 282 m 1,8,-1
 349 638 l 1,9,-1
 221 282 l 1,10,-1
 475 282 l 1,8,-1
486 871 m 1,11,-1
 235 797 l 1,12,-1
 221 842 l 1,13,-1
 464 938 l 1,14,-1
 486 871 l 1,11,-1
EndSplineSet
EndChar

StartChar: Acircumflex
Encoding: 194 194 131
Width: 696
GlyphClass: 2
Flags: W
AnchorPoint: "Anchor-5" 0 0 basechar 0
AnchorPoint: "Anchor-4" 0 0 basechar 0
AnchorPoint: "Anchor-3" 353 723 basechar 0
AnchorPoint: "Anchor-2" 653 10 basechar 0
LayerCount: 2
Fore
SplineSet
299 723 m 1,0,-1
 398 723 l 1,1,-1
 659 0 l 1,2,-1
 572 0 l 1,3,-1
 499 202 l 1,4,-1
 199 202 l 1,5,-1
 125 0 l 1,6,-1
 37 0 l 1,7,-1
 299 723 l 1,0,-1
475 282 m 1,8,-1
 349 638 l 1,9,-1
 221 282 l 1,10,-1
 475 282 l 1,8,-1
353 886 m 1,11,-1
 277 820 l 1,12,-1
 198 820 l 1,13,-1
 323 932 l 1,14,-1
 385 932 l 1,15,-1
 507 820 l 1,16,-1
 423 820 l 1,17,-1
 353 886 l 1,11,-1
EndSplineSet
EndChar

StartChar: Atilde
Encoding: 195 195 132
Width: 696
GlyphClass: 2
Flags: W
AnchorPoint: "Anchor-5" 0 0 basechar 0
AnchorPoint: "Anchor-4" 0 0 basechar 0
AnchorPoint: "Anchor-3" 353 723 basechar 0
AnchorPoint: "Anchor-2" 653 10 basechar 0
LayerCount: 2
Fore
SplineSet
299 723 m 1,0,-1
 398 723 l 1,1,-1
 659 0 l 1,2,-1
 572 0 l 1,3,-1
 499 202 l 1,4,-1
 199 202 l 1,5,-1
 125 0 l 1,6,-1
 37 0 l 1,7,-1
 299 723 l 1,0,-1
475 282 m 1,8,-1
 349 638 l 1,9,-1
 221 282 l 1,10,-1
 475 282 l 1,8,-1
417 843 m 0,11,12
 398 843 398 843 383.5 846.5 c 128,-1,13
 369 850 369 850 349 857 c 0,14,15
 336 862 336 862 321.5 865.5 c 128,-1,16
 307 869 307 869 292 869 c 0,17,18
 276 869 276 869 265 865 c 128,-1,19
 254 861 254 861 245 855.5 c 128,-1,20
 236 850 236 850 233 848 c 0,21,22
 229 845 229 845 226 845 c 0,23,24
 222 845 222 845 219 853 c 2,25,-1
 210 880 l 2,26,27
 208 884 208 884 208 886 c 0,28,29
 208 890 208 890 213 894 c 0,30,31
 233 909 233 909 249 916.5 c 128,-1,32
 265 924 265 924 288 924 c 0,33,34
 305 924 305 924 320 920.5 c 128,-1,35
 335 917 335 917 357 910 c 0,36,37
 394 897 394 897 418 897 c 0,38,39
 435 897 435 897 447.5 902 c 128,-1,40
 460 907 460 907 475 916 c 0,41,42
 479 919 479 919 483 919 c 128,-1,43
 487 919 487 919 490 912 c 2,44,-1
 500 880 l 1,45,-1
 501 876 l 2,46,47
 501 872 501 872 497 869 c 128,-1,48
 493 866 493 866 492 865 c 0,49,50
 461 843 461 843 417 843 c 0,11,12
EndSplineSet
EndChar

StartChar: Adieresis
Encoding: 196 196 133
Width: 696
GlyphClass: 2
Flags: W
AnchorPoint: "Anchor-5" 0 0 basechar 0
AnchorPoint: "Anchor-4" 0 0 basechar 0
AnchorPoint: "Anchor-3" 353 723 basechar 0
AnchorPoint: "Anchor-2" 653 10 basechar 0
LayerCount: 2
Fore
SplineSet
299 723 m 1,0,-1
 398 723 l 1,1,-1
 659 0 l 1,2,-1
 572 0 l 1,3,-1
 499 202 l 1,4,-1
 199 202 l 1,5,-1
 125 0 l 1,6,-1
 37 0 l 1,7,-1
 299 723 l 1,0,-1
475 282 m 1,8,-1
 349 638 l 1,9,-1
 221 282 l 1,10,-1
 475 282 l 1,8,-1
322 821 m 1,11,-1
 238 821 l 1,12,-1
 238 929 l 1,13,-1
 322 929 l 1,14,-1
 322 821 l 1,11,-1
468 821 m 1,15,-1
 384 821 l 1,16,-1
 384 929 l 1,17,-1
 468 929 l 1,18,-1
 468 821 l 1,15,-1
EndSplineSet
EndChar

StartChar: Aring
Encoding: 197 197 134
Width: 696
GlyphClass: 2
Flags: W
AnchorPoint: "Anchor-5" 0 0 basechar 0
AnchorPoint: "Anchor-4" 0 0 basechar 0
AnchorPoint: "Anchor-3" 353 723 basechar 0
AnchorPoint: "Anchor-2" 653 10 basechar 0
LayerCount: 2
Fore
SplineSet
299 723 m 1,0,-1
 398 723 l 1,1,-1
 659 0 l 1,2,-1
 572 0 l 1,3,-1
 499 202 l 1,4,-1
 199 202 l 1,5,-1
 125 0 l 1,6,-1
 37 0 l 1,7,-1
 299 723 l 1,0,-1
475 282 m 1,8,-1
 349 638 l 1,9,-1
 221 282 l 1,10,-1
 475 282 l 1,8,-1
426.5 813.5 m 128,-1,12
 397 784 397 784 353 784 c 0,13,14
 310 784 310 784 280.5 814 c 128,-1,15
 251 844 251 844 251 888 c 0,16,17
 251 929 251 929 281 958 c 128,-1,18
 311 987 311 987 353 987 c 0,19,20
 396 987 396 987 426 957.5 c 128,-1,21
 456 928 456 928 456 886 c 0,22,11
 456 843 456 843 426.5 813.5 c 128,-1,12
390.5 924 m 128,-1,24
 375 939 375 939 352 939 c 0,25,26
 330 939 330 939 314 923.5 c 128,-1,27
 298 908 298 908 298 885 c 0,28,29
 298 863 298 863 314 846.5 c 128,-1,30
 330 830 330 830 352 830 c 128,-1,31
 374 830 374 830 390 846.5 c 128,-1,32
 406 863 406 863 406 885 c 0,33,23
 406 909 406 909 390.5 924 c 128,-1,24
EndSplineSet
EndChar

StartChar: AE
Encoding: 198 198 135
Width: 1007
GlyphClass: 2
Flags: W
AnchorPoint: "Anchor-5" 0 0 basechar 0
AnchorPoint: "Anchor-4" 0 0 basechar 0
AnchorPoint: "Anchor-3" 676 723 basechar 0
AnchorPoint: "Anchor-2" 0 0 basechar 0
LayerCount: 2
Fore
SplineSet
942 0 m 1,0,-1
 487 0 l 1,1,-1
 487 204 l 1,2,-1
 239 204 l 1,3,-1
 125 0 l 1,4,-1
 37 0 l 1,5,-1
 439 723 l 1,6,-1
 930 723 l 1,7,-1
 930 648 l 1,8,-1
 585 648 l 1,9,-1
 585 402 l 1,10,-1
 843 402 l 1,11,-1
 843 328 l 1,12,-1
 585 328 l 1,13,-1
 585 75 l 1,14,-1
 942 75 l 1,15,-1
 942 0 l 1,0,-1
487 660 m 1,16,-1
 273 282 l 1,17,-1
 487 282 l 1,18,-1
 487 660 l 1,16,-1
EndSplineSet
EndChar

StartChar: Ccedilla
Encoding: 199 199 136
Width: 681
GlyphClass: 2
Flags: W
AnchorPoint: "Anchor-5" 0 0 basechar 0
AnchorPoint: "Anchor-4" 360 0 basechar 0
AnchorPoint: "Anchor-3" 360 723 basechar 0
AnchorPoint: "Anchor-2" 0 0 basechar 0
LayerCount: 2
Fore
SplineSet
489 704 m 128,-1,1
 549 675 549 675 585 625.5 c 128,-1,2
 621 576 621 576 628 516 c 1,3,-1
 537 511 l 1,4,5
 524 578 524 578 477.5 618 c 128,-1,6
 431 658 431 658 353 658 c 0,7,8
 252 658 252 658 200 584 c 128,-1,9
 148 510 148 510 148 362 c 0,10,11
 148 215 148 215 201 140.5 c 128,-1,12
 254 66 254 66 359 66 c 0,13,14
 426 66 426 66 473.5 105 c 128,-1,15
 521 144 521 144 535 210 c 1,16,-1
 625 202 l 1,17,18
 618 143 618 143 584 94.5 c 128,-1,19
 550 46 550 46 492 18 c 128,-1,20
 434 -10 434 -10 360 -10 c 0,21,22
 263 -10 263 -10 194 35 c 128,-1,23
 125 80 125 80 89 164 c 128,-1,24
 53 248 53 248 53 363 c 128,-1,25
 53 478 53 478 88.5 561.5 c 128,-1,26
 124 645 124 645 191.5 689 c 128,-1,27
 259 733 259 733 354 733 c 0,28,0
 429 733 429 733 489 704 c 128,-1,1
419.5 -184.5 m 128,-1,30
 389 -205 389 -205 343 -205 c 0,31,32
 287 -205 287 -205 251 -180 c 1,33,-1
 265 -143 l 1,34,35
 295 -166 295 -166 333 -166 c 0,36,37
 387 -166 387 -166 387 -129 c 0,38,39
 387 -107 387 -107 368.5 -96.5 c 128,-1,40
 350 -86 350 -86 308 -85 c 0,41,42
 299 -85 299 -85 302 -78 c 2,43,-1
 339 5 l 1,44,-1
 385 5 l 1,45,-1
 362 -56 l 1,46,47
 408 -58 408 -58 429 -79 c 128,-1,48
 450 -100 450 -100 450 -128 c 0,49,29
 450 -164 450 -164 419.5 -184.5 c 128,-1,30
EndSplineSet
EndChar

StartChar: Egrave
Encoding: 200 200 137
Width: 621
GlyphClass: 2
Flags: W
AnchorPoint: "Anchor-5" 0 0 basechar 0
AnchorPoint: "Anchor-4" 343 0 basechar 0
AnchorPoint: "Anchor-3" 331 723 basechar 0
AnchorPoint: "Anchor-2" 549 10 basechar 0
LayerCount: 2
Fore
SplineSet
95 723 m 1,0,-1
 546 723 l 1,1,-1
 546 647 l 1,2,-1
 181 647 l 1,3,-1
 181 403 l 1,4,-1
 511 403 l 1,5,-1
 511 327 l 1,6,-1
 181 327 l 1,7,-1
 181 78 l 1,8,-1
 556 77 l 1,9,-1
 556 0 l 1,10,-1
 95 0 l 1,11,-1
 95 723 l 1,0,-1
451 842 m 1,12,-1
 436 797 l 1,13,-1
 186 871 l 1,14,-1
 208 938 l 1,15,-1
 451 842 l 1,12,-1
EndSplineSet
EndChar

StartChar: Eacute
Encoding: 201 201 138
Width: 621
GlyphClass: 2
Flags: W
AnchorPoint: "Anchor-5" 0 0 basechar 0
AnchorPoint: "Anchor-4" 343 0 basechar 0
AnchorPoint: "Anchor-3" 331 723 basechar 0
AnchorPoint: "Anchor-2" 549 10 basechar 0
LayerCount: 2
Fore
SplineSet
95 723 m 1,0,-1
 546 723 l 1,1,-1
 546 647 l 1,2,-1
 181 647 l 1,3,-1
 181 403 l 1,4,-1
 511 403 l 1,5,-1
 511 327 l 1,6,-1
 181 327 l 1,7,-1
 181 78 l 1,8,-1
 556 77 l 1,9,-1
 556 0 l 1,10,-1
 95 0 l 1,11,-1
 95 723 l 1,0,-1
464 871 m 1,12,-1
 213 797 l 1,13,-1
 199 842 l 1,14,-1
 442 938 l 1,15,-1
 464 871 l 1,12,-1
EndSplineSet
EndChar

StartChar: Ecircumflex
Encoding: 202 202 139
Width: 621
GlyphClass: 2
Flags: W
AnchorPoint: "Anchor-5" 0 0 basechar 0
AnchorPoint: "Anchor-4" 343 0 basechar 0
AnchorPoint: "Anchor-3" 331 723 basechar 0
AnchorPoint: "Anchor-2" 549 10 basechar 0
LayerCount: 2
Fore
SplineSet
95 723 m 1,0,-1
 546 723 l 1,1,-1
 546 647 l 1,2,-1
 181 647 l 1,3,-1
 181 403 l 1,4,-1
 511 403 l 1,5,-1
 511 327 l 1,6,-1
 181 327 l 1,7,-1
 181 78 l 1,8,-1
 556 77 l 1,9,-1
 556 0 l 1,10,-1
 95 0 l 1,11,-1
 95 723 l 1,0,-1
331 886 m 1,12,-1
 255 820 l 1,13,-1
 176 820 l 1,14,-1
 301 932 l 1,15,-1
 363 932 l 1,16,-1
 485 820 l 1,17,-1
 401 820 l 1,18,-1
 331 886 l 1,12,-1
EndSplineSet
EndChar

StartChar: Edieresis
Encoding: 203 203 140
Width: 621
GlyphClass: 2
Flags: W
AnchorPoint: "Anchor-5" 0 0 basechar 0
AnchorPoint: "Anchor-4" 343 0 basechar 0
AnchorPoint: "Anchor-3" 331 723 basechar 0
AnchorPoint: "Anchor-2" 549 10 basechar 0
LayerCount: 2
Fore
SplineSet
95 723 m 1,0,-1
 546 723 l 1,1,-1
 546 647 l 1,2,-1
 181 647 l 1,3,-1
 181 403 l 1,4,-1
 511 403 l 1,5,-1
 511 327 l 1,6,-1
 181 327 l 1,7,-1
 181 78 l 1,8,-1
 556 77 l 1,9,-1
 556 0 l 1,10,-1
 95 0 l 1,11,-1
 95 723 l 1,0,-1
300 821 m 1,12,-1
 216 821 l 1,13,-1
 216 929 l 1,14,-1
 300 929 l 1,15,-1
 300 821 l 1,12,-1
446 821 m 1,16,-1
 362 821 l 1,17,-1
 362 929 l 1,18,-1
 446 929 l 1,19,-1
 446 821 l 1,16,-1
EndSplineSet
EndChar

StartChar: Igrave
Encoding: 204 204 141
Width: 276
GlyphClass: 2
Flags: W
AnchorPoint: "Anchor-5" 0 0 basechar 0
AnchorPoint: "Anchor-4" 142 0 basechar 0
AnchorPoint: "Anchor-3" 141 723 basechar 0
AnchorPoint: "Anchor-2" 169 8 basechar 0
LayerCount: 2
Fore
SplineSet
181 723 m 1,0,-1
 181 0 l 1,1,-1
 95 0 l 1,2,-1
 95 723 l 1,3,-1
 181 723 l 1,0,-1
261 842 m 1,4,-1
 246 797 l 1,5,-1
 -4 871 l 1,6,-1
 18 938 l 1,7,-1
 261 842 l 1,4,-1
EndSplineSet
EndChar

StartChar: Iacute
Encoding: 205 205 142
Width: 276
GlyphClass: 2
Flags: W
AnchorPoint: "Anchor-5" 0 0 basechar 0
AnchorPoint: "Anchor-4" 142 0 basechar 0
AnchorPoint: "Anchor-3" 141 723 basechar 0
AnchorPoint: "Anchor-2" 169 8 basechar 0
LayerCount: 2
Fore
SplineSet
181 723 m 1,0,-1
 181 0 l 1,1,-1
 95 0 l 1,2,-1
 95 723 l 1,3,-1
 181 723 l 1,0,-1
274 871 m 1,4,-1
 23 797 l 1,5,-1
 9 842 l 1,6,-1
 252 938 l 1,7,-1
 274 871 l 1,4,-1
EndSplineSet
EndChar

StartChar: Icircumflex
Encoding: 206 206 143
Width: 276
GlyphClass: 2
Flags: W
AnchorPoint: "Anchor-5" 0 0 basechar 0
AnchorPoint: "Anchor-4" 142 0 basechar 0
AnchorPoint: "Anchor-3" 141 723 basechar 0
AnchorPoint: "Anchor-2" 169 8 basechar 0
LayerCount: 2
Fore
SplineSet
181 723 m 1,0,-1
 181 0 l 1,1,-1
 95 0 l 1,2,-1
 95 723 l 1,3,-1
 181 723 l 1,0,-1
141 886 m 1,4,-1
 65 820 l 1,5,-1
 -14 820 l 1,6,-1
 111 932 l 1,7,-1
 173 932 l 1,8,-1
 295 820 l 1,9,-1
 211 820 l 1,10,-1
 141 886 l 1,4,-1
EndSplineSet
EndChar

StartChar: Idieresis
Encoding: 207 207 144
Width: 276
GlyphClass: 2
Flags: W
AnchorPoint: "Anchor-5" 0 0 basechar 0
AnchorPoint: "Anchor-4" 142 0 basechar 0
AnchorPoint: "Anchor-3" 141 723 basechar 0
AnchorPoint: "Anchor-2" 169 8 basechar 0
LayerCount: 2
Fore
SplineSet
181 723 m 1,0,-1
 181 0 l 1,1,-1
 95 0 l 1,2,-1
 95 723 l 1,3,-1
 181 723 l 1,0,-1
110 821 m 1,4,-1
 26 821 l 1,5,-1
 26 929 l 1,6,-1
 110 929 l 1,7,-1
 110 821 l 1,4,-1
256 821 m 1,8,-1
 172 821 l 1,9,-1
 172 929 l 1,10,-1
 256 929 l 1,11,-1
 256 821 l 1,8,-1
EndSplineSet
EndChar

StartChar: Eth
Encoding: 208 208 145
Width: 694
GlyphClass: 2
Flags: W
AnchorPoint: "Anchor-5" 0 0 basechar 0
AnchorPoint: "Anchor-4" 0 0 basechar 0
AnchorPoint: "Anchor-3" 346 723 basechar 0
AnchorPoint: "Anchor-2" 0 0 basechar 0
LayerCount: 2
Fore
SplineSet
552 631 m 128,-1,1
 642 542 642 542 642 366 c 0,2,3
 642 183 642 183 547 91.5 c 128,-1,4
 452 0 452 0 256 0 c 2,5,-1
 104 0 l 1,6,-1
 104 327 l 1,7,-1
 48 327 l 2,8,9
 39 327 39 327 36 330 c 128,-1,10
 33 333 33 333 33 341 c 2,11,-1
 33 384 l 2,12,13
 33 396 33 396 43 396 c 2,14,-1
 104 396 l 1,15,-1
 104 723 l 1,16,17
 205 723 205 723 266 722 c 0,18,0
 462 720 462 720 552 631 c 128,-1,1
477 143 m 128,-1,20
 552 211 552 211 552 364 c 0,21,22
 552 518 552 518 478.5 583 c 128,-1,23
 405 648 405 648 260 648 c 2,24,-1
 193 648 l 1,25,-1
 193 396 l 1,26,-1
 352 396 l 2,27,28
 362 396 362 396 362 385 c 2,29,-1
 362 342 l 2,30,31
 362 327 362 327 344 327 c 2,32,-1
 193 327 l 1,33,-1
 193 75 l 1,34,-1
 256 75 l 2,35,19
 402 75 402 75 477 143 c 128,-1,20
EndSplineSet
EndChar

StartChar: Ntilde
Encoding: 209 209 146
Width: 746
GlyphClass: 2
Flags: W
AnchorPoint: "Anchor-5" 0 0 basechar 0
AnchorPoint: "Anchor-4" 356 0 basechar 0
AnchorPoint: "Anchor-3" 383 723 basechar 0
AnchorPoint: "Anchor-2" 0 0 basechar 0
LayerCount: 2
Fore
SplineSet
651 723 m 1,0,-1
 651 0 l 1,1,-1
 575 0 l 1,2,-1
 181 579 l 1,3,-1
 181 0 l 1,4,-1
 95 0 l 1,5,-1
 95 723 l 1,6,-1
 176 723 l 1,7,-1
 565 151 l 1,8,-1
 565 723 l 1,9,-1
 651 723 l 1,0,-1
447 843 m 0,10,11
 428 843 428 843 413.5 846.5 c 128,-1,12
 399 850 399 850 379 857 c 0,13,14
 366 862 366 862 351.5 865.5 c 128,-1,15
 337 869 337 869 322 869 c 0,16,17
 306 869 306 869 295 865 c 128,-1,18
 284 861 284 861 275 855.5 c 128,-1,19
 266 850 266 850 263 848 c 0,20,21
 259 845 259 845 256 845 c 0,22,23
 252 845 252 845 249 853 c 2,24,-1
 240 880 l 2,25,26
 238 884 238 884 238 886 c 0,27,28
 238 890 238 890 243 894 c 0,29,30
 263 909 263 909 279 916.5 c 128,-1,31
 295 924 295 924 318 924 c 0,32,33
 335 924 335 924 350 920.5 c 128,-1,34
 365 917 365 917 387 910 c 0,35,36
 424 897 424 897 448 897 c 0,37,38
 465 897 465 897 477.5 902 c 128,-1,39
 490 907 490 907 505 916 c 0,40,41
 509 919 509 919 513 919 c 128,-1,42
 517 919 517 919 520 912 c 2,43,-1
 530 880 l 1,44,-1
 531 876 l 2,45,46
 531 872 531 872 527 869 c 128,-1,47
 523 866 523 866 522 865 c 0,48,49
 491 843 491 843 447 843 c 0,10,11
EndSplineSet
EndChar

StartChar: Ograve
Encoding: 210 210 147
Width: 727
GlyphClass: 2
Flags: W
AnchorPoint: "Anchor-5" 0 0 basechar 0
AnchorPoint: "Anchor-4" 366 0 basechar 0
AnchorPoint: "Anchor-3" 365 723 basechar 0
AnchorPoint: "Anchor-2" 440 9 basechar 0
LayerCount: 2
Fore
SplineSet
198 33 m 128,-1,1
 128 76 128 76 90.5 159 c 128,-1,2
 53 242 53 242 53 359 c 0,3,4
 53 477 53 477 91 561 c 128,-1,5
 129 645 129 645 199 689 c 128,-1,6
 269 733 269 733 365 733 c 0,7,8
 460 733 460 733 529.5 689 c 128,-1,9
 599 645 599 645 636.5 561.5 c 128,-1,10
 674 478 674 478 674 360 c 0,11,12
 674 243 674 243 636.5 160 c 128,-1,13
 599 77 599 77 529.5 33.5 c 128,-1,14
 460 -10 460 -10 364 -10 c 128,-1,0
 268 -10 268 -10 198 33 c 128,-1,1
525 138 m 128,-1,16
 580 210 580 210 580 359 c 0,17,18
 580 510 580 510 524.5 584 c 128,-1,19
 469 658 469 658 365 658 c 0,20,21
 260 658 260 658 203.5 583.5 c 128,-1,22
 147 509 147 509 147 359 c 0,23,24
 147 211 147 211 203.5 138.5 c 128,-1,25
 260 66 260 66 365 66 c 128,-1,15
 470 66 470 66 525 138 c 128,-1,16
485 842 m 1,26,-1
 470 797 l 1,27,-1
 220 871 l 1,28,-1
 242 938 l 1,29,-1
 485 842 l 1,26,-1
EndSplineSet
EndChar

StartChar: Oacute
Encoding: 211 211 148
Width: 727
GlyphClass: 2
Flags: W
AnchorPoint: "Anchor-5" 0 0 basechar 0
AnchorPoint: "Anchor-4" 366 0 basechar 0
AnchorPoint: "Anchor-3" 365 723 basechar 0
AnchorPoint: "Anchor-2" 440 9 basechar 0
LayerCount: 2
Fore
SplineSet
198 33 m 128,-1,1
 128 76 128 76 90.5 159 c 128,-1,2
 53 242 53 242 53 359 c 0,3,4
 53 477 53 477 91 561 c 128,-1,5
 129 645 129 645 199 689 c 128,-1,6
 269 733 269 733 365 733 c 0,7,8
 460 733 460 733 529.5 689 c 128,-1,9
 599 645 599 645 636.5 561.5 c 128,-1,10
 674 478 674 478 674 360 c 0,11,12
 674 243 674 243 636.5 160 c 128,-1,13
 599 77 599 77 529.5 33.5 c 128,-1,14
 460 -10 460 -10 364 -10 c 128,-1,0
 268 -10 268 -10 198 33 c 128,-1,1
525 138 m 128,-1,16
 580 210 580 210 580 359 c 0,17,18
 580 510 580 510 524.5 584 c 128,-1,19
 469 658 469 658 365 658 c 0,20,21
 260 658 260 658 203.5 583.5 c 128,-1,22
 147 509 147 509 147 359 c 0,23,24
 147 211 147 211 203.5 138.5 c 128,-1,25
 260 66 260 66 365 66 c 128,-1,15
 470 66 470 66 525 138 c 128,-1,16
498 871 m 1,26,-1
 247 797 l 1,27,-1
 233 842 l 1,28,-1
 476 938 l 1,29,-1
 498 871 l 1,26,-1
EndSplineSet
EndChar

StartChar: Ocircumflex
Encoding: 212 212 149
Width: 727
GlyphClass: 2
Flags: W
AnchorPoint: "Anchor-5" 0 0 basechar 0
AnchorPoint: "Anchor-4" 366 0 basechar 0
AnchorPoint: "Anchor-3" 365 723 basechar 0
AnchorPoint: "Anchor-2" 440 9 basechar 0
LayerCount: 2
Fore
SplineSet
198 33 m 128,-1,1
 128 76 128 76 90.5 159 c 128,-1,2
 53 242 53 242 53 359 c 0,3,4
 53 477 53 477 91 561 c 128,-1,5
 129 645 129 645 199 689 c 128,-1,6
 269 733 269 733 365 733 c 0,7,8
 460 733 460 733 529.5 689 c 128,-1,9
 599 645 599 645 636.5 561.5 c 128,-1,10
 674 478 674 478 674 360 c 0,11,12
 674 243 674 243 636.5 160 c 128,-1,13
 599 77 599 77 529.5 33.5 c 128,-1,14
 460 -10 460 -10 364 -10 c 128,-1,0
 268 -10 268 -10 198 33 c 128,-1,1
525 138 m 128,-1,16
 580 210 580 210 580 359 c 0,17,18
 580 510 580 510 524.5 584 c 128,-1,19
 469 658 469 658 365 658 c 0,20,21
 260 658 260 658 203.5 583.5 c 128,-1,22
 147 509 147 509 147 359 c 0,23,24
 147 211 147 211 203.5 138.5 c 128,-1,25
 260 66 260 66 365 66 c 128,-1,15
 470 66 470 66 525 138 c 128,-1,16
365 886 m 1,26,-1
 289 820 l 1,27,-1
 210 820 l 1,28,-1
 335 932 l 1,29,-1
 397 932 l 1,30,-1
 519 820 l 1,31,-1
 435 820 l 1,32,-1
 365 886 l 1,26,-1
EndSplineSet
EndChar

StartChar: Otilde
Encoding: 213 213 150
Width: 727
GlyphClass: 2
Flags: W
AnchorPoint: "Anchor-5" 0 0 basechar 0
AnchorPoint: "Anchor-4" 366 0 basechar 0
AnchorPoint: "Anchor-3" 365 723 basechar 0
AnchorPoint: "Anchor-2" 440 9 basechar 0
LayerCount: 2
Fore
SplineSet
198 33 m 128,-1,1
 128 76 128 76 90.5 159 c 128,-1,2
 53 242 53 242 53 359 c 0,3,4
 53 477 53 477 91 561 c 128,-1,5
 129 645 129 645 199 689 c 128,-1,6
 269 733 269 733 365 733 c 0,7,8
 460 733 460 733 529.5 689 c 128,-1,9
 599 645 599 645 636.5 561.5 c 128,-1,10
 674 478 674 478 674 360 c 0,11,12
 674 243 674 243 636.5 160 c 128,-1,13
 599 77 599 77 529.5 33.5 c 128,-1,14
 460 -10 460 -10 364 -10 c 128,-1,0
 268 -10 268 -10 198 33 c 128,-1,1
525 138 m 128,-1,16
 580 210 580 210 580 359 c 0,17,18
 580 510 580 510 524.5 584 c 128,-1,19
 469 658 469 658 365 658 c 0,20,21
 260 658 260 658 203.5 583.5 c 128,-1,22
 147 509 147 509 147 359 c 0,23,24
 147 211 147 211 203.5 138.5 c 128,-1,25
 260 66 260 66 365 66 c 128,-1,15
 470 66 470 66 525 138 c 128,-1,16
429 843 m 0,26,27
 410 843 410 843 395.5 846.5 c 128,-1,28
 381 850 381 850 361 857 c 0,29,30
 348 862 348 862 333.5 865.5 c 128,-1,31
 319 869 319 869 304 869 c 0,32,33
 288 869 288 869 277 865 c 128,-1,34
 266 861 266 861 257 855.5 c 128,-1,35
 248 850 248 850 245 848 c 0,36,37
 241 845 241 845 238 845 c 0,38,39
 234 845 234 845 231 853 c 2,40,-1
 222 880 l 2,41,42
 220 884 220 884 220 886 c 0,43,44
 220 890 220 890 225 894 c 0,45,46
 245 909 245 909 261 916.5 c 128,-1,47
 277 924 277 924 300 924 c 0,48,49
 317 924 317 924 332 920.5 c 128,-1,50
 347 917 347 917 369 910 c 0,51,52
 406 897 406 897 430 897 c 0,53,54
 447 897 447 897 459.5 902 c 128,-1,55
 472 907 472 907 487 916 c 0,56,57
 491 919 491 919 495 919 c 128,-1,58
 499 919 499 919 502 912 c 2,59,-1
 512 880 l 1,60,-1
 513 876 l 2,61,62
 513 872 513 872 509 869 c 128,-1,63
 505 866 505 866 504 865 c 0,64,65
 473 843 473 843 429 843 c 0,26,27
EndSplineSet
EndChar

StartChar: Odieresis
Encoding: 214 214 151
Width: 727
GlyphClass: 2
Flags: W
AnchorPoint: "Anchor-5" 0 0 basechar 0
AnchorPoint: "Anchor-4" 366 0 basechar 0
AnchorPoint: "Anchor-3" 365 723 basechar 0
AnchorPoint: "Anchor-2" 440 9 basechar 0
LayerCount: 2
Fore
SplineSet
198 33 m 128,-1,1
 128 76 128 76 90.5 159 c 128,-1,2
 53 242 53 242 53 359 c 0,3,4
 53 477 53 477 91 561 c 128,-1,5
 129 645 129 645 199 689 c 128,-1,6
 269 733 269 733 365 733 c 0,7,8
 460 733 460 733 529.5 689 c 128,-1,9
 599 645 599 645 636.5 561.5 c 128,-1,10
 674 478 674 478 674 360 c 0,11,12
 674 243 674 243 636.5 160 c 128,-1,13
 599 77 599 77 529.5 33.5 c 128,-1,14
 460 -10 460 -10 364 -10 c 128,-1,0
 268 -10 268 -10 198 33 c 128,-1,1
525 138 m 128,-1,16
 580 210 580 210 580 359 c 0,17,18
 580 510 580 510 524.5 584 c 128,-1,19
 469 658 469 658 365 658 c 0,20,21
 260 658 260 658 203.5 583.5 c 128,-1,22
 147 509 147 509 147 359 c 0,23,24
 147 211 147 211 203.5 138.5 c 128,-1,25
 260 66 260 66 365 66 c 128,-1,15
 470 66 470 66 525 138 c 128,-1,16
334 821 m 1,26,-1
 250 821 l 1,27,-1
 250 929 l 1,28,-1
 334 929 l 1,29,-1
 334 821 l 1,26,-1
480 821 m 1,30,-1
 396 821 l 1,31,-1
 396 929 l 1,32,-1
 480 929 l 1,33,-1
 480 821 l 1,30,-1
EndSplineSet
EndChar

StartChar: multiply
Encoding: 215 215 152
Width: 535
GlyphClass: 2
Flags: W
LayerCount: 2
Fore
SplineSet
314 364 m 1,0,-1
 471 207 l 1,1,-1
 423 158 l 1,2,-1
 266 315 l 1,3,-1
 110 158 l 1,4,-1
 62 207 l 1,5,-1
 218 363 l 1,6,-1
 61 520 l 1,7,-1
 109 568 l 1,8,-1
 266 411 l 1,9,-1
 423 569 l 1,10,-1
 471 522 l 1,11,-1
 314 364 l 1,0,-1
EndSplineSet
EndChar

StartChar: Oslash
Encoding: 216 216 153
Width: 720
GlyphClass: 2
Flags: W
AnchorPoint: "Anchor-5" 0 0 basechar 0
AnchorPoint: "Anchor-4" 0 0 basechar 0
AnchorPoint: "Anchor-3" 359 723 basechar 0
AnchorPoint: "Anchor-2" 0 0 basechar 0
LayerCount: 2
Fore
SplineSet
699 689 m 0,0,1
 699 685 699 685 696 682 c 2,2,-1
 616 592 l 1,3,4
 669 503 669 503 669 360 c 0,5,6
 669 243 669 243 631.5 160 c 128,-1,7
 594 77 594 77 524.5 33.5 c 128,-1,8
 455 -10 455 -10 359 -10 c 0,9,10
 223 -10 223 -10 144 74 c 1,11,-1
 77 0 l 2,12,13
 71 -8 71 -8 65 -8 c 0,14,15
 61 -8 61 -8 52 -1 c 2,16,-1
 28 22 l 2,17,18
 20 30 20 30 20 34 c 0,19,20
 20 36 20 36 24 42 c 2,21,-1
 101 128 l 1,22,23
 48 220 48 220 48 359 c 0,24,25
 48 477 48 477 86 561 c 128,-1,26
 124 645 124 645 194 689 c 128,-1,27
 264 733 264 733 360 733 c 0,28,29
 494 733 494 733 575 647 c 1,30,-1
 645 725 l 2,31,32
 656 736 656 736 663 728 c 2,33,-1
 696 697 l 2,34,35
 699 694 699 694 699 689 c 0,0,1
178 206 m 1,36,-1
 514 584 l 1,37,38
 463 659 463 659 360 659 c 0,39,40
 255 659 255 659 203.5 585 c 128,-1,41
 152 511 152 511 152 359 c 0,42,43
 152 267 152 267 178 206 c 1,36,-1
539 514 m 1,44,-1
 204 137 l 1,45,46
 255 65 255 65 360 65 c 0,47,48
 464 65 464 65 514.5 136.5 c 128,-1,49
 565 208 565 208 565 359 c 0,50,51
 565 451 565 451 539 514 c 1,44,-1
EndSplineSet
EndChar

StartChar: Ugrave
Encoding: 217 217 154
Width: 713
GlyphClass: 2
Flags: W
AnchorPoint: "Anchor-5" 0 0 basechar 0
AnchorPoint: "Anchor-4" 0 0 basechar 0
AnchorPoint: "Anchor-3" 353 723 basechar 0
AnchorPoint: "Anchor-2" 429 10 basechar 0
LayerCount: 2
Fore
SplineSet
554.5 55 m 128,-1,1
 491 -10 491 -10 356 -10 c 0,2,3
 220 -10 220 -10 157.5 57 c 128,-1,4
 95 124 95 124 95 257 c 2,5,-1
 95 723 l 1,6,-1
 184 723 l 1,7,-1
 184 243 l 2,8,9
 184 155 184 155 228 110.5 c 128,-1,10
 272 66 272 66 356 66 c 0,11,12
 441 66 441 66 486 110 c 128,-1,13
 531 154 531 154 531 243 c 2,14,-1
 531 723 l 1,15,-1
 618 723 l 1,16,-1
 618 247 l 2,17,0
 618 120 618 120 554.5 55 c 128,-1,1
473 842 m 1,18,-1
 458 797 l 1,19,-1
 208 871 l 1,20,-1
 230 938 l 1,21,-1
 473 842 l 1,18,-1
EndSplineSet
EndChar

StartChar: Uacute
Encoding: 218 218 155
Width: 713
GlyphClass: 2
Flags: W
AnchorPoint: "Anchor-5" 0 0 basechar 0
AnchorPoint: "Anchor-4" 0 0 basechar 0
AnchorPoint: "Anchor-3" 353 723 basechar 0
AnchorPoint: "Anchor-2" 429 10 basechar 0
LayerCount: 2
Fore
SplineSet
554.5 55 m 128,-1,1
 491 -10 491 -10 356 -10 c 0,2,3
 220 -10 220 -10 157.5 57 c 128,-1,4
 95 124 95 124 95 257 c 2,5,-1
 95 723 l 1,6,-1
 184 723 l 1,7,-1
 184 243 l 2,8,9
 184 155 184 155 228 110.5 c 128,-1,10
 272 66 272 66 356 66 c 0,11,12
 441 66 441 66 486 110 c 128,-1,13
 531 154 531 154 531 243 c 2,14,-1
 531 723 l 1,15,-1
 618 723 l 1,16,-1
 618 247 l 2,17,0
 618 120 618 120 554.5 55 c 128,-1,1
486 871 m 1,18,-1
 235 797 l 1,19,-1
 221 842 l 1,20,-1
 464 938 l 1,21,-1
 486 871 l 1,18,-1
EndSplineSet
EndChar

StartChar: Ucircumflex
Encoding: 219 219 156
Width: 713
GlyphClass: 2
Flags: W
AnchorPoint: "Anchor-5" 0 0 basechar 0
AnchorPoint: "Anchor-4" 0 0 basechar 0
AnchorPoint: "Anchor-3" 353 723 basechar 0
AnchorPoint: "Anchor-2" 429 10 basechar 0
LayerCount: 2
Fore
SplineSet
554.5 55 m 128,-1,1
 491 -10 491 -10 356 -10 c 0,2,3
 220 -10 220 -10 157.5 57 c 128,-1,4
 95 124 95 124 95 257 c 2,5,-1
 95 723 l 1,6,-1
 184 723 l 1,7,-1
 184 243 l 2,8,9
 184 155 184 155 228 110.5 c 128,-1,10
 272 66 272 66 356 66 c 0,11,12
 441 66 441 66 486 110 c 128,-1,13
 531 154 531 154 531 243 c 2,14,-1
 531 723 l 1,15,-1
 618 723 l 1,16,-1
 618 247 l 2,17,0
 618 120 618 120 554.5 55 c 128,-1,1
353 886 m 1,18,-1
 277 820 l 1,19,-1
 198 820 l 1,20,-1
 323 932 l 1,21,-1
 385 932 l 1,22,-1
 507 820 l 1,23,-1
 423 820 l 1,24,-1
 353 886 l 1,18,-1
EndSplineSet
EndChar

StartChar: Udieresis
Encoding: 220 220 157
Width: 713
GlyphClass: 2
Flags: W
AnchorPoint: "Anchor-5" 0 0 basechar 0
AnchorPoint: "Anchor-4" 0 0 basechar 0
AnchorPoint: "Anchor-3" 353 723 basechar 0
AnchorPoint: "Anchor-2" 429 10 basechar 0
LayerCount: 2
Fore
SplineSet
554.5 55 m 128,-1,1
 491 -10 491 -10 356 -10 c 0,2,3
 220 -10 220 -10 157.5 57 c 128,-1,4
 95 124 95 124 95 257 c 2,5,-1
 95 723 l 1,6,-1
 184 723 l 1,7,-1
 184 243 l 2,8,9
 184 155 184 155 228 110.5 c 128,-1,10
 272 66 272 66 356 66 c 0,11,12
 441 66 441 66 486 110 c 128,-1,13
 531 154 531 154 531 243 c 2,14,-1
 531 723 l 1,15,-1
 618 723 l 1,16,-1
 618 247 l 2,17,0
 618 120 618 120 554.5 55 c 128,-1,1
322 821 m 1,18,-1
 238 821 l 1,19,-1
 238 929 l 1,20,-1
 322 929 l 1,21,-1
 322 821 l 1,18,-1
468 821 m 1,22,-1
 384 821 l 1,23,-1
 384 929 l 1,24,-1
 468 929 l 1,25,-1
 468 821 l 1,22,-1
EndSplineSet
EndChar

StartChar: Yacute
Encoding: 221 221 158
Width: 590
GlyphClass: 2
Flags: W
AnchorPoint: "Anchor-5" 0 0 basechar 0
AnchorPoint: "Anchor-4" 0 0 basechar 0
AnchorPoint: "Anchor-3" 300 723 basechar 0
AnchorPoint: "Anchor-2" 0 0 basechar 0
LayerCount: 2
Fore
SplineSet
339 308 m 1,0,-1
 339 0 l 1,1,-1
 253 0 l 1,2,-1
 253 309 l 1,3,-1
 7 723 l 1,4,-1
 101 723 l 1,5,-1
 297 386 l 1,6,-1
 489 723 l 1,7,-1
 583 723 l 1,8,-1
 339 308 l 1,0,-1
433 871 m 1,9,-1
 182 797 l 1,10,-1
 168 842 l 1,11,-1
 411 938 l 1,12,-1
 433 871 l 1,9,-1
EndSplineSet
EndChar

StartChar: Thorn
Encoding: 222 222 159
Width: 661
GlyphClass: 2
Flags: W
LayerCount: 2
Fore
SplineSet
559 217.5 m 128,-1,1
 489 165 489 165 371 165 c 2,2,-1
 193 165 l 1,3,-1
 193 0 l 1,4,-1
 95 0 l 1,5,-1
 95 723 l 1,6,-1
 193 723 l 1,7,-1
 193 573 l 1,8,-1
 359 573 l 2,9,10
 481 573 481 573 555 523 c 128,-1,11
 629 473 629 473 629 375 c 0,12,0
 629 270 629 270 559 217.5 c 128,-1,1
354 499 m 2,13,-1
 193 499 l 1,14,-1
 193 239 l 1,15,-1
 361 239 l 2,16,17
 440 239 440 239 484 273 c 128,-1,18
 528 307 528 307 528 376 c 0,19,20
 528 499 528 499 354 499 c 2,13,-1
EndSplineSet
EndChar

StartChar: germandbls
Encoding: 223 223 160
Width: 600
GlyphClass: 2
Flags: W
LayerCount: 2
Fore
SplineSet
444.5 684 m 128,-1,1
 487 645 487 645 487 586 c 0,2,3
 487 550 487 550 472.5 526 c 128,-1,4
 458 502 458 502 434 485.5 c 128,-1,5
 410 469 410 469 369 450 c 0,6,7
 334 431 334 431 322.5 421 c 128,-1,8
 311 411 311 411 311 394 c 128,-1,9
 311 377 311 377 322 369 c 128,-1,10
 333 361 333 361 367 350 c 0,11,12
 426 328 426 328 461.5 310 c 128,-1,13
 497 292 497 292 525.5 255 c 128,-1,14
 554 218 554 218 554 160 c 0,15,16
 554 79 554 79 499 34.5 c 128,-1,17
 444 -10 444 -10 358 -10 c 0,18,19
 321 -10 321 -10 283.5 -0.5 c 128,-1,20
 246 9 246 9 221 25 c 1,21,-1
 253 83 l 1,22,23
 278 68 278 68 300 60 c 128,-1,24
 322 52 322 52 352 52 c 0,25,26
 408 52 408 52 440.5 78.5 c 128,-1,27
 473 105 473 105 473 152 c 0,28,29
 473 185 473 185 456.5 206.5 c 128,-1,30
 440 228 440 228 415 240.5 c 128,-1,31
 390 253 390 253 348 268 c 0,32,33
 297 286 297 286 269 309 c 128,-1,34
 241 332 241 332 241 379 c 0,35,36
 241 414 241 414 261.5 439 c 128,-1,37
 282 464 282 464 326 489 c 0,38,39
 332 493 332 493 356.5 508 c 128,-1,40
 381 523 381 523 393.5 541.5 c 128,-1,41
 406 560 406 560 406 584 c 0,42,43
 406 619 406 619 380 640 c 128,-1,44
 354 661 354 661 307 661 c 0,45,46
 248 661 248 661 213 625 c 128,-1,47
 178 589 178 589 178 522 c 2,48,-1
 178 0 l 1,49,-1
 93 0 l 1,50,-1
 93 444 l 1,51,-1
 25 444 l 1,52,-1
 25 507 l 1,53,-1
 92 507 l 1,54,55
 94 605 94 605 151.5 664 c 128,-1,56
 209 723 209 723 315 723 c 0,57,0
 402 723 402 723 444.5 684 c 128,-1,1
EndSplineSet
EndChar

StartChar: agrave
Encoding: 224 224 161
Width: 559
GlyphClass: 2
Flags: W
AnchorPoint: "Anchor-5" 0 0 basechar 0
AnchorPoint: "Anchor-4" 0 0 basechar 0
AnchorPoint: "Anchor-3" 279 517 basechar 0
AnchorPoint: "Anchor-2" 467 13 basechar 0
LayerCount: 2
Fore
SplineSet
96.5 30 m 128,-1,1
 50 70 50 70 50 139 c 0,2,3
 50 197 50 197 76 232.5 c 128,-1,4
 102 268 102 268 156.5 286.5 c 128,-1,5
 211 305 211 305 301 310 c 2,6,-1
 396 317 l 1,7,-1
 396 354 l 2,8,9
 396 405 396 405 364.5 434 c 128,-1,10
 333 463 333 463 277 463 c 0,11,12
 187 461 187 461 135 382 c 1,13,-1
 65 396 l 1,14,15
 88 458 88 458 145 492.5 c 128,-1,16
 202 527 202 527 282 527 c 0,17,18
 378 527 378 527 428.5 482.5 c 128,-1,19
 479 438 479 438 479 360 c 2,20,-1
 479 0 l 1,21,-1
 406 0 l 1,22,-1
 400 74 l 1,23,24
 328 -10 328 -10 219 -10 c 0,25,0
 143 -10 143 -10 96.5 30 c 128,-1,1
314.5 70 m 128,-1,27
 350 87 350 87 373 114 c 128,-1,28
 396 141 396 141 396 169 c 2,29,-1
 396 263 l 1,30,-1
 317 257 l 2,31,32
 219 251 219 251 176 227 c 128,-1,33
 133 203 133 203 133 147 c 0,34,35
 133 103 133 103 163.5 78 c 128,-1,36
 194 53 194 53 244 53 c 0,37,26
 279 53 279 53 314.5 70 c 128,-1,27
399 636 m 1,38,-1
 384 591 l 1,39,-1
 134 665 l 1,40,-1
 156 732 l 1,41,-1
 399 636 l 1,38,-1
EndSplineSet
EndChar

StartChar: aacute
Encoding: 225 225 162
Width: 559
GlyphClass: 2
Flags: W
AnchorPoint: "Anchor-5" 0 0 basechar 0
AnchorPoint: "Anchor-4" 0 0 basechar 0
AnchorPoint: "Anchor-3" 279 517 basechar 0
AnchorPoint: "Anchor-2" 467 13 basechar 0
LayerCount: 2
Fore
SplineSet
96.5 30 m 128,-1,1
 50 70 50 70 50 139 c 0,2,3
 50 197 50 197 76 232.5 c 128,-1,4
 102 268 102 268 156.5 286.5 c 128,-1,5
 211 305 211 305 301 310 c 2,6,-1
 396 317 l 1,7,-1
 396 354 l 2,8,9
 396 405 396 405 364.5 434 c 128,-1,10
 333 463 333 463 277 463 c 0,11,12
 187 461 187 461 135 382 c 1,13,-1
 65 396 l 1,14,15
 88 458 88 458 145 492.5 c 128,-1,16
 202 527 202 527 282 527 c 0,17,18
 378 527 378 527 428.5 482.5 c 128,-1,19
 479 438 479 438 479 360 c 2,20,-1
 479 0 l 1,21,-1
 406 0 l 1,22,-1
 400 74 l 1,23,24
 328 -10 328 -10 219 -10 c 0,25,0
 143 -10 143 -10 96.5 30 c 128,-1,1
314.5 70 m 128,-1,27
 350 87 350 87 373 114 c 128,-1,28
 396 141 396 141 396 169 c 2,29,-1
 396 263 l 1,30,-1
 317 257 l 2,31,32
 219 251 219 251 176 227 c 128,-1,33
 133 203 133 203 133 147 c 0,34,35
 133 103 133 103 163.5 78 c 128,-1,36
 194 53 194 53 244 53 c 0,37,26
 279 53 279 53 314.5 70 c 128,-1,27
412 665 m 1,38,-1
 161 591 l 1,39,-1
 147 636 l 1,40,-1
 390 732 l 1,41,-1
 412 665 l 1,38,-1
EndSplineSet
EndChar

StartChar: acircumflex
Encoding: 226 226 163
Width: 559
GlyphClass: 2
Flags: W
AnchorPoint: "Anchor-5" 0 0 basechar 0
AnchorPoint: "Anchor-4" 0 0 basechar 0
AnchorPoint: "Anchor-3" 279 517 basechar 0
AnchorPoint: "Anchor-2" 467 13 basechar 0
LayerCount: 2
Fore
SplineSet
96.5 30 m 128,-1,1
 50 70 50 70 50 139 c 0,2,3
 50 197 50 197 76 232.5 c 128,-1,4
 102 268 102 268 156.5 286.5 c 128,-1,5
 211 305 211 305 301 310 c 2,6,-1
 396 317 l 1,7,-1
 396 354 l 2,8,9
 396 405 396 405 364.5 434 c 128,-1,10
 333 463 333 463 277 463 c 0,11,12
 187 461 187 461 135 382 c 1,13,-1
 65 396 l 1,14,15
 88 458 88 458 145 492.5 c 128,-1,16
 202 527 202 527 282 527 c 0,17,18
 378 527 378 527 428.5 482.5 c 128,-1,19
 479 438 479 438 479 360 c 2,20,-1
 479 0 l 1,21,-1
 406 0 l 1,22,-1
 400 74 l 1,23,24
 328 -10 328 -10 219 -10 c 0,25,0
 143 -10 143 -10 96.5 30 c 128,-1,1
314.5 70 m 128,-1,27
 350 87 350 87 373 114 c 128,-1,28
 396 141 396 141 396 169 c 2,29,-1
 396 263 l 1,30,-1
 317 257 l 2,31,32
 219 251 219 251 176 227 c 128,-1,33
 133 203 133 203 133 147 c 0,34,35
 133 103 133 103 163.5 78 c 128,-1,36
 194 53 194 53 244 53 c 0,37,26
 279 53 279 53 314.5 70 c 128,-1,27
279 680 m 1,38,-1
 203 614 l 1,39,-1
 124 614 l 1,40,-1
 249 726 l 1,41,-1
 311 726 l 1,42,-1
 433 614 l 1,43,-1
 349 614 l 1,44,-1
 279 680 l 1,38,-1
EndSplineSet
EndChar

StartChar: atilde
Encoding: 227 227 164
Width: 559
GlyphClass: 2
Flags: W
AnchorPoint: "Anchor-5" 0 0 basechar 0
AnchorPoint: "Anchor-4" 0 0 basechar 0
AnchorPoint: "Anchor-3" 279 517 basechar 0
AnchorPoint: "Anchor-2" 467 13 basechar 0
LayerCount: 2
Fore
SplineSet
96.5 30 m 128,-1,1
 50 70 50 70 50 139 c 0,2,3
 50 197 50 197 76 232.5 c 128,-1,4
 102 268 102 268 156.5 286.5 c 128,-1,5
 211 305 211 305 301 310 c 2,6,-1
 396 317 l 1,7,-1
 396 354 l 2,8,9
 396 405 396 405 364.5 434 c 128,-1,10
 333 463 333 463 277 463 c 0,11,12
 187 461 187 461 135 382 c 1,13,-1
 65 396 l 1,14,15
 88 458 88 458 145 492.5 c 128,-1,16
 202 527 202 527 282 527 c 0,17,18
 378 527 378 527 428.5 482.5 c 128,-1,19
 479 438 479 438 479 360 c 2,20,-1
 479 0 l 1,21,-1
 406 0 l 1,22,-1
 400 74 l 1,23,24
 328 -10 328 -10 219 -10 c 0,25,0
 143 -10 143 -10 96.5 30 c 128,-1,1
314.5 70 m 128,-1,27
 350 87 350 87 373 114 c 128,-1,28
 396 141 396 141 396 169 c 2,29,-1
 396 263 l 1,30,-1
 317 257 l 2,31,32
 219 251 219 251 176 227 c 128,-1,33
 133 203 133 203 133 147 c 0,34,35
 133 103 133 103 163.5 78 c 128,-1,36
 194 53 194 53 244 53 c 0,37,26
 279 53 279 53 314.5 70 c 128,-1,27
343 637 m 0,38,39
 324 637 324 637 309.5 640.5 c 128,-1,40
 295 644 295 644 275 651 c 0,41,42
 262 656 262 656 247.5 659.5 c 128,-1,43
 233 663 233 663 218 663 c 0,44,45
 202 663 202 663 191 659 c 128,-1,46
 180 655 180 655 171 649.5 c 128,-1,47
 162 644 162 644 159 642 c 0,48,49
 155 639 155 639 152 639 c 0,50,51
 148 639 148 639 145 647 c 2,52,-1
 136 674 l 2,53,54
 134 678 134 678 134 680 c 0,55,56
 134 684 134 684 139 688 c 0,57,58
 159 703 159 703 175 710.5 c 128,-1,59
 191 718 191 718 214 718 c 0,60,61
 231 718 231 718 246 714.5 c 128,-1,62
 261 711 261 711 283 704 c 0,63,64
 320 691 320 691 344 691 c 0,65,66
 361 691 361 691 373.5 696 c 128,-1,67
 386 701 386 701 401 710 c 0,68,69
 405 713 405 713 409 713 c 128,-1,70
 413 713 413 713 416 706 c 2,71,-1
 426 674 l 1,72,-1
 427 670 l 2,73,74
 427 666 427 666 423 663 c 128,-1,75
 419 660 419 660 418 659 c 0,76,77
 387 637 387 637 343 637 c 0,38,39
EndSplineSet
EndChar

StartChar: adieresis
Encoding: 228 228 165
Width: 559
GlyphClass: 2
Flags: W
AnchorPoint: "Anchor-5" 0 0 basechar 0
AnchorPoint: "Anchor-4" 0 0 basechar 0
AnchorPoint: "Anchor-3" 279 517 basechar 0
AnchorPoint: "Anchor-2" 467 13 basechar 0
LayerCount: 2
Fore
SplineSet
96.5 30 m 128,-1,1
 50 70 50 70 50 139 c 0,2,3
 50 197 50 197 76 232.5 c 128,-1,4
 102 268 102 268 156.5 286.5 c 128,-1,5
 211 305 211 305 301 310 c 2,6,-1
 396 317 l 1,7,-1
 396 354 l 2,8,9
 396 405 396 405 364.5 434 c 128,-1,10
 333 463 333 463 277 463 c 0,11,12
 187 461 187 461 135 382 c 1,13,-1
 65 396 l 1,14,15
 88 458 88 458 145 492.5 c 128,-1,16
 202 527 202 527 282 527 c 0,17,18
 378 527 378 527 428.5 482.5 c 128,-1,19
 479 438 479 438 479 360 c 2,20,-1
 479 0 l 1,21,-1
 406 0 l 1,22,-1
 400 74 l 1,23,24
 328 -10 328 -10 219 -10 c 0,25,0
 143 -10 143 -10 96.5 30 c 128,-1,1
314.5 70 m 128,-1,27
 350 87 350 87 373 114 c 128,-1,28
 396 141 396 141 396 169 c 2,29,-1
 396 263 l 1,30,-1
 317 257 l 2,31,32
 219 251 219 251 176 227 c 128,-1,33
 133 203 133 203 133 147 c 0,34,35
 133 103 133 103 163.5 78 c 128,-1,36
 194 53 194 53 244 53 c 0,37,26
 279 53 279 53 314.5 70 c 128,-1,27
248 615 m 1,38,-1
 164 615 l 1,39,-1
 164 723 l 1,40,-1
 248 723 l 1,41,-1
 248 615 l 1,38,-1
394 615 m 1,42,-1
 310 615 l 1,43,-1
 310 723 l 1,44,-1
 394 723 l 1,45,-1
 394 615 l 1,42,-1
EndSplineSet
EndChar

StartChar: aring
Encoding: 229 229 166
Width: 559
GlyphClass: 2
Flags: W
AnchorPoint: "Anchor-5" 0 0 basechar 0
AnchorPoint: "Anchor-4" 0 0 basechar 0
AnchorPoint: "Anchor-3" 279 517 basechar 0
AnchorPoint: "Anchor-2" 467 13 basechar 0
LayerCount: 2
Fore
SplineSet
96.5 30 m 128,-1,1
 50 70 50 70 50 139 c 0,2,3
 50 197 50 197 76 232.5 c 128,-1,4
 102 268 102 268 156.5 286.5 c 128,-1,5
 211 305 211 305 301 310 c 2,6,-1
 396 317 l 1,7,-1
 396 354 l 2,8,9
 396 405 396 405 364.5 434 c 128,-1,10
 333 463 333 463 277 463 c 0,11,12
 187 461 187 461 135 382 c 1,13,-1
 65 396 l 1,14,15
 88 458 88 458 145 492.5 c 128,-1,16
 202 527 202 527 282 527 c 0,17,18
 378 527 378 527 428.5 482.5 c 128,-1,19
 479 438 479 438 479 360 c 2,20,-1
 479 0 l 1,21,-1
 406 0 l 1,22,-1
 400 74 l 1,23,24
 328 -10 328 -10 219 -10 c 0,25,0
 143 -10 143 -10 96.5 30 c 128,-1,1
314.5 70 m 128,-1,27
 350 87 350 87 373 114 c 128,-1,28
 396 141 396 141 396 169 c 2,29,-1
 396 263 l 1,30,-1
 317 257 l 2,31,32
 219 251 219 251 176 227 c 128,-1,33
 133 203 133 203 133 147 c 0,34,35
 133 103 133 103 163.5 78 c 128,-1,36
 194 53 194 53 244 53 c 0,37,26
 279 53 279 53 314.5 70 c 128,-1,27
352.5 607.5 m 128,-1,39
 323 578 323 578 279 578 c 0,40,41
 236 578 236 578 206.5 608 c 128,-1,42
 177 638 177 638 177 682 c 0,43,44
 177 723 177 723 207 752 c 128,-1,45
 237 781 237 781 279 781 c 0,46,47
 322 781 322 781 352 751.5 c 128,-1,48
 382 722 382 722 382 680 c 0,49,38
 382 637 382 637 352.5 607.5 c 128,-1,39
316.5 718 m 128,-1,51
 301 733 301 733 278 733 c 0,52,53
 256 733 256 733 240 717.5 c 128,-1,54
 224 702 224 702 224 679 c 0,55,56
 224 657 224 657 240 640.5 c 128,-1,57
 256 624 256 624 278 624 c 128,-1,58
 300 624 300 624 316 640.5 c 128,-1,59
 332 657 332 657 332 679 c 0,60,50
 332 703 332 703 316.5 718 c 128,-1,51
EndSplineSet
EndChar

StartChar: ae
Encoding: 230 230 167
Width: 924
GlyphClass: 2
Flags: W
AnchorPoint: "Anchor-5" 0 0 basechar 0
AnchorPoint: "Anchor-4" 0 0 basechar 0
AnchorPoint: "Anchor-3" 454 517 basechar 0
AnchorPoint: "Anchor-2" 0 0 basechar 0
LayerCount: 2
Fore
SplineSet
503.5 150.5 m 128,-1,1
 526 108 526 108 564 81.5 c 128,-1,2
 602 55 602 55 647 55 c 0,3,4
 704 55 704 55 739 77.5 c 128,-1,5
 774 100 774 100 806 142 c 1,6,-1
 863 112 l 1,7,8
 828 52 828 52 771 21 c 128,-1,9
 714 -10 714 -10 638 -10 c 0,10,11
 566 -10 566 -10 519 20 c 128,-1,12
 472 50 472 50 438 94 c 0,13,14
 436 97 436 97 435 97 c 128,-1,15
 434 97 434 97 432 94 c 0,16,17
 390 47 390 47 341 18.5 c 128,-1,18
 292 -10 292 -10 214 -10 c 0,19,20
 137 -10 137 -10 93.5 29 c 128,-1,21
 50 68 50 68 50 135 c 0,22,23
 50 210 50 210 112 254 c 128,-1,24
 174 298 174 298 297 307 c 2,25,-1
 398 315 l 1,26,-1
 398 354 l 2,27,28
 398 406 398 406 366.5 435.5 c 128,-1,29
 335 465 335 465 276 465 c 0,30,31
 190 465 190 465 135 379 c 1,32,-1
 63 404 l 1,33,34
 128 527 128 527 283 527 c 0,35,36
 419 527 419 527 457 433 c 1,37,38
 517 527 517 527 639 527 c 0,39,40
 709 527 709 527 762.5 493 c 128,-1,41
 816 459 816 459 845.5 394.5 c 128,-1,42
 875 330 875 330 875 241 c 1,43,-1
 481 240 l 1,44,0
 481 193 481 193 503.5 150.5 c 128,-1,1
560.5 445 m 128,-1,46
 525 424 525 424 504 385.5 c 128,-1,47
 483 347 483 347 483 296 c 1,48,-1
 789 295 l 1,49,50
 789 340 789 340 770.5 379 c 128,-1,51
 752 418 752 418 718 442 c 128,-1,52
 684 466 684 466 640 466 c 128,-1,45
 596 466 596 466 560.5 445 c 128,-1,46
314 254 m 2,53,54
 227 247 227 247 181.5 218.5 c 128,-1,55
 136 190 136 190 136 140 c 0,56,57
 136 100 136 100 163 75.5 c 128,-1,58
 190 51 190 51 237 51 c 0,59,60
 280 51 280 51 317 66.5 c 128,-1,61
 354 82 354 82 376 109 c 128,-1,62
 398 136 398 136 398 168 c 2,63,-1
 398 260 l 1,64,-1
 314 254 l 2,53,54
EndSplineSet
EndChar

StartChar: ccedilla
Encoding: 231 231 168
Width: 537
GlyphClass: 2
Flags: W
AnchorPoint: "Anchor-5" 0 0 basechar 0
AnchorPoint: "Anchor-4" 285 0 basechar 0
AnchorPoint: "Anchor-3" 284 517 basechar 0
AnchorPoint: "Anchor-2" 0 0 basechar 0
LayerCount: 2
Fore
SplineSet
483 382 m 1,0,-1
 412 368 l 1,1,2
 378 417 378 417 353 437 c 128,-1,3
 328 457 328 457 288 457 c 0,4,5
 216 457 216 457 174 403.5 c 128,-1,6
 132 350 132 350 132 258 c 0,7,8
 132 165 132 165 174.5 110.5 c 128,-1,9
 217 56 217 56 289 56 c 0,10,11
 333 56 333 56 362.5 80.5 c 128,-1,12
 392 105 392 105 418 152 c 1,13,-1
 487 137 l 1,14,15
 461 68 461 68 409.5 29 c 128,-1,16
 358 -10 358 -10 284 -10 c 0,17,18
 214 -10 214 -10 160.5 23.5 c 128,-1,19
 107 57 107 57 78 117.5 c 128,-1,20
 49 178 49 178 49 256 c 0,21,22
 49 335 49 335 78 396.5 c 128,-1,23
 107 458 107 458 160.5 492.5 c 128,-1,24
 214 527 214 527 284 527 c 0,25,26
 424 527 424 527 483 382 c 1,0,-1
344.5 -184.5 m 128,-1,28
 314 -205 314 -205 268 -205 c 0,29,30
 212 -205 212 -205 176 -180 c 1,31,-1
 190 -143 l 1,32,33
 220 -166 220 -166 258 -166 c 0,34,35
 312 -166 312 -166 312 -129 c 0,36,37
 312 -107 312 -107 293.5 -96.5 c 128,-1,38
 275 -86 275 -86 233 -85 c 0,39,40
 224 -85 224 -85 227 -78 c 2,41,-1
 264 5 l 1,42,-1
 310 5 l 1,43,-1
 287 -56 l 1,44,45
 333 -58 333 -58 354 -79 c 128,-1,46
 375 -100 375 -100 375 -128 c 0,47,27
 375 -164 375 -164 344.5 -184.5 c 128,-1,28
EndSplineSet
EndChar

StartChar: egrave
Encoding: 232 232 169
Width: 556
GlyphClass: 2
Flags: W
AnchorPoint: "Anchor-5" 0 0 basechar 0
AnchorPoint: "Anchor-4" 278 0 basechar 0
AnchorPoint: "Anchor-3" 284 517 basechar 0
AnchorPoint: "Anchor-2" 387 20 basechar 0
LayerCount: 2
Fore
SplineSet
176.5 108.5 m 128,-1,1
 217 58 217 58 291 58 c 0,2,3
 391 58 391 58 422 138 c 1,4,-1
 500 127 l 1,5,6
 482 63 482 63 425.5 26.5 c 128,-1,7
 369 -10 369 -10 293 -10 c 0,8,9
 221 -10 221 -10 166 21.5 c 128,-1,10
 111 53 111 53 80 112.5 c 128,-1,11
 49 172 49 172 49 253 c 0,12,13
 49 378 49 378 111.5 452.5 c 128,-1,14
 174 527 174 527 284 527 c 0,15,16
 390 527 390 527 448.5 459 c 128,-1,17
 507 391 507 391 507 272 c 2,18,-1
 507 238 l 1,19,-1
 136 238 l 1,20,0
 136 159 136 159 176.5 108.5 c 128,-1,1
424 298 m 1,21,22
 424 370 424 370 388 415 c 128,-1,23
 352 460 352 460 283 460 c 0,24,25
 235 460 235 460 202 437 c 128,-1,26
 169 414 169 414 152.5 376.5 c 128,-1,27
 136 339 136 339 136 298 c 1,28,-1
 424 298 l 1,21,22
404 636 m 1,29,-1
 389 591 l 1,30,-1
 139 665 l 1,31,-1
 161 732 l 1,32,-1
 404 636 l 1,29,-1
EndSplineSet
EndChar

StartChar: eacute
Encoding: 233 233 170
Width: 556
GlyphClass: 2
Flags: W
AnchorPoint: "Anchor-5" 0 0 basechar 0
AnchorPoint: "Anchor-4" 278 0 basechar 0
AnchorPoint: "Anchor-3" 284 517 basechar 0
AnchorPoint: "Anchor-2" 387 20 basechar 0
LayerCount: 2
Fore
SplineSet
176.5 108.5 m 128,-1,1
 217 58 217 58 291 58 c 0,2,3
 391 58 391 58 422 138 c 1,4,-1
 500 127 l 1,5,6
 482 63 482 63 425.5 26.5 c 128,-1,7
 369 -10 369 -10 293 -10 c 0,8,9
 221 -10 221 -10 166 21.5 c 128,-1,10
 111 53 111 53 80 112.5 c 128,-1,11
 49 172 49 172 49 253 c 0,12,13
 49 378 49 378 111.5 452.5 c 128,-1,14
 174 527 174 527 284 527 c 0,15,16
 390 527 390 527 448.5 459 c 128,-1,17
 507 391 507 391 507 272 c 2,18,-1
 507 238 l 1,19,-1
 136 238 l 1,20,0
 136 159 136 159 176.5 108.5 c 128,-1,1
424 298 m 1,21,22
 424 370 424 370 388 415 c 128,-1,23
 352 460 352 460 283 460 c 0,24,25
 235 460 235 460 202 437 c 128,-1,26
 169 414 169 414 152.5 376.5 c 128,-1,27
 136 339 136 339 136 298 c 1,28,-1
 424 298 l 1,21,22
417 665 m 1,29,-1
 166 591 l 1,30,-1
 152 636 l 1,31,-1
 395 732 l 1,32,-1
 417 665 l 1,29,-1
EndSplineSet
EndChar

StartChar: ecircumflex
Encoding: 234 234 171
Width: 556
GlyphClass: 2
Flags: W
AnchorPoint: "Anchor-5" 0 0 basechar 0
AnchorPoint: "Anchor-4" 278 0 basechar 0
AnchorPoint: "Anchor-3" 284 517 basechar 0
AnchorPoint: "Anchor-2" 387 20 basechar 0
LayerCount: 2
Fore
SplineSet
176.5 108.5 m 128,-1,1
 217 58 217 58 291 58 c 0,2,3
 391 58 391 58 422 138 c 1,4,-1
 500 127 l 1,5,6
 482 63 482 63 425.5 26.5 c 128,-1,7
 369 -10 369 -10 293 -10 c 0,8,9
 221 -10 221 -10 166 21.5 c 128,-1,10
 111 53 111 53 80 112.5 c 128,-1,11
 49 172 49 172 49 253 c 0,12,13
 49 378 49 378 111.5 452.5 c 128,-1,14
 174 527 174 527 284 527 c 0,15,16
 390 527 390 527 448.5 459 c 128,-1,17
 507 391 507 391 507 272 c 2,18,-1
 507 238 l 1,19,-1
 136 238 l 1,20,0
 136 159 136 159 176.5 108.5 c 128,-1,1
424 298 m 1,21,22
 424 370 424 370 388 415 c 128,-1,23
 352 460 352 460 283 460 c 0,24,25
 235 460 235 460 202 437 c 128,-1,26
 169 414 169 414 152.5 376.5 c 128,-1,27
 136 339 136 339 136 298 c 1,28,-1
 424 298 l 1,21,22
284 680 m 1,29,-1
 208 614 l 1,30,-1
 129 614 l 1,31,-1
 254 726 l 1,32,-1
 316 726 l 1,33,-1
 438 614 l 1,34,-1
 354 614 l 1,35,-1
 284 680 l 1,29,-1
EndSplineSet
EndChar

StartChar: edieresis
Encoding: 235 235 172
Width: 556
GlyphClass: 2
Flags: W
AnchorPoint: "Anchor-5" 0 0 basechar 0
AnchorPoint: "Anchor-4" 278 0 basechar 0
AnchorPoint: "Anchor-3" 284 517 basechar 0
AnchorPoint: "Anchor-2" 387 20 basechar 0
LayerCount: 2
Fore
SplineSet
176.5 108.5 m 128,-1,1
 217 58 217 58 291 58 c 0,2,3
 391 58 391 58 422 138 c 1,4,-1
 500 127 l 1,5,6
 482 63 482 63 425.5 26.5 c 128,-1,7
 369 -10 369 -10 293 -10 c 0,8,9
 221 -10 221 -10 166 21.5 c 128,-1,10
 111 53 111 53 80 112.5 c 128,-1,11
 49 172 49 172 49 253 c 0,12,13
 49 378 49 378 111.5 452.5 c 128,-1,14
 174 527 174 527 284 527 c 0,15,16
 390 527 390 527 448.5 459 c 128,-1,17
 507 391 507 391 507 272 c 2,18,-1
 507 238 l 1,19,-1
 136 238 l 1,20,0
 136 159 136 159 176.5 108.5 c 128,-1,1
424 298 m 1,21,22
 424 370 424 370 388 415 c 128,-1,23
 352 460 352 460 283 460 c 0,24,25
 235 460 235 460 202 437 c 128,-1,26
 169 414 169 414 152.5 376.5 c 128,-1,27
 136 339 136 339 136 298 c 1,28,-1
 424 298 l 1,21,22
253 615 m 1,29,-1
 169 615 l 1,30,-1
 169 723 l 1,31,-1
 253 723 l 1,32,-1
 253 615 l 1,29,-1
399 615 m 1,33,-1
 315 615 l 1,34,-1
 315 723 l 1,35,-1
 399 723 l 1,36,-1
 399 615 l 1,33,-1
EndSplineSet
EndChar

StartChar: igrave
Encoding: 236 236 173
Width: 245
GlyphClass: 2
Flags: W
AnchorPoint: "Anchor-5" 0 0 basechar 0
AnchorPoint: "Anchor-4" 0 0 basechar 0
AnchorPoint: "Anchor-3" 123 517 basechar 0
AnchorPoint: "Anchor-2" 152 12 basechar 0
LayerCount: 2
Fore
SplineSet
166 0 m 1,0,-1
 80 0 l 1,1,-1
 80 517 l 1,2,-1
 166 517 l 1,3,-1
 166 0 l 1,0,-1
243 636 m 1,4,-1
 228 591 l 1,5,-1
 -22 665 l 1,6,-1
 0 732 l 1,7,-1
 243 636 l 1,4,-1
EndSplineSet
EndChar

StartChar: iacute
Encoding: 237 237 174
Width: 245
GlyphClass: 2
Flags: W
AnchorPoint: "Anchor-5" 0 0 basechar 0
AnchorPoint: "Anchor-4" 0 0 basechar 0
AnchorPoint: "Anchor-3" 123 517 basechar 0
AnchorPoint: "Anchor-2" 152 12 basechar 0
LayerCount: 2
Fore
SplineSet
166 0 m 1,0,-1
 80 0 l 1,1,-1
 80 517 l 1,2,-1
 166 517 l 1,3,-1
 166 0 l 1,0,-1
256 665 m 1,4,-1
 5 591 l 1,5,-1
 -9 636 l 1,6,-1
 234 732 l 1,7,-1
 256 665 l 1,4,-1
EndSplineSet
EndChar

StartChar: icircumflex
Encoding: 238 238 175
Width: 245
GlyphClass: 2
Flags: W
AnchorPoint: "Anchor-5" 0 0 basechar 0
AnchorPoint: "Anchor-4" 0 0 basechar 0
AnchorPoint: "Anchor-3" 123 517 basechar 0
AnchorPoint: "Anchor-2" 152 12 basechar 0
LayerCount: 2
Fore
SplineSet
166 0 m 1,0,-1
 80 0 l 1,1,-1
 80 517 l 1,2,-1
 166 517 l 1,3,-1
 166 0 l 1,0,-1
123 680 m 1,4,-1
 47 614 l 1,5,-1
 -32 614 l 1,6,-1
 93 726 l 1,7,-1
 155 726 l 1,8,-1
 277 614 l 1,9,-1
 193 614 l 1,10,-1
 123 680 l 1,4,-1
EndSplineSet
EndChar

StartChar: idieresis
Encoding: 239 239 176
Width: 245
GlyphClass: 2
Flags: W
AnchorPoint: "Anchor-5" 0 0 basechar 0
AnchorPoint: "Anchor-4" 0 0 basechar 0
AnchorPoint: "Anchor-3" 123 517 basechar 0
AnchorPoint: "Anchor-2" 152 12 basechar 0
LayerCount: 2
Fore
SplineSet
166 0 m 1,0,-1
 80 0 l 1,1,-1
 80 517 l 1,2,-1
 166 517 l 1,3,-1
 166 0 l 1,0,-1
92 615 m 1,4,-1
 8 615 l 1,5,-1
 8 723 l 1,6,-1
 92 723 l 1,7,-1
 92 615 l 1,4,-1
238 615 m 1,8,-1
 154 615 l 1,9,-1
 154 723 l 1,10,-1
 238 723 l 1,11,-1
 238 615 l 1,8,-1
EndSplineSet
EndChar

StartChar: eth
Encoding: 240 240 177
Width: 593
GlyphClass: 2
Flags: W
LayerCount: 2
Fore
SplineSet
514 117.5 m 128,-1,1
 484 57 484 57 427.5 23.5 c 128,-1,2
 371 -10 371 -10 295 -10 c 0,3,4
 223 -10 223 -10 167 23 c 128,-1,5
 111 56 111 56 80 114 c 128,-1,6
 49 172 49 172 49 246 c 0,7,8
 49 321 49 321 80 380.5 c 128,-1,9
 111 440 111 440 166 473.5 c 128,-1,10
 221 507 221 507 290 507 c 0,11,12
 364 507 364 507 409 462 c 1,13,14
 366 552 366 552 274 615 c 1,15,-1
 122 529 l 1,16,-1
 99 567 l 1,17,-1
 233 641 l 1,18,19
 188 666 188 666 120 692 c 1,20,-1
 175 734 l 1,21,22
 241 711 241 711 300 679 c 1,23,-1
 401 736 l 1,24,-1
 422 697 l 1,25,-1
 342 652 l 1,26,27
 544 514 544 514 544 257 c 0,28,0
 544 178 544 178 514 117.5 c 128,-1,1
380 78 m 128,-1,30
 416 103 416 103 436 147.5 c 128,-1,31
 456 192 456 192 456 249 c 0,32,33
 456 305 456 305 436 349.5 c 128,-1,34
 416 394 416 394 379.5 419.5 c 128,-1,35
 343 445 343 445 297 445 c 128,-1,36
 251 445 251 445 214.5 419.5 c 128,-1,37
 178 394 178 394 157.5 349.5 c 128,-1,38
 137 305 137 305 137 249 c 128,-1,39
 137 193 137 193 157.5 148 c 128,-1,40
 178 103 178 103 214.5 78 c 128,-1,41
 251 53 251 53 298 53 c 0,42,29
 344 53 344 53 380 78 c 128,-1,30
EndSplineSet
EndChar

StartChar: ntilde
Encoding: 241 241 178
Width: 587
GlyphClass: 2
Flags: W
AnchorPoint: "Anchor-5" 0 0 basechar 0
AnchorPoint: "Anchor-4" 295 0 basechar 0
AnchorPoint: "Anchor-3" 301 517 basechar 0
AnchorPoint: "Anchor-2" 0 0 basechar 0
LayerCount: 2
Fore
SplineSet
80 517 m 1,0,-1
 163 517 l 1,1,-1
 163 445 l 1,2,3
 186 481 186 481 226.5 503 c 128,-1,4
 267 525 267 525 326 525 c 0,5,6
 404 525 404 525 455.5 476 c 128,-1,7
 507 427 507 427 507 339 c 2,8,-1
 507 0 l 1,9,-1
 422 0 l 1,10,-1
 422 331 l 2,11,12
 422 389 422 389 390 421 c 128,-1,13
 358 453 358 453 304 453 c 0,14,15
 246 453 246 453 206 426 c 128,-1,16
 166 399 166 399 166 349 c 2,17,-1
 166 0 l 1,18,-1
 80 0 l 1,19,-1
 80 517 l 1,0,-1
365 637 m 0,20,21
 346 637 346 637 331.5 640.5 c 128,-1,22
 317 644 317 644 297 651 c 0,23,24
 284 656 284 656 269.5 659.5 c 128,-1,25
 255 663 255 663 240 663 c 0,26,27
 224 663 224 663 213 659 c 128,-1,28
 202 655 202 655 193 649.5 c 128,-1,29
 184 644 184 644 181 642 c 0,30,31
 177 639 177 639 174 639 c 0,32,33
 170 639 170 639 167 647 c 2,34,-1
 158 674 l 2,35,36
 156 678 156 678 156 680 c 0,37,38
 156 684 156 684 161 688 c 0,39,40
 181 703 181 703 197 710.5 c 128,-1,41
 213 718 213 718 236 718 c 0,42,43
 253 718 253 718 268 714.5 c 128,-1,44
 283 711 283 711 305 704 c 0,45,46
 342 691 342 691 366 691 c 0,47,48
 383 691 383 691 395.5 696 c 128,-1,49
 408 701 408 701 423 710 c 0,50,51
 427 713 427 713 431 713 c 128,-1,52
 435 713 435 713 438 706 c 2,53,-1
 448 674 l 1,54,-1
 449 670 l 2,55,56
 449 666 449 666 445 663 c 128,-1,57
 441 660 441 660 440 659 c 0,58,59
 409 637 409 637 365 637 c 0,20,21
EndSplineSet
EndChar

StartChar: ograve
Encoding: 242 242 179
Width: 567
GlyphClass: 2
Flags: W
AnchorPoint: "Anchor-5" 0 0 basechar 0
AnchorPoint: "Anchor-4" 283 0 basechar 0
AnchorPoint: "Anchor-3" 286 517 basechar 0
AnchorPoint: "Anchor-2" 350 10 basechar 0
LayerCount: 2
Fore
SplineSet
158 23.5 m 128,-1,1
 105 57 105 57 77 117 c 128,-1,2
 49 177 49 177 49 255 c 0,3,4
 49 335 49 335 77.5 396.5 c 128,-1,5
 106 458 106 458 159.5 492.5 c 128,-1,6
 213 527 213 527 285 527 c 128,-1,7
 357 527 357 527 409.5 492.5 c 128,-1,8
 462 458 462 458 490 396.5 c 128,-1,9
 518 335 518 335 518 256 c 0,10,11
 518 178 518 178 490 117.5 c 128,-1,12
 462 57 462 57 409.5 23.5 c 128,-1,13
 357 -10 357 -10 284 -10 c 128,-1,0
 211 -10 211 -10 158 23.5 c 128,-1,1
396 113.5 m 128,-1,15
 433 169 433 169 433 259 c 128,-1,16
 433 349 433 349 395.5 404 c 128,-1,17
 358 459 358 459 285 459 c 0,18,19
 211 459 211 459 173 403.5 c 128,-1,20
 135 348 135 348 135 259 c 0,21,22
 135 169 135 169 173 113.5 c 128,-1,23
 211 58 211 58 286 58 c 0,24,14
 359 58 359 58 396 113.5 c 128,-1,15
406 636 m 1,25,-1
 391 591 l 1,26,-1
 141 665 l 1,27,-1
 163 732 l 1,28,-1
 406 636 l 1,25,-1
EndSplineSet
EndChar

StartChar: oacute
Encoding: 243 243 180
Width: 567
GlyphClass: 2
Flags: W
AnchorPoint: "Anchor-5" 0 0 basechar 0
AnchorPoint: "Anchor-4" 283 0 basechar 0
AnchorPoint: "Anchor-3" 286 517 basechar 0
AnchorPoint: "Anchor-2" 350 10 basechar 0
LayerCount: 2
Fore
SplineSet
158 23.5 m 128,-1,1
 105 57 105 57 77 117 c 128,-1,2
 49 177 49 177 49 255 c 0,3,4
 49 335 49 335 77.5 396.5 c 128,-1,5
 106 458 106 458 159.5 492.5 c 128,-1,6
 213 527 213 527 285 527 c 128,-1,7
 357 527 357 527 409.5 492.5 c 128,-1,8
 462 458 462 458 490 396.5 c 128,-1,9
 518 335 518 335 518 256 c 0,10,11
 518 178 518 178 490 117.5 c 128,-1,12
 462 57 462 57 409.5 23.5 c 128,-1,13
 357 -10 357 -10 284 -10 c 128,-1,0
 211 -10 211 -10 158 23.5 c 128,-1,1
396 113.5 m 128,-1,15
 433 169 433 169 433 259 c 128,-1,16
 433 349 433 349 395.5 404 c 128,-1,17
 358 459 358 459 285 459 c 0,18,19
 211 459 211 459 173 403.5 c 128,-1,20
 135 348 135 348 135 259 c 0,21,22
 135 169 135 169 173 113.5 c 128,-1,23
 211 58 211 58 286 58 c 0,24,14
 359 58 359 58 396 113.5 c 128,-1,15
419 665 m 1,25,-1
 168 591 l 1,26,-1
 154 636 l 1,27,-1
 397 732 l 1,28,-1
 419 665 l 1,25,-1
EndSplineSet
EndChar

StartChar: ocircumflex
Encoding: 244 244 181
Width: 567
GlyphClass: 2
Flags: W
AnchorPoint: "Anchor-5" 0 0 basechar 0
AnchorPoint: "Anchor-4" 283 0 basechar 0
AnchorPoint: "Anchor-3" 286 517 basechar 0
AnchorPoint: "Anchor-2" 350 10 basechar 0
LayerCount: 2
Fore
SplineSet
158 23.5 m 128,-1,1
 105 57 105 57 77 117 c 128,-1,2
 49 177 49 177 49 255 c 0,3,4
 49 335 49 335 77.5 396.5 c 128,-1,5
 106 458 106 458 159.5 492.5 c 128,-1,6
 213 527 213 527 285 527 c 128,-1,7
 357 527 357 527 409.5 492.5 c 128,-1,8
 462 458 462 458 490 396.5 c 128,-1,9
 518 335 518 335 518 256 c 0,10,11
 518 178 518 178 490 117.5 c 128,-1,12
 462 57 462 57 409.5 23.5 c 128,-1,13
 357 -10 357 -10 284 -10 c 128,-1,0
 211 -10 211 -10 158 23.5 c 128,-1,1
396 113.5 m 128,-1,15
 433 169 433 169 433 259 c 128,-1,16
 433 349 433 349 395.5 404 c 128,-1,17
 358 459 358 459 285 459 c 0,18,19
 211 459 211 459 173 403.5 c 128,-1,20
 135 348 135 348 135 259 c 0,21,22
 135 169 135 169 173 113.5 c 128,-1,23
 211 58 211 58 286 58 c 0,24,14
 359 58 359 58 396 113.5 c 128,-1,15
286 680 m 1,25,-1
 210 614 l 1,26,-1
 131 614 l 1,27,-1
 256 726 l 1,28,-1
 318 726 l 1,29,-1
 440 614 l 1,30,-1
 356 614 l 1,31,-1
 286 680 l 1,25,-1
EndSplineSet
EndChar

StartChar: otilde
Encoding: 245 245 182
Width: 567
GlyphClass: 2
Flags: W
AnchorPoint: "Anchor-5" 0 0 basechar 0
AnchorPoint: "Anchor-4" 283 0 basechar 0
AnchorPoint: "Anchor-3" 286 517 basechar 0
AnchorPoint: "Anchor-2" 350 10 basechar 0
LayerCount: 2
Fore
SplineSet
158 23.5 m 128,-1,1
 105 57 105 57 77 117 c 128,-1,2
 49 177 49 177 49 255 c 0,3,4
 49 335 49 335 77.5 396.5 c 128,-1,5
 106 458 106 458 159.5 492.5 c 128,-1,6
 213 527 213 527 285 527 c 128,-1,7
 357 527 357 527 409.5 492.5 c 128,-1,8
 462 458 462 458 490 396.5 c 128,-1,9
 518 335 518 335 518 256 c 0,10,11
 518 178 518 178 490 117.5 c 128,-1,12
 462 57 462 57 409.5 23.5 c 128,-1,13
 357 -10 357 -10 284 -10 c 128,-1,0
 211 -10 211 -10 158 23.5 c 128,-1,1
396 113.5 m 128,-1,15
 433 169 433 169 433 259 c 128,-1,16
 433 349 433 349 395.5 404 c 128,-1,17
 358 459 358 459 285 459 c 0,18,19
 211 459 211 459 173 403.5 c 128,-1,20
 135 348 135 348 135 259 c 0,21,22
 135 169 135 169 173 113.5 c 128,-1,23
 211 58 211 58 286 58 c 0,24,14
 359 58 359 58 396 113.5 c 128,-1,15
350 637 m 0,25,26
 331 637 331 637 316.5 640.5 c 128,-1,27
 302 644 302 644 282 651 c 0,28,29
 269 656 269 656 254.5 659.5 c 128,-1,30
 240 663 240 663 225 663 c 0,31,32
 209 663 209 663 198 659 c 128,-1,33
 187 655 187 655 178 649.5 c 128,-1,34
 169 644 169 644 166 642 c 0,35,36
 162 639 162 639 159 639 c 0,37,38
 155 639 155 639 152 647 c 2,39,-1
 143 674 l 2,40,41
 141 678 141 678 141 680 c 0,42,43
 141 684 141 684 146 688 c 0,44,45
 166 703 166 703 182 710.5 c 128,-1,46
 198 718 198 718 221 718 c 0,47,48
 238 718 238 718 253 714.5 c 128,-1,49
 268 711 268 711 290 704 c 0,50,51
 327 691 327 691 351 691 c 0,52,53
 368 691 368 691 380.5 696 c 128,-1,54
 393 701 393 701 408 710 c 0,55,56
 412 713 412 713 416 713 c 128,-1,57
 420 713 420 713 423 706 c 2,58,-1
 433 674 l 1,59,-1
 434 670 l 2,60,61
 434 666 434 666 430 663 c 128,-1,62
 426 660 426 660 425 659 c 0,63,64
 394 637 394 637 350 637 c 0,25,26
EndSplineSet
EndChar

StartChar: odieresis
Encoding: 246 246 183
Width: 567
GlyphClass: 2
Flags: W
AnchorPoint: "Anchor-5" 0 0 basechar 0
AnchorPoint: "Anchor-4" 283 0 basechar 0
AnchorPoint: "Anchor-3" 286 517 basechar 0
AnchorPoint: "Anchor-2" 350 10 basechar 0
LayerCount: 2
Fore
SplineSet
158 23.5 m 128,-1,1
 105 57 105 57 77 117 c 128,-1,2
 49 177 49 177 49 255 c 0,3,4
 49 335 49 335 77.5 396.5 c 128,-1,5
 106 458 106 458 159.5 492.5 c 128,-1,6
 213 527 213 527 285 527 c 128,-1,7
 357 527 357 527 409.5 492.5 c 128,-1,8
 462 458 462 458 490 396.5 c 128,-1,9
 518 335 518 335 518 256 c 0,10,11
 518 178 518 178 490 117.5 c 128,-1,12
 462 57 462 57 409.5 23.5 c 128,-1,13
 357 -10 357 -10 284 -10 c 128,-1,0
 211 -10 211 -10 158 23.5 c 128,-1,1
396 113.5 m 128,-1,15
 433 169 433 169 433 259 c 128,-1,16
 433 349 433 349 395.5 404 c 128,-1,17
 358 459 358 459 285 459 c 0,18,19
 211 459 211 459 173 403.5 c 128,-1,20
 135 348 135 348 135 259 c 0,21,22
 135 169 135 169 173 113.5 c 128,-1,23
 211 58 211 58 286 58 c 0,24,14
 359 58 359 58 396 113.5 c 128,-1,15
255 615 m 1,25,-1
 171 615 l 1,26,-1
 171 723 l 1,27,-1
 255 723 l 1,28,-1
 255 615 l 1,25,-1
401 615 m 1,29,-1
 317 615 l 1,30,-1
 317 723 l 1,31,-1
 401 723 l 1,32,-1
 401 615 l 1,29,-1
EndSplineSet
EndChar

StartChar: divide
Encoding: 247 247 184
Width: 552
GlyphClass: 2
Flags: W
LayerCount: 2
Fore
SplineSet
331 483 m 1,0,-1
 219 483 l 1,1,-1
 219 591 l 1,2,-1
 331 591 l 1,3,-1
 331 483 l 1,0,-1
488 330 m 1,4,-1
 61 329 l 1,5,-1
 61 397 l 1,6,-1
 488 397 l 1,7,-1
 488 330 l 1,4,-1
331 137 m 1,8,-1
 219 137 l 1,9,-1
 219 244 l 1,10,-1
 331 244 l 1,11,-1
 331 137 l 1,8,-1
EndSplineSet
EndChar

StartChar: oslash
Encoding: 248 248 185
Width: 576
GlyphClass: 2
Flags: W
AnchorPoint: "Anchor-5" 0 0 basechar 0
AnchorPoint: "Anchor-4" 284 0 basechar 0
AnchorPoint: "Anchor-3" 287 517 basechar 0
AnchorPoint: "Anchor-2" 351 10 basechar 0
LayerCount: 2
Fore
SplineSet
483 412 m 1,0,1
 519 348 519 348 519 256 c 0,2,3
 519 178 519 178 491 117.5 c 128,-1,4
 463 57 463 57 410.5 23.5 c 128,-1,5
 358 -10 358 -10 285 -10 c 0,6,7
 181 -10 181 -10 117 57 c 1,8,-1
 52 -6 l 1,9,-1
 16 33 l 1,10,-1
 86 101 l 1,11,12
 50 164 50 164 50 255 c 0,13,14
 50 335 50 335 78.5 396.5 c 128,-1,15
 107 458 107 458 160.5 492.5 c 128,-1,16
 214 527 214 527 286 527 c 0,17,18
 390 527 390 527 453 456 c 1,19,-1
 520 521 l 1,20,-1
 556 483 l 1,21,-1
 483 412 l 1,0,1
150 163 m 1,22,-1
 398 403 l 1,23,24
 358 459 358 459 286 459 c 0,25,26
 212 459 212 459 174 403.5 c 128,-1,27
 136 348 136 348 136 259 c 0,28,29
 136 207 136 207 150 163 c 1,22,-1
421 352 m 1,30,-1
 175 113 l 1,31,32
 193 87 193 87 221.5 72.5 c 128,-1,33
 250 58 250 58 287 58 c 0,34,35
 360 58 360 58 397 113.5 c 128,-1,36
 434 169 434 169 434 259 c 0,37,38
 434 313 434 313 421 352 c 1,30,-1
EndSplineSet
EndChar

StartChar: ugrave
Encoding: 249 249 186
Width: 587
GlyphClass: 2
Flags: W
AnchorPoint: "Anchor-5" 0 0 basechar 0
AnchorPoint: "Anchor-4" 293 0 basechar 0
AnchorPoint: "Anchor-3" 285 517 basechar 0
AnchorPoint: "Anchor-2" 492 11 basechar 0
LayerCount: 2
Fore
SplineSet
184 9 m 128,-1,1
 139 27 139 27 109.5 67 c 128,-1,2
 80 107 80 107 80 168 c 2,3,-1
 80 518 l 1,4,-1
 166 518 l 1,5,-1
 166 176 l 2,6,7
 166 115 166 115 203.5 86.5 c 128,-1,8
 241 58 241 58 291 58 c 0,9,10
 345 58 345 58 382.5 90.5 c 128,-1,11
 420 123 420 123 421 181 c 2,12,-1
 421 518 l 1,13,-1
 507 518 l 1,14,-1
 506 1 l 1,15,-1
 438 1 l 1,16,-1
 434 81 l 1,17,18
 417 45 417 45 371.5 18 c 128,-1,19
 326 -9 326 -9 276 -9 c 0,20,0
 229 -9 229 -9 184 9 c 128,-1,1
405 636 m 1,21,-1
 390 591 l 1,22,-1
 140 665 l 1,23,-1
 162 732 l 1,24,-1
 405 636 l 1,21,-1
EndSplineSet
EndChar

StartChar: uacute
Encoding: 250 250 187
Width: 587
GlyphClass: 2
Flags: W
AnchorPoint: "Anchor-5" 0 0 basechar 0
AnchorPoint: "Anchor-4" 293 0 basechar 0
AnchorPoint: "Anchor-3" 285 517 basechar 0
AnchorPoint: "Anchor-2" 492 11 basechar 0
LayerCount: 2
Fore
SplineSet
184 9 m 128,-1,1
 139 27 139 27 109.5 67 c 128,-1,2
 80 107 80 107 80 168 c 2,3,-1
 80 518 l 1,4,-1
 166 518 l 1,5,-1
 166 176 l 2,6,7
 166 115 166 115 203.5 86.5 c 128,-1,8
 241 58 241 58 291 58 c 0,9,10
 345 58 345 58 382.5 90.5 c 128,-1,11
 420 123 420 123 421 181 c 2,12,-1
 421 518 l 1,13,-1
 507 518 l 1,14,-1
 506 1 l 1,15,-1
 438 1 l 1,16,-1
 434 81 l 1,17,18
 417 45 417 45 371.5 18 c 128,-1,19
 326 -9 326 -9 276 -9 c 0,20,0
 229 -9 229 -9 184 9 c 128,-1,1
418 665 m 1,21,-1
 167 591 l 1,22,-1
 153 636 l 1,23,-1
 396 732 l 1,24,-1
 418 665 l 1,21,-1
EndSplineSet
EndChar

StartChar: ucircumflex
Encoding: 251 251 188
Width: 587
GlyphClass: 2
Flags: W
AnchorPoint: "Anchor-5" 0 0 basechar 0
AnchorPoint: "Anchor-4" 293 0 basechar 0
AnchorPoint: "Anchor-3" 285 517 basechar 0
AnchorPoint: "Anchor-2" 492 11 basechar 0
LayerCount: 2
Fore
SplineSet
184 9 m 128,-1,1
 139 27 139 27 109.5 67 c 128,-1,2
 80 107 80 107 80 168 c 2,3,-1
 80 518 l 1,4,-1
 166 518 l 1,5,-1
 166 176 l 2,6,7
 166 115 166 115 203.5 86.5 c 128,-1,8
 241 58 241 58 291 58 c 0,9,10
 345 58 345 58 382.5 90.5 c 128,-1,11
 420 123 420 123 421 181 c 2,12,-1
 421 518 l 1,13,-1
 507 518 l 1,14,-1
 506 1 l 1,15,-1
 438 1 l 1,16,-1
 434 81 l 1,17,18
 417 45 417 45 371.5 18 c 128,-1,19
 326 -9 326 -9 276 -9 c 0,20,0
 229 -9 229 -9 184 9 c 128,-1,1
285 680 m 1,21,-1
 209 614 l 1,22,-1
 130 614 l 1,23,-1
 255 726 l 1,24,-1
 317 726 l 1,25,-1
 439 614 l 1,26,-1
 355 614 l 1,27,-1
 285 680 l 1,21,-1
EndSplineSet
EndChar

StartChar: udieresis
Encoding: 252 252 189
Width: 587
GlyphClass: 2
Flags: W
AnchorPoint: "Anchor-5" 0 0 basechar 0
AnchorPoint: "Anchor-4" 293 0 basechar 0
AnchorPoint: "Anchor-3" 285 517 basechar 0
AnchorPoint: "Anchor-2" 492 11 basechar 0
LayerCount: 2
Fore
SplineSet
184 9 m 128,-1,1
 139 27 139 27 109.5 67 c 128,-1,2
 80 107 80 107 80 168 c 2,3,-1
 80 518 l 1,4,-1
 166 518 l 1,5,-1
 166 176 l 2,6,7
 166 115 166 115 203.5 86.5 c 128,-1,8
 241 58 241 58 291 58 c 0,9,10
 345 58 345 58 382.5 90.5 c 128,-1,11
 420 123 420 123 421 181 c 2,12,-1
 421 518 l 1,13,-1
 507 518 l 1,14,-1
 506 1 l 1,15,-1
 438 1 l 1,16,-1
 434 81 l 1,17,18
 417 45 417 45 371.5 18 c 128,-1,19
 326 -9 326 -9 276 -9 c 0,20,0
 229 -9 229 -9 184 9 c 128,-1,1
254 615 m 1,21,-1
 170 615 l 1,22,-1
 170 723 l 1,23,-1
 254 723 l 1,24,-1
 254 615 l 1,21,-1
400 615 m 1,25,-1
 316 615 l 1,26,-1
 316 723 l 1,27,-1
 400 723 l 1,28,-1
 400 615 l 1,25,-1
EndSplineSet
EndChar

StartChar: yacute
Encoding: 253 253 190
Width: 525
GlyphClass: 2
Flags: W
AnchorPoint: "Anchor-5" 0 0 basechar 0
AnchorPoint: "Anchor-4" 0 0 basechar 0
AnchorPoint: "Anchor-3" 271 517 basechar 0
AnchorPoint: "Anchor-2" 0 0 basechar 0
LayerCount: 2
Fore
SplineSet
79.5 -162.5 m 128,-1,1
 62 -160 62 -160 54.5 -157 c 128,-1,2
 47 -154 47 -154 45 -153 c 2,3,-1
 45 -97 l 1,4,-1
 99 -98 l 2,5,6
 149 -99 149 -99 171.5 -83 c 128,-1,7
 194 -67 194 -67 205 -40 c 2,8,-1
 224 11 l 1,9,-1
 22 517 l 1,10,-1
 109 517 l 1,11,-1
 265 110 l 1,12,-1
 420 517 l 1,13,-1
 503 517 l 1,14,-1
 285 -44 l 2,15,16
 257 -111 257 -111 218 -138 c 128,-1,17
 179 -165 179 -165 123 -165 c 0,18,0
 97 -165 97 -165 79.5 -162.5 c 128,-1,1
404 665 m 1,19,-1
 153 591 l 1,20,-1
 139 636 l 1,21,-1
 382 732 l 1,22,-1
 404 665 l 1,19,-1
EndSplineSet
EndChar

StartChar: thorn
Encoding: 254 254 191
Width: 591
GlyphClass: 2
Flags: W
LayerCount: 2
Fore
SplineSet
165 445 m 1,0,1
 184 467 184 467 202 483.5 c 128,-1,2
 220 500 220 500 252.5 513.5 c 128,-1,3
 285 527 285 527 329 527 c 0,4,5
 390 527 390 527 438.5 498 c 128,-1,6
 487 469 487 469 514.5 410 c 128,-1,7
 542 351 542 351 542 266 c 0,8,9
 542 180 542 180 514 117.5 c 128,-1,10
 486 55 486 55 436 22.5 c 128,-1,11
 386 -10 386 -10 319 -10 c 0,12,13
 239 -10 239 -10 181 39 c 0,14,15
 174 46 174 46 170 46 c 128,-1,16
 166 46 166 46 166 33 c 2,17,-1
 166 -161 l 1,18,-1
 80 -161 l 1,19,-1
 80 723 l 1,20,-1
 165 723 l 1,21,-1
 165 445 l 1,0,1
295 51 m 0,22,23
 367 51 367 51 410.5 106 c 128,-1,24
 454 161 454 161 454 265 c 0,25,26
 454 366 454 366 411 415.5 c 128,-1,27
 368 465 368 465 300 465 c 0,28,29
 262 465 262 465 231.5 448.5 c 128,-1,30
 201 432 201 432 183.5 406 c 128,-1,31
 166 380 166 380 166 355 c 2,32,-1
 166 115 l 1,33,34
 227 51 227 51 295 51 c 0,22,23
EndSplineSet
EndChar

StartChar: ydieresis
Encoding: 255 255 192
Width: 525
GlyphClass: 2
Flags: W
AnchorPoint: "Anchor-5" 0 0 basechar 0
AnchorPoint: "Anchor-4" 0 0 basechar 0
AnchorPoint: "Anchor-3" 271 517 basechar 0
AnchorPoint: "Anchor-2" 0 0 basechar 0
LayerCount: 2
Fore
SplineSet
79.5 -162.5 m 128,-1,1
 62 -160 62 -160 54.5 -157 c 128,-1,2
 47 -154 47 -154 45 -153 c 2,3,-1
 45 -97 l 1,4,-1
 99 -98 l 2,5,6
 149 -99 149 -99 171.5 -83 c 128,-1,7
 194 -67 194 -67 205 -40 c 2,8,-1
 224 11 l 1,9,-1
 22 517 l 1,10,-1
 109 517 l 1,11,-1
 265 110 l 1,12,-1
 420 517 l 1,13,-1
 503 517 l 1,14,-1
 285 -44 l 2,15,16
 257 -111 257 -111 218 -138 c 128,-1,17
 179 -165 179 -165 123 -165 c 0,18,0
 97 -165 97 -165 79.5 -162.5 c 128,-1,1
240 615 m 1,19,-1
 156 615 l 1,20,-1
 156 723 l 1,21,-1
 240 723 l 1,22,-1
 240 615 l 1,19,-1
386 615 m 1,23,-1
 302 615 l 1,24,-1
 302 723 l 1,25,-1
 386 723 l 1,26,-1
 386 615 l 1,23,-1
EndSplineSet
EndChar

StartChar: Amacron
Encoding: 256 256 193
Width: 696
GlyphClass: 2
Flags: W
AnchorPoint: "Anchor-5" 0 0 basechar 0
AnchorPoint: "Anchor-4" 0 0 basechar 0
AnchorPoint: "Anchor-3" 353 723 basechar 0
AnchorPoint: "Anchor-2" 653 10 basechar 0
LayerCount: 2
Fore
SplineSet
299 723 m 1,0,-1
 398 723 l 1,1,-1
 659 0 l 1,2,-1
 572 0 l 1,3,-1
 499 202 l 1,4,-1
 199 202 l 1,5,-1
 125 0 l 1,6,-1
 37 0 l 1,7,-1
 299 723 l 1,0,-1
475 282 m 1,8,-1
 349 638 l 1,9,-1
 221 282 l 1,10,-1
 475 282 l 1,8,-1
499 854 m 1,11,-1
 207 854 l 1,12,-1
 207 916 l 1,13,-1
 499 916 l 1,14,-1
 499 854 l 1,11,-1
EndSplineSet
EndChar

StartChar: amacron
Encoding: 257 257 194
Width: 559
GlyphClass: 2
Flags: W
AnchorPoint: "Anchor-5" 0 0 basechar 0
AnchorPoint: "Anchor-4" 0 0 basechar 0
AnchorPoint: "Anchor-3" 279 517 basechar 0
AnchorPoint: "Anchor-2" 467 13 basechar 0
LayerCount: 2
Fore
SplineSet
96.5 30 m 128,-1,1
 50 70 50 70 50 139 c 0,2,3
 50 197 50 197 76 232.5 c 128,-1,4
 102 268 102 268 156.5 286.5 c 128,-1,5
 211 305 211 305 301 310 c 2,6,-1
 396 317 l 1,7,-1
 396 354 l 2,8,9
 396 405 396 405 364.5 434 c 128,-1,10
 333 463 333 463 277 463 c 0,11,12
 187 461 187 461 135 382 c 1,13,-1
 65 396 l 1,14,15
 88 458 88 458 145 492.5 c 128,-1,16
 202 527 202 527 282 527 c 0,17,18
 378 527 378 527 428.5 482.5 c 128,-1,19
 479 438 479 438 479 360 c 2,20,-1
 479 0 l 1,21,-1
 406 0 l 1,22,-1
 400 74 l 1,23,24
 328 -10 328 -10 219 -10 c 0,25,0
 143 -10 143 -10 96.5 30 c 128,-1,1
314.5 70 m 128,-1,27
 350 87 350 87 373 114 c 128,-1,28
 396 141 396 141 396 169 c 2,29,-1
 396 263 l 1,30,-1
 317 257 l 2,31,32
 219 251 219 251 176 227 c 128,-1,33
 133 203 133 203 133 147 c 0,34,35
 133 103 133 103 163.5 78 c 128,-1,36
 194 53 194 53 244 53 c 0,37,26
 279 53 279 53 314.5 70 c 128,-1,27
425 648 m 1,38,-1
 133 648 l 1,39,-1
 133 710 l 1,40,-1
 425 710 l 1,41,-1
 425 648 l 1,38,-1
EndSplineSet
EndChar

StartChar: Abreve
Encoding: 258 258 195
Width: 696
GlyphClass: 2
Flags: W
AnchorPoint: "Anchor-5" 0 0 basechar 0
AnchorPoint: "Anchor-4" 0 0 basechar 0
AnchorPoint: "Anchor-3" 353 723 basechar 0
AnchorPoint: "Anchor-2" 653 10 basechar 0
LayerCount: 2
Fore
SplineSet
299 723 m 1,0,-1
 398 723 l 1,1,-1
 659 0 l 1,2,-1
 572 0 l 1,3,-1
 499 202 l 1,4,-1
 199 202 l 1,5,-1
 125 0 l 1,6,-1
 37 0 l 1,7,-1
 299 723 l 1,0,-1
475 282 m 1,8,-1
 349 638 l 1,9,-1
 221 282 l 1,10,-1
 475 282 l 1,8,-1
450.5 854 m 128,-1,12
 411 823 411 823 353 823 c 0,13,14
 296 823 296 823 257 853 c 128,-1,15
 218 883 218 883 206 929 c 1,16,-1
 271 929 l 1,17,18
 302 877 302 877 353 877 c 0,19,20
 382 877 382 877 403 892.5 c 128,-1,21
 424 908 424 908 437 929 c 1,22,-1
 503 929 l 1,23,11
 490 885 490 885 450.5 854 c 128,-1,12
EndSplineSet
EndChar

StartChar: abreve
Encoding: 259 259 196
Width: 559
GlyphClass: 2
Flags: W
AnchorPoint: "Anchor-5" 0 0 basechar 0
AnchorPoint: "Anchor-4" 0 0 basechar 0
AnchorPoint: "Anchor-3" 279 517 basechar 0
AnchorPoint: "Anchor-2" 467 13 basechar 0
LayerCount: 2
Fore
SplineSet
96.5 30 m 128,-1,1
 50 70 50 70 50 139 c 0,2,3
 50 197 50 197 76 232.5 c 128,-1,4
 102 268 102 268 156.5 286.5 c 128,-1,5
 211 305 211 305 301 310 c 2,6,-1
 396 317 l 1,7,-1
 396 354 l 2,8,9
 396 405 396 405 364.5 434 c 128,-1,10
 333 463 333 463 277 463 c 0,11,12
 187 461 187 461 135 382 c 1,13,-1
 65 396 l 1,14,15
 88 458 88 458 145 492.5 c 128,-1,16
 202 527 202 527 282 527 c 0,17,18
 378 527 378 527 428.5 482.5 c 128,-1,19
 479 438 479 438 479 360 c 2,20,-1
 479 0 l 1,21,-1
 406 0 l 1,22,-1
 400 74 l 1,23,24
 328 -10 328 -10 219 -10 c 0,25,0
 143 -10 143 -10 96.5 30 c 128,-1,1
314.5 70 m 128,-1,27
 350 87 350 87 373 114 c 128,-1,28
 396 141 396 141 396 169 c 2,29,-1
 396 263 l 1,30,-1
 317 257 l 2,31,32
 219 251 219 251 176 227 c 128,-1,33
 133 203 133 203 133 147 c 0,34,35
 133 103 133 103 163.5 78 c 128,-1,36
 194 53 194 53 244 53 c 0,37,26
 279 53 279 53 314.5 70 c 128,-1,27
376.5 648 m 128,-1,39
 337 617 337 617 279 617 c 0,40,41
 222 617 222 617 183 647 c 128,-1,42
 144 677 144 677 132 723 c 1,43,-1
 197 723 l 1,44,45
 228 671 228 671 279 671 c 0,46,47
 308 671 308 671 329 686.5 c 128,-1,48
 350 702 350 702 363 723 c 1,49,-1
 429 723 l 1,50,38
 416 679 416 679 376.5 648 c 128,-1,39
EndSplineSet
EndChar

StartChar: Aogonek
Encoding: 260 260 197
Width: 696
GlyphClass: 2
Flags: W
AnchorPoint: "Anchor-5" 0 0 basechar 0
AnchorPoint: "Anchor-4" 0 0 basechar 0
AnchorPoint: "Anchor-3" 353 723 basechar 0
AnchorPoint: "Anchor-2" 653 10 basechar 0
LayerCount: 2
Fore
SplineSet
299 723 m 1,0,-1
 398 723 l 1,1,-1
 659 0 l 1,2,-1
 572 0 l 1,3,-1
 499 202 l 1,4,-1
 199 202 l 1,5,-1
 125 0 l 1,6,-1
 37 0 l 1,7,-1
 299 723 l 1,0,-1
475 282 m 1,8,-1
 349 638 l 1,9,-1
 221 282 l 1,10,-1
 475 282 l 1,8,-1
520 -32.5 m 128,-1,12
 543 -9 543 -9 600 9 c 1,13,-1
 663 2 l 1,14,15
 611 -20 611 -20 589 -38.5 c 128,-1,16
 567 -57 567 -57 567 -81 c 0,17,18
 567 -100 567 -100 578.5 -109 c 128,-1,19
 590 -118 590 -118 615 -118 c 0,20,21
 634 -118 634 -118 650.5 -114 c 128,-1,22
 667 -110 667 -110 676 -105 c 2,23,-1
 682 -103 l 2,24,25
 686 -103 686 -103 686 -111 c 2,26,-1
 686 -139 l 2,27,28
 686 -143 686 -143 685 -145.5 c 128,-1,29
 684 -148 684 -148 680 -150 c 0,30,31
 668 -157 668 -157 644 -162 c 128,-1,32
 620 -167 620 -167 595 -167 c 0,33,34
 547 -167 547 -167 522 -146 c 128,-1,35
 497 -125 497 -125 497 -88 c 0,36,11
 497 -56 497 -56 520 -32.5 c 128,-1,12
EndSplineSet
EndChar

StartChar: aogonek
Encoding: 261 261 198
Width: 559
GlyphClass: 2
Flags: W
AnchorPoint: "Anchor-5" 0 0 basechar 0
AnchorPoint: "Anchor-4" 0 0 basechar 0
AnchorPoint: "Anchor-3" 279 517 basechar 0
AnchorPoint: "Anchor-2" 467 13 basechar 0
LayerCount: 2
Fore
SplineSet
96.5 30 m 128,-1,1
 50 70 50 70 50 139 c 0,2,3
 50 197 50 197 76 232.5 c 128,-1,4
 102 268 102 268 156.5 286.5 c 128,-1,5
 211 305 211 305 301 310 c 2,6,-1
 396 317 l 1,7,-1
 396 354 l 2,8,9
 396 405 396 405 364.5 434 c 128,-1,10
 333 463 333 463 277 463 c 0,11,12
 187 461 187 461 135 382 c 1,13,-1
 65 396 l 1,14,15
 88 458 88 458 145 492.5 c 128,-1,16
 202 527 202 527 282 527 c 0,17,18
 378 527 378 527 428.5 482.5 c 128,-1,19
 479 438 479 438 479 360 c 2,20,-1
 479 0 l 1,21,-1
 406 0 l 1,22,-1
 400 74 l 1,23,24
 328 -10 328 -10 219 -10 c 0,25,0
 143 -10 143 -10 96.5 30 c 128,-1,1
314.5 70 m 128,-1,27
 350 87 350 87 373 114 c 128,-1,28
 396 141 396 141 396 169 c 2,29,-1
 396 263 l 1,30,-1
 317 257 l 2,31,32
 219 251 219 251 176 227 c 128,-1,33
 133 203 133 203 133 147 c 0,34,35
 133 103 133 103 163.5 78 c 128,-1,36
 194 53 194 53 244 53 c 0,37,26
 279 53 279 53 314.5 70 c 128,-1,27
334 -29.5 m 128,-1,39
 357 -6 357 -6 414 12 c 1,40,-1
 477 5 l 1,41,42
 425 -17 425 -17 403 -35.5 c 128,-1,43
 381 -54 381 -54 381 -78 c 0,44,45
 381 -97 381 -97 392.5 -106 c 128,-1,46
 404 -115 404 -115 429 -115 c 0,47,48
 448 -115 448 -115 464.5 -111 c 128,-1,49
 481 -107 481 -107 490 -102 c 2,50,-1
 496 -100 l 2,51,52
 500 -100 500 -100 500 -108 c 2,53,-1
 500 -136 l 2,54,55
 500 -140 500 -140 499 -142.5 c 128,-1,56
 498 -145 498 -145 494 -147 c 0,57,58
 482 -154 482 -154 458 -159 c 128,-1,59
 434 -164 434 -164 409 -164 c 0,60,61
 361 -164 361 -164 336 -143 c 128,-1,62
 311 -122 311 -122 311 -85 c 0,63,38
 311 -53 311 -53 334 -29.5 c 128,-1,39
EndSplineSet
EndChar

StartChar: Cacute
Encoding: 262 262 199
Width: 681
GlyphClass: 2
Flags: W
AnchorPoint: "Anchor-5" 0 0 basechar 0
AnchorPoint: "Anchor-4" 360 0 basechar 0
AnchorPoint: "Anchor-3" 360 723 basechar 0
AnchorPoint: "Anchor-2" 0 0 basechar 0
LayerCount: 2
Fore
SplineSet
489 704 m 128,-1,1
 549 675 549 675 585 625.5 c 128,-1,2
 621 576 621 576 628 516 c 1,3,-1
 537 511 l 1,4,5
 524 578 524 578 477.5 618 c 128,-1,6
 431 658 431 658 353 658 c 0,7,8
 252 658 252 658 200 584 c 128,-1,9
 148 510 148 510 148 362 c 0,10,11
 148 215 148 215 201 140.5 c 128,-1,12
 254 66 254 66 359 66 c 0,13,14
 426 66 426 66 473.5 105 c 128,-1,15
 521 144 521 144 535 210 c 1,16,-1
 625 202 l 1,17,18
 618 143 618 143 584 94.5 c 128,-1,19
 550 46 550 46 492 18 c 128,-1,20
 434 -10 434 -10 360 -10 c 0,21,22
 263 -10 263 -10 194 35 c 128,-1,23
 125 80 125 80 89 164 c 128,-1,24
 53 248 53 248 53 363 c 128,-1,25
 53 478 53 478 88.5 561.5 c 128,-1,26
 124 645 124 645 191.5 689 c 128,-1,27
 259 733 259 733 354 733 c 0,28,0
 429 733 429 733 489 704 c 128,-1,1
493 871 m 1,29,-1
 242 797 l 1,30,-1
 228 842 l 1,31,-1
 471 938 l 1,32,-1
 493 871 l 1,29,-1
EndSplineSet
EndChar

StartChar: cacute
Encoding: 263 263 200
Width: 537
GlyphClass: 2
Flags: W
AnchorPoint: "Anchor-5" 0 0 basechar 0
AnchorPoint: "Anchor-4" 285 0 basechar 0
AnchorPoint: "Anchor-3" 284 517 basechar 0
AnchorPoint: "Anchor-2" 0 0 basechar 0
LayerCount: 2
Fore
SplineSet
483 382 m 1,0,-1
 412 368 l 1,1,2
 378 417 378 417 353 437 c 128,-1,3
 328 457 328 457 288 457 c 0,4,5
 216 457 216 457 174 403.5 c 128,-1,6
 132 350 132 350 132 258 c 0,7,8
 132 165 132 165 174.5 110.5 c 128,-1,9
 217 56 217 56 289 56 c 0,10,11
 333 56 333 56 362.5 80.5 c 128,-1,12
 392 105 392 105 418 152 c 1,13,-1
 487 137 l 1,14,15
 461 68 461 68 409.5 29 c 128,-1,16
 358 -10 358 -10 284 -10 c 0,17,18
 214 -10 214 -10 160.5 23.5 c 128,-1,19
 107 57 107 57 78 117.5 c 128,-1,20
 49 178 49 178 49 256 c 0,21,22
 49 335 49 335 78 396.5 c 128,-1,23
 107 458 107 458 160.5 492.5 c 128,-1,24
 214 527 214 527 284 527 c 0,25,26
 424 527 424 527 483 382 c 1,0,-1
417 665 m 1,27,-1
 166 591 l 1,28,-1
 152 636 l 1,29,-1
 395 732 l 1,30,-1
 417 665 l 1,27,-1
EndSplineSet
EndChar

StartChar: Ccircumflex
Encoding: 264 264 201
Width: 681
GlyphClass: 2
Flags: W
AnchorPoint: "Anchor-5" 0 0 basechar 0
AnchorPoint: "Anchor-4" 360 0 basechar 0
AnchorPoint: "Anchor-3" 360 723 basechar 0
AnchorPoint: "Anchor-2" 0 0 basechar 0
LayerCount: 2
Fore
SplineSet
489 704 m 128,-1,1
 549 675 549 675 585 625.5 c 128,-1,2
 621 576 621 576 628 516 c 1,3,-1
 537 511 l 1,4,5
 524 578 524 578 477.5 618 c 128,-1,6
 431 658 431 658 353 658 c 0,7,8
 252 658 252 658 200 584 c 128,-1,9
 148 510 148 510 148 362 c 0,10,11
 148 215 148 215 201 140.5 c 128,-1,12
 254 66 254 66 359 66 c 0,13,14
 426 66 426 66 473.5 105 c 128,-1,15
 521 144 521 144 535 210 c 1,16,-1
 625 202 l 1,17,18
 618 143 618 143 584 94.5 c 128,-1,19
 550 46 550 46 492 18 c 128,-1,20
 434 -10 434 -10 360 -10 c 0,21,22
 263 -10 263 -10 194 35 c 128,-1,23
 125 80 125 80 89 164 c 128,-1,24
 53 248 53 248 53 363 c 128,-1,25
 53 478 53 478 88.5 561.5 c 128,-1,26
 124 645 124 645 191.5 689 c 128,-1,27
 259 733 259 733 354 733 c 0,28,0
 429 733 429 733 489 704 c 128,-1,1
360 886 m 1,29,-1
 284 820 l 1,30,-1
 205 820 l 1,31,-1
 330 932 l 1,32,-1
 392 932 l 1,33,-1
 514 820 l 1,34,-1
 430 820 l 1,35,-1
 360 886 l 1,29,-1
EndSplineSet
EndChar

StartChar: ccircumflex
Encoding: 265 265 202
Width: 537
GlyphClass: 2
Flags: W
AnchorPoint: "Anchor-5" 0 0 basechar 0
AnchorPoint: "Anchor-4" 285 0 basechar 0
AnchorPoint: "Anchor-3" 284 517 basechar 0
AnchorPoint: "Anchor-2" 0 0 basechar 0
LayerCount: 2
Fore
SplineSet
483 382 m 1,0,-1
 412 368 l 1,1,2
 378 417 378 417 353 437 c 128,-1,3
 328 457 328 457 288 457 c 0,4,5
 216 457 216 457 174 403.5 c 128,-1,6
 132 350 132 350 132 258 c 0,7,8
 132 165 132 165 174.5 110.5 c 128,-1,9
 217 56 217 56 289 56 c 0,10,11
 333 56 333 56 362.5 80.5 c 128,-1,12
 392 105 392 105 418 152 c 1,13,-1
 487 137 l 1,14,15
 461 68 461 68 409.5 29 c 128,-1,16
 358 -10 358 -10 284 -10 c 0,17,18
 214 -10 214 -10 160.5 23.5 c 128,-1,19
 107 57 107 57 78 117.5 c 128,-1,20
 49 178 49 178 49 256 c 0,21,22
 49 335 49 335 78 396.5 c 128,-1,23
 107 458 107 458 160.5 492.5 c 128,-1,24
 214 527 214 527 284 527 c 0,25,26
 424 527 424 527 483 382 c 1,0,-1
284 680 m 1,27,-1
 208 614 l 1,28,-1
 129 614 l 1,29,-1
 254 726 l 1,30,-1
 316 726 l 1,31,-1
 438 614 l 1,32,-1
 354 614 l 1,33,-1
 284 680 l 1,27,-1
EndSplineSet
EndChar

StartChar: Cdotaccent
Encoding: 266 266 203
Width: 681
GlyphClass: 2
Flags: W
AnchorPoint: "Anchor-5" 0 0 basechar 0
AnchorPoint: "Anchor-4" 360 0 basechar 0
AnchorPoint: "Anchor-3" 360 723 basechar 0
AnchorPoint: "Anchor-2" 0 0 basechar 0
LayerCount: 2
Fore
SplineSet
489 704 m 128,-1,1
 549 675 549 675 585 625.5 c 128,-1,2
 621 576 621 576 628 516 c 1,3,-1
 537 511 l 1,4,5
 524 578 524 578 477.5 618 c 128,-1,6
 431 658 431 658 353 658 c 0,7,8
 252 658 252 658 200 584 c 128,-1,9
 148 510 148 510 148 362 c 0,10,11
 148 215 148 215 201 140.5 c 128,-1,12
 254 66 254 66 359 66 c 0,13,14
 426 66 426 66 473.5 105 c 128,-1,15
 521 144 521 144 535 210 c 1,16,-1
 625 202 l 1,17,18
 618 143 618 143 584 94.5 c 128,-1,19
 550 46 550 46 492 18 c 128,-1,20
 434 -10 434 -10 360 -10 c 0,21,22
 263 -10 263 -10 194 35 c 128,-1,23
 125 80 125 80 89 164 c 128,-1,24
 53 248 53 248 53 363 c 128,-1,25
 53 478 53 478 88.5 561.5 c 128,-1,26
 124 645 124 645 191.5 689 c 128,-1,27
 259 733 259 733 354 733 c 0,28,0
 429 733 429 733 489 704 c 128,-1,1
406 814 m 1,29,-1
 314 814 l 1,30,-1
 314 929 l 1,31,-1
 406 929 l 1,32,-1
 406 814 l 1,29,-1
EndSplineSet
EndChar

StartChar: cdotaccent
Encoding: 267 267 204
Width: 537
GlyphClass: 2
Flags: W
AnchorPoint: "Anchor-5" 0 0 basechar 0
AnchorPoint: "Anchor-4" 285 0 basechar 0
AnchorPoint: "Anchor-3" 284 517 basechar 0
AnchorPoint: "Anchor-2" 0 0 basechar 0
LayerCount: 2
Fore
SplineSet
483 382 m 1,0,-1
 412 368 l 1,1,2
 378 417 378 417 353 437 c 128,-1,3
 328 457 328 457 288 457 c 0,4,5
 216 457 216 457 174 403.5 c 128,-1,6
 132 350 132 350 132 258 c 0,7,8
 132 165 132 165 174.5 110.5 c 128,-1,9
 217 56 217 56 289 56 c 0,10,11
 333 56 333 56 362.5 80.5 c 128,-1,12
 392 105 392 105 418 152 c 1,13,-1
 487 137 l 1,14,15
 461 68 461 68 409.5 29 c 128,-1,16
 358 -10 358 -10 284 -10 c 0,17,18
 214 -10 214 -10 160.5 23.5 c 128,-1,19
 107 57 107 57 78 117.5 c 128,-1,20
 49 178 49 178 49 256 c 0,21,22
 49 335 49 335 78 396.5 c 128,-1,23
 107 458 107 458 160.5 492.5 c 128,-1,24
 214 527 214 527 284 527 c 0,25,26
 424 527 424 527 483 382 c 1,0,-1
330 608 m 1,27,-1
 238 608 l 1,28,-1
 238 723 l 1,29,-1
 330 723 l 1,30,-1
 330 608 l 1,27,-1
EndSplineSet
EndChar

StartChar: Ccaron
Encoding: 268 268 205
Width: 681
GlyphClass: 2
Flags: W
AnchorPoint: "Anchor-5" 0 0 basechar 0
AnchorPoint: "Anchor-4" 360 0 basechar 0
AnchorPoint: "Anchor-3" 360 723 basechar 0
AnchorPoint: "Anchor-2" 0 0 basechar 0
LayerCount: 2
Fore
SplineSet
489 704 m 128,-1,1
 549 675 549 675 585 625.5 c 128,-1,2
 621 576 621 576 628 516 c 1,3,-1
 537 511 l 1,4,5
 524 578 524 578 477.5 618 c 128,-1,6
 431 658 431 658 353 658 c 0,7,8
 252 658 252 658 200 584 c 128,-1,9
 148 510 148 510 148 362 c 0,10,11
 148 215 148 215 201 140.5 c 128,-1,12
 254 66 254 66 359 66 c 0,13,14
 426 66 426 66 473.5 105 c 128,-1,15
 521 144 521 144 535 210 c 1,16,-1
 625 202 l 1,17,18
 618 143 618 143 584 94.5 c 128,-1,19
 550 46 550 46 492 18 c 128,-1,20
 434 -10 434 -10 360 -10 c 0,21,22
 263 -10 263 -10 194 35 c 128,-1,23
 125 80 125 80 89 164 c 128,-1,24
 53 248 53 248 53 363 c 128,-1,25
 53 478 53 478 88.5 561.5 c 128,-1,26
 124 645 124 645 191.5 689 c 128,-1,27
 259 733 259 733 354 733 c 0,28,0
 429 733 429 733 489 704 c 128,-1,1
514 929 m 1,29,-1
 392 817 l 1,30,-1
 329 817 l 1,31,-1
 204 929 l 1,32,-1
 284 929 l 1,33,-1
 360 863 l 1,34,-1
 430 929 l 1,35,-1
 514 929 l 1,29,-1
EndSplineSet
EndChar

StartChar: ccaron
Encoding: 269 269 206
Width: 537
GlyphClass: 2
Flags: W
AnchorPoint: "Anchor-5" 0 0 basechar 0
AnchorPoint: "Anchor-4" 285 0 basechar 0
AnchorPoint: "Anchor-3" 284 517 basechar 0
AnchorPoint: "Anchor-2" 0 0 basechar 0
LayerCount: 2
Fore
SplineSet
483 382 m 1,0,-1
 412 368 l 1,1,2
 378 417 378 417 353 437 c 128,-1,3
 328 457 328 457 288 457 c 0,4,5
 216 457 216 457 174 403.5 c 128,-1,6
 132 350 132 350 132 258 c 0,7,8
 132 165 132 165 174.5 110.5 c 128,-1,9
 217 56 217 56 289 56 c 0,10,11
 333 56 333 56 362.5 80.5 c 128,-1,12
 392 105 392 105 418 152 c 1,13,-1
 487 137 l 1,14,15
 461 68 461 68 409.5 29 c 128,-1,16
 358 -10 358 -10 284 -10 c 0,17,18
 214 -10 214 -10 160.5 23.5 c 128,-1,19
 107 57 107 57 78 117.5 c 128,-1,20
 49 178 49 178 49 256 c 0,21,22
 49 335 49 335 78 396.5 c 128,-1,23
 107 458 107 458 160.5 492.5 c 128,-1,24
 214 527 214 527 284 527 c 0,25,26
 424 527 424 527 483 382 c 1,0,-1
438 723 m 1,27,-1
 316 611 l 1,28,-1
 253 611 l 1,29,-1
 128 723 l 1,30,-1
 208 723 l 1,31,-1
 284 657 l 1,32,-1
 354 723 l 1,33,-1
 438 723 l 1,27,-1
EndSplineSet
EndChar

StartChar: Dcaron
Encoding: 270 270 207
Width: 685
GlyphClass: 2
Flags: W
AnchorPoint: "Anchor-5" 0 0 basechar 0
AnchorPoint: "Anchor-4" 0 0 basechar 0
AnchorPoint: "Anchor-3" 337 723 basechar 0
AnchorPoint: "Anchor-2" 0 0 basechar 0
LayerCount: 2
Fore
SplineSet
257 722 m 0,0,1
 453 720 453 720 543 631 c 128,-1,2
 633 542 633 542 633 366 c 0,3,4
 633 183 633 183 538 91.5 c 128,-1,5
 443 0 443 0 247 0 c 2,6,-1
 95 0 l 1,7,-1
 95 723 l 1,8,9
 196 723 196 723 257 722 c 0,0,1
184 75 m 1,10,-1
 247 75 l 2,11,12
 393 75 393 75 468 143 c 128,-1,13
 543 211 543 211 543 364 c 0,14,15
 543 518 543 518 469.5 583 c 128,-1,16
 396 648 396 648 251 648 c 2,17,-1
 184 648 l 1,18,-1
 184 75 l 1,10,-1
491 929 m 1,19,-1
 369 817 l 1,20,-1
 306 817 l 1,21,-1
 181 929 l 1,22,-1
 261 929 l 1,23,-1
 337 863 l 1,24,-1
 407 929 l 1,25,-1
 491 929 l 1,19,-1
EndSplineSet
EndChar

StartChar: dcaron
Encoding: 271 271 208
Width: 583
GlyphClass: 2
Flags: W
AnchorPoint: "Anchor-5" 594 661 basechar 0
AnchorPoint: "Anchor-4" 288 0 basechar 0
AnchorPoint: "Anchor-3" 0 0 basechar 0
AnchorPoint: "Anchor-2" 0 0 basechar 0
LayerCount: 2
Fore
SplineSet
106 58.5 m 128,-1,1
 49 127 49 127 49 253 c 0,2,3
 49 378 49 378 106 452.5 c 128,-1,4
 163 527 163 527 265 527 c 0,5,6
 309 527 309 527 346 511 c 128,-1,7
 383 495 383 495 418 462 c 1,8,-1
 418 743 l 1,9,-1
 504 743 l 1,10,-1
 504 0 l 1,11,-1
 436 0 l 1,12,-1
 432 74 l 1,13,14
 365 -10 365 -10 263 -10 c 0,15,0
 163 -10 163 -10 106 58.5 c 128,-1,1
349.5 76 m 128,-1,17
 381 95 381 95 399.5 125.5 c 128,-1,18
 418 156 418 156 418 188 c 2,19,-1
 418 376 l 1,20,21
 368 459 368 459 285 459 c 0,22,23
 215 459 215 459 174.5 407 c 128,-1,24
 134 355 134 355 134 256 c 0,25,26
 134 156 134 156 174.5 106.5 c 128,-1,27
 215 57 215 57 280 57 c 0,28,16
 318 57 318 57 349.5 76 c 128,-1,17
521 473 m 128,-1,30
 519 476 519 476 521 479 c 2,31,-1
 550 550 l 2,32,33
 552 556 552 556 551.5 558.5 c 128,-1,34
 551 561 551 561 546 562 c 2,35,-1
 539 563 l 2,36,37
 533 564 533 564 530.5 566 c 128,-1,38
 528 568 528 568 528 573 c 2,39,-1
 528 652 l 2,40,41
 528 661 528 661 536 661 c 2,42,-1
 594 661 l 2,43,44
 602 661 602 661 602 654 c 2,45,-1
 602 563 l 2,46,47
 602 561 602 561 601 560 c 128,-1,48
 600 559 600 559 600 558 c 2,49,-1
 567 479 l 2,50,51
 565 474 565 474 561 472 c 128,-1,52
 557 470 557 470 548 470 c 2,53,-1
 527 470 l 2,54,29
 523 470 523 470 521 473 c 128,-1,30
EndSplineSet
EndChar

StartChar: Dcroat
Encoding: 272 272 209
Width: 694
GlyphClass: 2
Flags: W
AnchorPoint: "Anchor-5" 0 0 basechar 0
AnchorPoint: "Anchor-4" 0 0 basechar 0
AnchorPoint: "Anchor-3" 346 723 basechar 0
AnchorPoint: "Anchor-2" 0 0 basechar 0
LayerCount: 2
Fore
SplineSet
552 631 m 128,-1,1
 642 542 642 542 642 366 c 0,2,3
 642 183 642 183 547 91.5 c 128,-1,4
 452 0 452 0 256 0 c 2,5,-1
 104 0 l 1,6,-1
 104 327 l 1,7,-1
 48 327 l 2,8,9
 39 327 39 327 36 330 c 128,-1,10
 33 333 33 333 33 341 c 2,11,-1
 33 384 l 2,12,13
 33 396 33 396 43 396 c 2,14,-1
 104 396 l 1,15,-1
 104 723 l 1,16,17
 205 723 205 723 266 722 c 0,18,0
 462 720 462 720 552 631 c 128,-1,1
477 143 m 128,-1,20
 552 211 552 211 552 364 c 0,21,22
 552 518 552 518 478.5 583 c 128,-1,23
 405 648 405 648 260 648 c 2,24,-1
 193 648 l 1,25,-1
 193 396 l 1,26,-1
 352 396 l 2,27,28
 362 396 362 396 362 385 c 2,29,-1
 362 342 l 2,30,31
 362 327 362 327 344 327 c 2,32,-1
 193 327 l 1,33,-1
 193 75 l 1,34,-1
 256 75 l 2,35,19
 402 75 402 75 477 143 c 128,-1,20
EndSplineSet
EndChar

StartChar: dcroat
Encoding: 273 273 210
Width: 598
GlyphClass: 2
Flags: W
AnchorPoint: "Anchor-5" 594 661 basechar 0
AnchorPoint: "Anchor-4" 288 0 basechar 0
AnchorPoint: "Anchor-3" 0 0 basechar 0
AnchorPoint: "Anchor-2" 0 0 basechar 0
LayerCount: 2
Fore
SplineSet
572 598 m 1,0,-1
 504 598 l 1,1,-1
 504 0 l 1,2,-1
 436 0 l 1,3,-1
 432 74 l 1,4,5
 365 -10 365 -10 263 -10 c 0,6,7
 163 -10 163 -10 106 58.5 c 128,-1,8
 49 127 49 127 49 253 c 0,9,10
 49 378 49 378 106 452.5 c 128,-1,11
 163 527 163 527 265 527 c 0,12,13
 309 527 309 527 346 511 c 128,-1,14
 383 495 383 495 418 462 c 1,15,-1
 418 598 l 1,16,-1
 267 598 l 1,17,-1
 267 653 l 1,18,-1
 418 653 l 1,19,-1
 418 743 l 1,20,-1
 504 743 l 1,21,-1
 504 653 l 1,22,-1
 572 653 l 1,23,-1
 572 598 l 1,0,-1
418 376 m 1,24,25
 368 459 368 459 285 459 c 0,26,27
 215 459 215 459 174.5 407 c 128,-1,28
 134 355 134 355 134 256 c 0,29,30
 134 156 134 156 174.5 106.5 c 128,-1,31
 215 57 215 57 280 57 c 0,32,33
 318 57 318 57 349.5 76 c 128,-1,34
 381 95 381 95 399.5 125.5 c 128,-1,35
 418 156 418 156 418 188 c 2,36,-1
 418 376 l 1,24,25
EndSplineSet
EndChar

StartChar: Emacron
Encoding: 274 274 211
Width: 621
GlyphClass: 2
Flags: W
AnchorPoint: "Anchor-5" 0 0 basechar 0
AnchorPoint: "Anchor-4" 343 0 basechar 0
AnchorPoint: "Anchor-3" 331 723 basechar 0
AnchorPoint: "Anchor-2" 549 10 basechar 0
LayerCount: 2
Fore
SplineSet
95 723 m 1,0,-1
 546 723 l 1,1,-1
 546 647 l 1,2,-1
 181 647 l 1,3,-1
 181 403 l 1,4,-1
 511 403 l 1,5,-1
 511 327 l 1,6,-1
 181 327 l 1,7,-1
 181 78 l 1,8,-1
 556 77 l 1,9,-1
 556 0 l 1,10,-1
 95 0 l 1,11,-1
 95 723 l 1,0,-1
477 854 m 1,12,-1
 185 854 l 1,13,-1
 185 916 l 1,14,-1
 477 916 l 1,15,-1
 477 854 l 1,12,-1
EndSplineSet
EndChar

StartChar: emacron
Encoding: 275 275 212
Width: 556
GlyphClass: 2
Flags: W
AnchorPoint: "Anchor-5" 0 0 basechar 0
AnchorPoint: "Anchor-4" 278 0 basechar 0
AnchorPoint: "Anchor-3" 284 517 basechar 0
AnchorPoint: "Anchor-2" 387 20 basechar 0
LayerCount: 2
Fore
SplineSet
176.5 108.5 m 128,-1,1
 217 58 217 58 291 58 c 0,2,3
 391 58 391 58 422 138 c 1,4,-1
 500 127 l 1,5,6
 482 63 482 63 425.5 26.5 c 128,-1,7
 369 -10 369 -10 293 -10 c 0,8,9
 221 -10 221 -10 166 21.5 c 128,-1,10
 111 53 111 53 80 112.5 c 128,-1,11
 49 172 49 172 49 253 c 0,12,13
 49 378 49 378 111.5 452.5 c 128,-1,14
 174 527 174 527 284 527 c 0,15,16
 390 527 390 527 448.5 459 c 128,-1,17
 507 391 507 391 507 272 c 2,18,-1
 507 238 l 1,19,-1
 136 238 l 1,20,0
 136 159 136 159 176.5 108.5 c 128,-1,1
424 298 m 1,21,22
 424 370 424 370 388 415 c 128,-1,23
 352 460 352 460 283 460 c 0,24,25
 235 460 235 460 202 437 c 128,-1,26
 169 414 169 414 152.5 376.5 c 128,-1,27
 136 339 136 339 136 298 c 1,28,-1
 424 298 l 1,21,22
430 648 m 1,29,-1
 138 648 l 1,30,-1
 138 710 l 1,31,-1
 430 710 l 1,32,-1
 430 648 l 1,29,-1
EndSplineSet
EndChar

StartChar: Ebreve
Encoding: 276 276 213
Width: 621
GlyphClass: 2
Flags: W
AnchorPoint: "Anchor-5" 0 0 basechar 0
AnchorPoint: "Anchor-4" 343 0 basechar 0
AnchorPoint: "Anchor-3" 331 723 basechar 0
AnchorPoint: "Anchor-2" 549 10 basechar 0
LayerCount: 2
Fore
SplineSet
95 723 m 1,0,-1
 546 723 l 1,1,-1
 546 647 l 1,2,-1
 181 647 l 1,3,-1
 181 403 l 1,4,-1
 511 403 l 1,5,-1
 511 327 l 1,6,-1
 181 327 l 1,7,-1
 181 78 l 1,8,-1
 556 77 l 1,9,-1
 556 0 l 1,10,-1
 95 0 l 1,11,-1
 95 723 l 1,0,-1
428.5 854 m 128,-1,13
 389 823 389 823 331 823 c 0,14,15
 274 823 274 823 235 853 c 128,-1,16
 196 883 196 883 184 929 c 1,17,-1
 249 929 l 1,18,19
 280 877 280 877 331 877 c 0,20,21
 360 877 360 877 381 892.5 c 128,-1,22
 402 908 402 908 415 929 c 1,23,-1
 481 929 l 1,24,12
 468 885 468 885 428.5 854 c 128,-1,13
EndSplineSet
EndChar

StartChar: ebreve
Encoding: 277 277 214
Width: 556
GlyphClass: 2
Flags: W
AnchorPoint: "Anchor-5" 0 0 basechar 0
AnchorPoint: "Anchor-4" 278 0 basechar 0
AnchorPoint: "Anchor-3" 284 517 basechar 0
AnchorPoint: "Anchor-2" 387 20 basechar 0
LayerCount: 2
Fore
SplineSet
176.5 108.5 m 128,-1,1
 217 58 217 58 291 58 c 0,2,3
 391 58 391 58 422 138 c 1,4,-1
 500 127 l 1,5,6
 482 63 482 63 425.5 26.5 c 128,-1,7
 369 -10 369 -10 293 -10 c 0,8,9
 221 -10 221 -10 166 21.5 c 128,-1,10
 111 53 111 53 80 112.5 c 128,-1,11
 49 172 49 172 49 253 c 0,12,13
 49 378 49 378 111.5 452.5 c 128,-1,14
 174 527 174 527 284 527 c 0,15,16
 390 527 390 527 448.5 459 c 128,-1,17
 507 391 507 391 507 272 c 2,18,-1
 507 238 l 1,19,-1
 136 238 l 1,20,0
 136 159 136 159 176.5 108.5 c 128,-1,1
424 298 m 1,21,22
 424 370 424 370 388 415 c 128,-1,23
 352 460 352 460 283 460 c 0,24,25
 235 460 235 460 202 437 c 128,-1,26
 169 414 169 414 152.5 376.5 c 128,-1,27
 136 339 136 339 136 298 c 1,28,-1
 424 298 l 1,21,22
381.5 648 m 128,-1,30
 342 617 342 617 284 617 c 0,31,32
 227 617 227 617 188 647 c 128,-1,33
 149 677 149 677 137 723 c 1,34,-1
 202 723 l 1,35,36
 233 671 233 671 284 671 c 0,37,38
 313 671 313 671 334 686.5 c 128,-1,39
 355 702 355 702 368 723 c 1,40,-1
 434 723 l 1,41,29
 421 679 421 679 381.5 648 c 128,-1,30
EndSplineSet
EndChar

StartChar: Edotaccent
Encoding: 278 278 215
Width: 621
GlyphClass: 2
Flags: W
AnchorPoint: "Anchor-5" 0 0 basechar 0
AnchorPoint: "Anchor-4" 343 0 basechar 0
AnchorPoint: "Anchor-3" 331 723 basechar 0
AnchorPoint: "Anchor-2" 549 10 basechar 0
LayerCount: 2
Fore
SplineSet
95 723 m 1,0,-1
 546 723 l 1,1,-1
 546 647 l 1,2,-1
 181 647 l 1,3,-1
 181 403 l 1,4,-1
 511 403 l 1,5,-1
 511 327 l 1,6,-1
 181 327 l 1,7,-1
 181 78 l 1,8,-1
 556 77 l 1,9,-1
 556 0 l 1,10,-1
 95 0 l 1,11,-1
 95 723 l 1,0,-1
377 814 m 1,12,-1
 285 814 l 1,13,-1
 285 929 l 1,14,-1
 377 929 l 1,15,-1
 377 814 l 1,12,-1
EndSplineSet
EndChar

StartChar: edotaccent
Encoding: 279 279 216
Width: 556
GlyphClass: 2
Flags: W
AnchorPoint: "Anchor-5" 0 0 basechar 0
AnchorPoint: "Anchor-4" 278 0 basechar 0
AnchorPoint: "Anchor-3" 284 517 basechar 0
AnchorPoint: "Anchor-2" 387 20 basechar 0
LayerCount: 2
Fore
SplineSet
176.5 108.5 m 128,-1,1
 217 58 217 58 291 58 c 0,2,3
 391 58 391 58 422 138 c 1,4,-1
 500 127 l 1,5,6
 482 63 482 63 425.5 26.5 c 128,-1,7
 369 -10 369 -10 293 -10 c 0,8,9
 221 -10 221 -10 166 21.5 c 128,-1,10
 111 53 111 53 80 112.5 c 128,-1,11
 49 172 49 172 49 253 c 0,12,13
 49 378 49 378 111.5 452.5 c 128,-1,14
 174 527 174 527 284 527 c 0,15,16
 390 527 390 527 448.5 459 c 128,-1,17
 507 391 507 391 507 272 c 2,18,-1
 507 238 l 1,19,-1
 136 238 l 1,20,0
 136 159 136 159 176.5 108.5 c 128,-1,1
424 298 m 1,21,22
 424 370 424 370 388 415 c 128,-1,23
 352 460 352 460 283 460 c 0,24,25
 235 460 235 460 202 437 c 128,-1,26
 169 414 169 414 152.5 376.5 c 128,-1,27
 136 339 136 339 136 298 c 1,28,-1
 424 298 l 1,21,22
330 608 m 1,29,-1
 238 608 l 1,30,-1
 238 723 l 1,31,-1
 330 723 l 1,32,-1
 330 608 l 1,29,-1
EndSplineSet
EndChar

StartChar: Eogonek
Encoding: 280 280 217
Width: 621
GlyphClass: 2
Flags: W
AnchorPoint: "Anchor-5" 0 0 basechar 0
AnchorPoint: "Anchor-4" 343 0 basechar 0
AnchorPoint: "Anchor-3" 331 723 basechar 0
AnchorPoint: "Anchor-2" 549 10 basechar 0
LayerCount: 2
Fore
SplineSet
95 723 m 1,0,-1
 546 723 l 1,1,-1
 546 647 l 1,2,-1
 181 647 l 1,3,-1
 181 403 l 1,4,-1
 511 403 l 1,5,-1
 511 327 l 1,6,-1
 181 327 l 1,7,-1
 181 78 l 1,8,-1
 556 77 l 1,9,-1
 556 0 l 1,10,-1
 95 0 l 1,11,-1
 95 723 l 1,0,-1
416 -32.5 m 128,-1,13
 439 -9 439 -9 496 9 c 1,14,-1
 559 2 l 1,15,16
 507 -20 507 -20 485 -38.5 c 128,-1,17
 463 -57 463 -57 463 -81 c 0,18,19
 463 -100 463 -100 474.5 -109 c 128,-1,20
 486 -118 486 -118 511 -118 c 0,21,22
 530 -118 530 -118 546.5 -114 c 128,-1,23
 563 -110 563 -110 572 -105 c 2,24,-1
 578 -103 l 2,25,26
 582 -103 582 -103 582 -111 c 2,27,-1
 582 -139 l 2,28,29
 582 -143 582 -143 581 -145.5 c 128,-1,30
 580 -148 580 -148 576 -150 c 0,31,32
 564 -157 564 -157 540 -162 c 128,-1,33
 516 -167 516 -167 491 -167 c 0,34,35
 443 -167 443 -167 418 -146 c 128,-1,36
 393 -125 393 -125 393 -88 c 0,37,12
 393 -56 393 -56 416 -32.5 c 128,-1,13
EndSplineSet
EndChar

StartChar: eogonek
Encoding: 281 281 218
Width: 556
GlyphClass: 2
Flags: W
AnchorPoint: "Anchor-5" 0 0 basechar 0
AnchorPoint: "Anchor-4" 278 0 basechar 0
AnchorPoint: "Anchor-3" 284 517 basechar 0
AnchorPoint: "Anchor-2" 387 20 basechar 0
LayerCount: 2
Fore
SplineSet
176.5 108.5 m 128,-1,1
 217 58 217 58 291 58 c 0,2,3
 391 58 391 58 422 138 c 1,4,-1
 500 127 l 1,5,6
 482 63 482 63 425.5 26.5 c 128,-1,7
 369 -10 369 -10 293 -10 c 0,8,9
 221 -10 221 -10 166 21.5 c 128,-1,10
 111 53 111 53 80 112.5 c 128,-1,11
 49 172 49 172 49 253 c 0,12,13
 49 378 49 378 111.5 452.5 c 128,-1,14
 174 527 174 527 284 527 c 0,15,16
 390 527 390 527 448.5 459 c 128,-1,17
 507 391 507 391 507 272 c 2,18,-1
 507 238 l 1,19,-1
 136 238 l 1,20,0
 136 159 136 159 176.5 108.5 c 128,-1,1
424 298 m 1,21,22
 424 370 424 370 388 415 c 128,-1,23
 352 460 352 460 283 460 c 0,24,25
 235 460 235 460 202 437 c 128,-1,26
 169 414 169 414 152.5 376.5 c 128,-1,27
 136 339 136 339 136 298 c 1,28,-1
 424 298 l 1,21,22
254 -22.5 m 128,-1,30
 277 1 277 1 334 19 c 1,31,-1
 397 12 l 1,32,33
 345 -10 345 -10 323 -28.5 c 128,-1,34
 301 -47 301 -47 301 -71 c 0,35,36
 301 -90 301 -90 312.5 -99 c 128,-1,37
 324 -108 324 -108 349 -108 c 0,38,39
 368 -108 368 -108 384.5 -104 c 128,-1,40
 401 -100 401 -100 410 -95 c 2,41,-1
 416 -93 l 2,42,43
 420 -93 420 -93 420 -101 c 2,44,-1
 420 -129 l 2,45,46
 420 -133 420 -133 419 -135.5 c 128,-1,47
 418 -138 418 -138 414 -140 c 0,48,49
 402 -147 402 -147 378 -152 c 128,-1,50
 354 -157 354 -157 329 -157 c 0,51,52
 281 -157 281 -157 256 -136 c 128,-1,53
 231 -115 231 -115 231 -78 c 0,54,29
 231 -46 231 -46 254 -22.5 c 128,-1,30
EndSplineSet
EndChar

StartChar: Ecaron
Encoding: 282 282 219
Width: 621
GlyphClass: 2
Flags: W
AnchorPoint: "Anchor-5" 0 0 basechar 0
AnchorPoint: "Anchor-4" 343 0 basechar 0
AnchorPoint: "Anchor-3" 331 723 basechar 0
AnchorPoint: "Anchor-2" 549 10 basechar 0
LayerCount: 2
Fore
SplineSet
95 723 m 1,0,-1
 546 723 l 1,1,-1
 546 647 l 1,2,-1
 181 647 l 1,3,-1
 181 403 l 1,4,-1
 511 403 l 1,5,-1
 511 327 l 1,6,-1
 181 327 l 1,7,-1
 181 78 l 1,8,-1
 556 77 l 1,9,-1
 556 0 l 1,10,-1
 95 0 l 1,11,-1
 95 723 l 1,0,-1
485 929 m 1,12,-1
 363 817 l 1,13,-1
 300 817 l 1,14,-1
 175 929 l 1,15,-1
 255 929 l 1,16,-1
 331 863 l 1,17,-1
 401 929 l 1,18,-1
 485 929 l 1,12,-1
EndSplineSet
EndChar

StartChar: ecaron
Encoding: 283 283 220
Width: 556
GlyphClass: 2
Flags: W
AnchorPoint: "Anchor-5" 0 0 basechar 0
AnchorPoint: "Anchor-4" 278 0 basechar 0
AnchorPoint: "Anchor-3" 284 517 basechar 0
AnchorPoint: "Anchor-2" 387 20 basechar 0
LayerCount: 2
Fore
SplineSet
176.5 108.5 m 128,-1,1
 217 58 217 58 291 58 c 0,2,3
 391 58 391 58 422 138 c 1,4,-1
 500 127 l 1,5,6
 482 63 482 63 425.5 26.5 c 128,-1,7
 369 -10 369 -10 293 -10 c 0,8,9
 221 -10 221 -10 166 21.5 c 128,-1,10
 111 53 111 53 80 112.5 c 128,-1,11
 49 172 49 172 49 253 c 0,12,13
 49 378 49 378 111.5 452.5 c 128,-1,14
 174 527 174 527 284 527 c 0,15,16
 390 527 390 527 448.5 459 c 128,-1,17
 507 391 507 391 507 272 c 2,18,-1
 507 238 l 1,19,-1
 136 238 l 1,20,0
 136 159 136 159 176.5 108.5 c 128,-1,1
424 298 m 1,21,22
 424 370 424 370 388 415 c 128,-1,23
 352 460 352 460 283 460 c 0,24,25
 235 460 235 460 202 437 c 128,-1,26
 169 414 169 414 152.5 376.5 c 128,-1,27
 136 339 136 339 136 298 c 1,28,-1
 424 298 l 1,21,22
438 723 m 1,29,-1
 316 611 l 1,30,-1
 253 611 l 1,31,-1
 128 723 l 1,32,-1
 208 723 l 1,33,-1
 284 657 l 1,34,-1
 354 723 l 1,35,-1
 438 723 l 1,29,-1
EndSplineSet
EndChar

StartChar: Gcircumflex
Encoding: 284 284 221
Width: 725
GlyphClass: 2
Flags: W
AnchorPoint: "Anchor-5" 0 0 basechar 0
AnchorPoint: "Anchor-4" 362 0 basechar 0
AnchorPoint: "Anchor-3" 358 723 basechar 0
AnchorPoint: "Anchor-2" 0 0 basechar 0
LayerCount: 2
Fore
SplineSet
195.5 34.5 m 128,-1,1
 127 79 127 79 90 162.5 c 128,-1,2
 53 246 53 246 53 359 c 0,3,4
 53 475 53 475 91 559.5 c 128,-1,5
 129 644 129 644 198.5 688.5 c 128,-1,6
 268 733 268 733 361 733 c 0,7,8
 430 733 430 733 490.5 703 c 128,-1,9
 551 673 551 673 588.5 623.5 c 128,-1,10
 626 574 626 574 630 517 c 1,11,-1
 537 511 l 1,12,13
 525 574 525 574 476.5 615 c 128,-1,14
 428 656 428 656 360 656 c 0,15,16
 259 656 259 656 202 580.5 c 128,-1,17
 145 505 145 505 145 365 c 0,18,19
 145 217 145 217 203 142.5 c 128,-1,20
 261 68 261 68 362 68 c 0,21,22
 421 68 421 68 463 95 c 128,-1,23
 505 122 505 122 527 162 c 128,-1,24
 549 202 549 202 551 242 c 2,25,-1
 553 309 l 1,26,-1
 374 309 l 1,27,-1
 374 373 l 1,28,-1
 642 372 l 1,29,-1
 642 0 l 1,30,-1
 576 0 l 1,31,-1
 576 112 l 1,32,33
 544 58 544 58 490 24 c 128,-1,34
 436 -10 436 -10 357 -10 c 0,35,0
 264 -10 264 -10 195.5 34.5 c 128,-1,1
358 886 m 1,36,-1
 282 820 l 1,37,-1
 203 820 l 1,38,-1
 328 932 l 1,39,-1
 390 932 l 1,40,-1
 512 820 l 1,41,-1
 428 820 l 1,42,-1
 358 886 l 1,36,-1
EndSplineSet
EndChar

StartChar: gcircumflex
Encoding: 285 285 222
Width: 601
GlyphClass: 2
Flags: W
AnchorPoint: "Anchor-5" 0 0 basechar 0
AnchorPoint: "Anchor-4" 0 0 basechar 0
AnchorPoint: "Anchor-3" 296 517 basechar 0
AnchorPoint: "Anchor-2" 0 0 basechar 0
LayerCount: 2
Fore
SplineSet
102 -134 m 128,-1,1
 36 -97 36 -97 36 -34 c 0,2,3
 36 7 36 7 62 32 c 128,-1,4
 88 57 88 57 108.5 67 c 128,-1,5
 129 77 129 77 133 80 c 1,6,7
 129 82 129 82 114.5 91 c 128,-1,8
 100 100 100 100 90.5 113 c 128,-1,9
 81 126 81 126 81 144 c 0,10,11
 81 169 81 169 104.5 188.5 c 128,-1,12
 128 208 128 208 171 218 c 1,13,14
 121 244 121 244 98 279 c 128,-1,15
 75 314 75 314 75 361 c 0,16,17
 75 438 75 438 136 481.5 c 128,-1,18
 197 525 197 525 298 525 c 0,19,20
 346 525 346 525 380.5 514 c 128,-1,21
 415 503 415 503 446 480 c 1,22,23
 456 483 456 483 499 502 c 2,24,-1
 576 533 l 1,25,-1
 575 451 l 1,26,-1
 485 434 l 1,27,28
 492 419 492 419 497 397.5 c 128,-1,29
 502 376 502 376 502 362 c 0,30,31
 502 317 502 317 478.5 280 c 128,-1,32
 455 243 455 243 407 221 c 128,-1,33
 359 199 359 199 289 199 c 0,34,35
 269 199 269 199 261 200 c 0,36,37
 209 199 209 199 186 188.5 c 128,-1,38
 163 178 163 178 163 164 c 0,39,40
 163 149 163 149 184.5 143 c 128,-1,41
 206 137 206 137 263 133 c 2,42,-1
 375 127 l 2,43,44
 460 121 460 121 501 85 c 128,-1,45
 542 49 542 49 542 -12 c 0,46,47
 542 -86 542 -86 476.5 -128.5 c 128,-1,48
 411 -171 411 -171 291 -171 c 0,49,0
 168 -171 168 -171 102 -134 c 128,-1,1
387.5 282.5 m 128,-1,51
 420 310 420 310 420 361 c 0,52,53
 420 413 420 413 387 442 c 128,-1,54
 354 471 354 471 292 471 c 128,-1,55
 230 471 230 471 195.5 441.5 c 128,-1,56
 161 412 161 412 161 361 c 0,57,58
 161 311 161 311 195.5 283 c 128,-1,59
 230 255 230 255 292 255 c 0,60,50
 355 255 355 255 387.5 282.5 c 128,-1,51
421 -92.5 m 128,-1,62
 458 -70 458 -70 458 -24 c 0,63,64
 458 10 458 10 435.5 29 c 128,-1,65
 413 48 413 48 362 52 c 2,66,-1
 214 61 l 2,67,68
 195 62 195 62 173 51 c 128,-1,69
 151 40 151 40 136 20 c 128,-1,70
 121 0 121 0 121 -24 c 0,71,72
 121 -69 121 -69 168.5 -92 c 128,-1,73
 216 -115 216 -115 306 -115 c 0,74,61
 384 -115 384 -115 421 -92.5 c 128,-1,62
296 680 m 1,75,-1
 220 614 l 1,76,-1
 141 614 l 1,77,-1
 266 726 l 1,78,-1
 328 726 l 1,79,-1
 450 614 l 1,80,-1
 366 614 l 1,81,-1
 296 680 l 1,75,-1
EndSplineSet
EndChar

StartChar: Gbreve
Encoding: 286 286 223
Width: 725
GlyphClass: 2
Flags: W
AnchorPoint: "Anchor-5" 0 0 basechar 0
AnchorPoint: "Anchor-4" 362 0 basechar 0
AnchorPoint: "Anchor-3" 358 723 basechar 0
AnchorPoint: "Anchor-2" 0 0 basechar 0
LayerCount: 2
Fore
SplineSet
195.5 34.5 m 128,-1,1
 127 79 127 79 90 162.5 c 128,-1,2
 53 246 53 246 53 359 c 0,3,4
 53 475 53 475 91 559.5 c 128,-1,5
 129 644 129 644 198.5 688.5 c 128,-1,6
 268 733 268 733 361 733 c 0,7,8
 430 733 430 733 490.5 703 c 128,-1,9
 551 673 551 673 588.5 623.5 c 128,-1,10
 626 574 626 574 630 517 c 1,11,-1
 537 511 l 1,12,13
 525 574 525 574 476.5 615 c 128,-1,14
 428 656 428 656 360 656 c 0,15,16
 259 656 259 656 202 580.5 c 128,-1,17
 145 505 145 505 145 365 c 0,18,19
 145 217 145 217 203 142.5 c 128,-1,20
 261 68 261 68 362 68 c 0,21,22
 421 68 421 68 463 95 c 128,-1,23
 505 122 505 122 527 162 c 128,-1,24
 549 202 549 202 551 242 c 2,25,-1
 553 309 l 1,26,-1
 374 309 l 1,27,-1
 374 373 l 1,28,-1
 642 372 l 1,29,-1
 642 0 l 1,30,-1
 576 0 l 1,31,-1
 576 112 l 1,32,33
 544 58 544 58 490 24 c 128,-1,34
 436 -10 436 -10 357 -10 c 0,35,0
 264 -10 264 -10 195.5 34.5 c 128,-1,1
455.5 854 m 128,-1,37
 416 823 416 823 358 823 c 0,38,39
 301 823 301 823 262 853 c 128,-1,40
 223 883 223 883 211 929 c 1,41,-1
 276 929 l 1,42,43
 307 877 307 877 358 877 c 0,44,45
 387 877 387 877 408 892.5 c 128,-1,46
 429 908 429 908 442 929 c 1,47,-1
 508 929 l 1,48,36
 495 885 495 885 455.5 854 c 128,-1,37
EndSplineSet
EndChar

